<svg width="27" height="31" viewBox="0 0 27 31" fill="none" xmlns="http://www.w3.org/2000/svg">
<path d="M19.7854 7.85747C22.0546 8.04117 23.7584 8.86903 24.9497 10.3223C22.7956 11.8003 21.702 13.8336 21.7249 16.3863L21.7249 16.3867C21.7457 18.4966 22.5156 20.2733 24.0205 21.6757C24.5705 22.2036 25.1963 22.6442 25.8763 22.9832C25.7534 23.3202 25.6258 23.6466 25.4936 23.9641C25.0573 24.9849 24.5184 25.9583 23.8853 26.8691C23.0183 28.1127 22.3302 28.9356 21.8287 29.3751L21.8286 29.375L21.8194 29.3836C21.0405 30.1016 20.2383 30.4437 19.4041 30.4646C18.7926 30.4635 18.0144 30.2867 17.0637 29.8941L17.0625 29.8936C16.0266 29.469 15.052 29.2512 14.1392 29.2512C13.1903 29.2512 12.1907 29.4677 11.1414 29.8929L11.1404 29.8932C10.1601 30.2928 9.41597 30.4807 8.88502 30.4975L8.88502 30.4975L8.87909 30.4977C8.11824 30.5308 7.30556 30.2003 6.43377 29.3858L6.42787 29.3803L6.4218 29.375C5.87199 28.8936 5.15414 28.0366 4.26438 26.7751L4.26371 26.7741C3.33667 25.4662 2.56928 23.9362 1.96531 22.1856C1.31987 20.2951 1 18.4777 1 16.726C1 14.7224 1.43049 13.0222 2.27108 11.6128L2.27114 11.6129L2.27523 11.6057C2.90947 10.5016 3.81607 9.58028 4.90749 8.93042L4.90965 8.92912C5.9818 8.28339 7.20545 7.93556 8.45525 7.92108C9.11258 7.92165 10.0245 8.12871 11.2164 8.57731C11.8283 8.80765 12.3392 8.9844 12.7447 9.10425C13.1331 9.21906 13.4753 9.29764 13.725 9.29764C13.8538 9.29764 14.0063 9.26719 14.149 9.23253C14.304 9.1949 14.4934 9.1404 14.7143 9.07096C15.1565 8.93193 15.7474 8.72586 16.4838 8.45513C17.8327 7.96778 18.9249 7.78424 19.7834 7.8573L19.7854 7.85747ZM13.9992 6.7407V6.73931C13.9992 5.38963 14.5855 3.91182 15.6659 2.68574L15.6684 2.68286C16.1915 2.08003 16.8636 1.56928 17.6931 1.15806C18.3352 0.844136 18.936 0.645032 19.4976 0.55322C19.4978 0.57596 19.498 0.598692 19.498 0.621413C19.498 2.03731 18.9851 3.37426 17.9285 4.63547C16.7505 6.01576 15.4072 6.80328 14 6.83998C13.9994 6.8069 13.9991 6.7738 13.9992 6.7407Z" fill="black" stroke="#F6F6F6"/>
</svg>
