<svg width="343" height="291" viewBox="0 0 343 291" fill="none" xmlns="http://www.w3.org/2000/svg">
<g opacity="0.8">
<path d="M300.414 242.874C306.21 246.376 315.603 246.376 321.399 242.874C327.195 239.371 327.187 233.701 321.399 230.198C315.611 226.695 306.21 226.695 300.414 230.198C294.618 233.701 294.626 239.355 300.414 242.874Z" fill="#E0E0E0"/>
<path d="M35.947 215.693C35.9947 215.681 36.0396 215.659 36.079 215.63C36.1184 215.6 36.1515 215.563 36.1764 215.521C36.2013 215.479 36.2174 215.432 36.2239 215.383C36.2303 215.334 36.227 215.284 36.214 215.237C30.1197 192.328 5.99364 189.022 0.346952 189.47C0.297732 189.473 0.249602 189.485 0.205407 189.507C0.161213 189.529 0.121848 189.56 0.0896374 189.597C0.0574266 189.634 0.0330236 189.678 0.017868 189.725C0.00271233 189.771 -0.00288893 189.821 0.00139662 189.87C0.00942984 189.969 0.0559365 190.06 0.130874 190.125C0.205812 190.19 0.303169 190.222 0.401927 190.216C5.8994 189.823 29.5228 193.059 35.4915 215.457C35.5237 215.546 35.5885 215.62 35.673 215.664C35.7575 215.708 35.8554 215.718 35.947 215.693Z" fill="white"/>
<path d="M9.1212 204.093C9.19687 204.079 9.26582 204.04 9.31754 203.983C11.5482 202.055 14.1755 200.641 17.0134 199.842C19.8513 199.042 22.8303 198.877 25.7393 199.357C25.791 199.373 25.8455 199.377 25.899 199.369C25.9525 199.362 26.0037 199.343 26.0493 199.314C26.0949 199.285 26.1337 199.247 26.1631 199.201C26.1925 199.156 26.2118 199.105 26.2198 199.052C26.2277 198.998 26.2241 198.944 26.2092 198.892C26.1942 198.84 26.1683 198.792 26.1332 198.751C26.098 198.71 26.0545 198.677 26.0055 198.654C25.9565 198.631 25.9032 198.619 25.8492 198.619C22.8239 198.118 19.7253 198.292 16.7751 199.129C13.8249 199.965 11.096 201.443 8.7835 203.457C8.71439 203.528 8.67578 203.624 8.67578 203.724C8.67578 203.823 8.71439 203.919 8.7835 203.991C8.82679 204.035 8.88037 204.067 8.93936 204.085C8.99835 204.103 9.06086 204.105 9.1212 204.093Z" fill="white"/>
<path d="M228.832 0.545006L272.238 25.6135C272.66 25.8889 273.012 26.2599 273.265 26.6965C273.517 27.1332 273.663 27.6231 273.691 28.1266V147.453C273.663 147.957 273.517 148.447 273.265 148.883C273.012 149.32 272.66 149.691 272.238 149.966L228.832 175.035C228.381 175.263 227.884 175.382 227.379 175.382C226.874 175.382 226.376 175.263 225.926 175.035L182.519 149.966C182.096 149.692 181.744 149.321 181.491 148.884C181.239 148.447 181.093 147.957 181.066 147.453V28.1266C181.094 27.6231 181.24 27.1332 181.493 26.6965C181.745 26.2599 182.097 25.8889 182.519 25.6135L225.926 0.545006C226.377 0.320234 226.874 0.203247 227.379 0.203247C227.883 0.203247 228.38 0.320234 228.832 0.545006Z" fill="#37474F"/>
<path d="M181.066 28.1267V147.453C181.094 147.956 181.239 148.445 181.49 148.882C181.741 149.318 182.091 149.69 182.511 149.966L225.926 175.035C226.372 175.274 226.873 175.393 227.379 175.38V52.6925C226.873 52.7013 226.373 52.5824 225.926 52.3469L182.511 27.2863L182.119 26.9565L181.6 26.5245C181.274 26.997 181.089 27.5527 181.066 28.1267Z" fill="#263238"/>
<path d="M266.787 39.8676L234.273 58.6376C233.85 58.9142 233.498 59.2866 233.246 59.7246C232.993 60.1625 232.848 60.6538 232.82 61.1585V73.5278C232.82 74.4546 233.464 74.8315 234.265 74.3682L266.779 55.5982C267.201 55.3228 267.553 54.9518 267.806 54.5152C268.058 54.0786 268.204 53.5887 268.232 53.0851V40.708C268.24 39.7812 267.627 39.4043 266.787 39.8676Z" fill="#455A64"/>
<path d="M265.516 45.3259C265.478 45.8131 265.327 46.2847 265.075 46.7033C264.822 47.1218 264.476 47.4758 264.063 47.7369L237 63.3576C236.214 63.821 235.547 63.4911 235.547 62.6272C235.585 62.14 235.736 61.6684 235.988 61.2499C236.24 60.8313 236.587 60.4774 237 60.2162L264.063 44.5877C264.864 44.1243 265.516 44.4542 265.516 45.3259Z" fill="#EA9924"/>
<path d="M265.516 51.6166C265.478 52.1038 265.327 52.5754 265.075 52.9939C264.822 53.4125 264.476 53.7664 264.063 54.0276L237 69.6483C236.214 70.1116 235.547 69.7818 235.547 68.9179C235.585 68.4307 235.736 67.9591 235.988 67.5405C236.24 67.122 236.587 66.768 237 66.5068L264.063 50.8783C264.864 50.415 265.516 50.7448 265.516 51.6166Z" fill="#263238"/>
<path d="M264.062 50.8783L249.141 59.5172V62.6586L264.062 54.0197C264.475 53.7585 264.822 53.4046 265.074 52.9861C265.326 52.5675 265.477 52.0959 265.515 51.6087C265.515 50.7448 264.863 50.415 264.062 50.8783Z" fill="#EA9924"/>
<path d="M266.787 61.889L234.273 80.6589C233.851 80.9348 233.5 81.306 233.248 81.7425C232.995 82.179 232.849 82.6687 232.82 83.1721V95.5492C232.82 96.476 233.464 96.8529 234.265 96.3896L266.779 77.6196C267.201 77.3442 267.553 76.9732 267.806 76.5366C268.058 76.1 268.204 75.6101 268.232 75.1065V62.7293C268.24 61.8026 267.627 61.4571 266.787 61.889Z" fill="#455A64"/>
<path d="M265.516 67.3394C265.479 67.8279 265.329 68.3011 265.076 68.7211C264.824 69.1411 264.477 69.4963 264.063 69.7582L237 85.3789C236.214 85.8423 235.547 85.5124 235.547 84.6485C235.584 84.16 235.734 83.6868 235.986 83.2668C236.239 82.8468 236.586 82.4916 237 82.2296L264.063 66.609C264.864 66.1692 265.516 66.4755 265.516 67.3394Z" fill="#EA9924"/>
<path d="M265.516 73.6378C265.478 74.125 265.327 74.5966 265.075 75.0152C264.822 75.4337 264.476 75.7877 264.063 76.0488L237 91.6695C236.214 92.1329 235.547 91.803 235.547 90.9391C235.585 90.4519 235.736 89.9803 235.988 89.5618C236.24 89.1432 236.587 88.7893 237 88.5281L264.063 72.8996C264.864 72.4519 265.516 72.7661 265.516 73.6378Z" fill="#263238"/>
<path d="M264.062 72.8997L240.996 86.2507V89.3921L264.062 76.0803C264.475 75.8191 264.821 75.4652 265.074 75.0467C265.326 74.6281 265.477 74.1565 265.515 73.6693C265.515 72.7661 264.863 72.452 264.062 72.8997Z" fill="#EA9924"/>
<path d="M266.787 83.9102L234.273 102.68C233.851 102.956 233.499 103.327 233.247 103.763C232.994 104.2 232.848 104.69 232.82 105.193V117.57C232.82 118.497 233.464 118.874 234.265 118.411L266.779 99.6408C267.202 99.3642 267.554 98.9918 267.806 98.5538C268.059 98.1159 268.205 97.6246 268.232 97.1199V84.7506C268.24 83.8238 267.627 83.4469 266.787 83.9102Z" fill="#455A64"/>
<path d="M265.516 89.3606C265.478 89.8478 265.327 90.3194 265.075 90.7379C264.822 91.1565 264.476 91.5104 264.063 91.7716L237 107.4C236.214 107.863 235.547 107.534 235.547 106.662C235.585 106.175 235.736 105.703 235.988 105.285C236.24 104.866 236.587 104.512 237 104.251L264.063 88.6302C264.864 88.159 265.516 88.4967 265.516 89.3606Z" fill="#EA9924"/>
<path d="M265.516 95.6513C265.478 96.1385 265.327 96.6101 265.075 97.0286C264.822 97.4472 264.476 97.8011 264.063 98.0623L237 113.691C236.214 114.154 235.547 113.824 235.547 112.953C235.585 112.465 235.736 111.994 235.988 111.575C236.24 111.157 236.587 110.803 237 110.542L264.063 94.9209C264.864 94.4418 265.516 94.7874 265.516 95.6513Z" fill="#263238"/>
<path d="M264.061 94.9209L254.637 100.371V103.513L264.061 98.0545C264.474 97.7933 264.82 97.4393 265.073 97.0208C265.325 96.6022 265.476 96.1306 265.514 95.6434C265.514 94.7874 264.862 94.4418 264.061 94.9209Z" fill="#EA9924"/>
<path d="M266.787 105.932L234.273 124.702C233.851 124.977 233.499 125.348 233.247 125.785C232.994 126.221 232.848 126.711 232.82 127.215V139.592C232.82 140.519 233.464 140.895 234.265 140.432L266.779 121.662C267.202 121.386 267.554 121.013 267.806 120.575C268.059 120.137 268.205 119.646 268.232 119.141V106.772C268.24 105.845 267.627 105.437 266.787 105.932Z" fill="#455A64"/>
<path d="M265.516 111.382C265.478 111.869 265.327 112.341 265.075 112.759C264.822 113.178 264.476 113.532 264.063 113.793L237 129.421C236.214 129.885 235.547 129.555 235.547 128.683C235.585 128.196 235.736 127.724 235.988 127.306C236.24 126.887 236.587 126.533 237 126.272L264.063 110.652C264.864 110.188 265.516 110.518 265.516 111.382Z" fill="#EA9924"/>
<path d="M265.516 117.673C265.478 118.16 265.327 118.631 265.075 119.05C264.822 119.468 264.476 119.822 264.063 120.084L237 135.712C236.214 136.175 235.547 135.846 235.547 134.974C235.585 134.487 235.736 134.015 235.988 133.596C236.24 133.178 236.587 132.824 237 132.563L264.063 116.942C264.864 116.479 265.516 116.809 265.516 117.673Z" fill="#263238"/>
<path d="M264.062 116.942L249.141 125.542V128.683L264.062 120.084C264.475 119.822 264.822 119.468 265.074 119.05C265.326 118.631 265.477 118.16 265.515 117.673C265.515 116.809 264.863 116.479 264.062 116.942Z" fill="#EA9924"/>
<path d="M266.787 127.953L234.273 146.723C233.851 146.998 233.499 147.369 233.247 147.806C232.994 148.242 232.848 148.732 232.82 149.236V161.613C232.82 162.54 233.464 162.909 234.265 162.446L266.779 143.676C267.201 143.4 267.553 143.029 267.806 142.593C268.058 142.156 268.204 141.666 268.232 141.163V128.785C268.24 127.859 267.627 127.489 266.787 127.953Z" fill="#455A64"/>
<path d="M265.516 133.403C265.478 133.89 265.327 134.362 265.075 134.781C264.822 135.199 264.476 135.553 264.063 135.814L237 151.443C236.214 151.898 235.547 151.576 235.547 150.705C235.585 150.217 235.736 149.746 235.988 149.327C236.24 148.909 236.587 148.555 237 148.294L264.063 132.665C264.864 132.21 265.516 132.532 265.516 133.403Z" fill="#EA9924"/>
<path d="M265.516 139.694C265.478 140.181 265.327 140.653 265.075 141.071C264.822 141.49 264.476 141.844 264.063 142.105L237 157.733C236.214 158.197 235.547 157.867 235.547 156.995C235.585 156.508 235.736 156.036 235.988 155.618C236.24 155.199 236.587 154.845 237 154.584L264.063 138.963C264.864 138.5 265.516 138.822 265.516 139.694Z" fill="#263238"/>
<path d="M264.063 138.963L243.723 150.704V153.846L264.063 142.066C264.476 141.804 264.823 141.45 265.075 141.032C265.327 140.613 265.478 140.142 265.516 139.655C265.516 138.822 264.864 138.5 264.063 138.963Z" fill="#EA9924"/>
<path d="M220.569 60.2711C219.061 59.3994 217.844 60.1926 217.844 62.046V133.992C217.883 134.97 218.149 135.925 218.622 136.781C219.096 137.637 219.762 138.371 220.569 138.924C222.069 139.796 223.286 139.003 223.286 137.149V65.2032C223.248 64.2263 222.983 63.2719 222.511 62.4157C222.039 61.5595 221.374 60.8252 220.569 60.2711Z" fill="#37474F"/>
<path d="M220.57 137.33C220.165 137.054 219.831 136.687 219.594 136.259C219.357 135.831 219.223 135.353 219.203 134.864V62.7214C219.203 61.7947 219.816 61.3942 220.57 61.834C220.971 62.1102 221.303 62.4761 221.539 62.9028C221.775 63.3294 221.908 63.8051 221.928 64.2922V136.443C221.928 137.361 221.292 137.762 220.57 137.33Z" fill="#263238"/>
<path d="M220.57 137.33C220.165 137.054 219.831 136.687 219.594 136.259C219.357 135.831 219.223 135.353 219.203 134.864V100.371L221.928 101.942V136.435C221.928 137.361 221.292 137.762 220.57 137.33Z" fill="#EA9924"/>
<path d="M212.393 55.5512C210.885 54.6794 209.668 55.4726 209.668 57.3261V129.272C209.703 130.251 209.968 131.207 210.442 132.064C210.915 132.92 211.584 133.654 212.393 134.204C213.893 135.076 215.118 134.283 215.118 132.429V60.4832C215.079 59.5057 214.813 58.5508 214.34 57.6945C213.867 56.8383 213.2 56.1043 212.393 55.5512Z" fill="#37474F"/>
<path d="M212.394 132.61C211.99 132.334 211.656 131.967 211.418 131.539C211.181 131.111 211.047 130.633 211.027 130.144V58.0015C211.027 57.0748 211.64 56.6821 212.394 57.114C212.797 57.391 213.129 57.7582 213.365 58.1863C213.601 58.6144 213.734 59.0916 213.753 59.58V131.723C213.753 132.649 213.148 133.042 212.394 132.61Z" fill="#EA9924"/>
<path d="M204.217 50.839C202.717 49.9595 201.492 50.7605 201.492 52.6061V124.552C201.531 125.53 201.798 126.485 202.271 127.341C202.744 128.197 203.411 128.931 204.217 129.484C205.725 130.356 206.943 129.563 206.943 127.709V55.7711C206.907 54.7928 206.642 53.8365 206.169 52.9797C205.695 52.1228 205.027 51.3895 204.217 50.839Z" fill="#37474F"/>
<path d="M204.218 127.89C203.814 127.616 203.48 127.251 203.244 126.824C203.008 126.397 202.876 125.92 202.859 125.432V53.2814C202.859 52.3626 203.464 51.9621 204.218 52.394C204.622 52.6702 204.956 53.0369 205.193 53.4651C205.431 53.8932 205.565 54.3709 205.585 54.86V127.003C205.585 127.929 204.972 128.33 204.218 127.89Z" fill="#263238"/>
<path d="M204.218 127.89C203.814 127.617 203.48 127.251 203.244 126.824C203.008 126.397 202.876 125.92 202.859 125.432V69.6719L205.585 71.2426V127.003C205.585 127.929 204.972 128.33 204.218 127.89Z" fill="#EA9924"/>
<path d="M196.049 46.119C194.541 45.2473 193.324 46.0405 193.324 47.8939V119.832C193.359 120.811 193.624 121.767 194.098 122.624C194.571 123.48 195.24 124.214 196.049 124.764C197.549 125.636 198.767 124.843 198.767 122.989V51.0511C198.729 50.0742 198.463 49.1198 197.992 48.2636C197.52 47.4074 196.855 46.6731 196.049 46.119Z" fill="#37474F"/>
<path d="M196.05 123.17C195.647 122.895 195.314 122.529 195.076 122.102C194.839 121.676 194.705 121.2 194.684 120.712V48.5694C194.684 47.6427 195.296 47.2422 196.05 47.6741C196.453 47.9511 196.785 48.3183 197.021 48.7464C197.257 49.1745 197.39 49.6517 197.409 50.1401V122.283C197.409 123.209 196.796 123.61 196.05 123.17Z" fill="#263238"/>
<path d="M196.05 123.17C195.647 122.895 195.314 122.529 195.076 122.102C194.839 121.676 194.705 121.2 194.684 120.712V108.531L197.409 110.102V122.275C197.409 123.209 196.796 123.61 196.05 123.17Z" fill="#EA9924"/>
<path d="M187.878 41.3991C186.37 40.5273 185.152 41.3205 185.152 43.174V115.112C185.188 116.091 185.453 117.047 185.926 117.904C186.399 118.761 187.068 119.494 187.878 120.044C189.378 120.924 190.603 120.123 190.603 118.277V46.3311C190.564 45.3536 190.297 44.3987 189.824 43.5424C189.351 42.6862 188.684 41.9522 187.878 41.3991Z" fill="#37474F"/>
<path d="M187.874 118.458C187.47 118.182 187.136 117.815 186.899 117.387C186.662 116.959 186.528 116.481 186.508 115.992V43.8494C186.508 42.9227 187.12 42.5221 187.874 42.9619C188.279 43.2354 188.612 43.6007 188.849 44.028C189.085 44.4552 189.216 44.9322 189.233 45.4201V117.563C189.233 118.489 188.628 118.89 187.874 118.458Z" fill="#263238"/>
<path d="M187.874 118.458C187.47 118.182 187.136 117.815 186.899 117.387C186.662 116.959 186.528 116.481 186.508 115.992V78.35L189.233 79.9207V117.555C189.233 118.489 188.628 118.89 187.874 118.458Z" fill="#EA9924"/>
<path d="M222.127 147.673L186.315 126.995C185.671 126.626 185.152 126.924 185.152 127.67V140.715C185.174 141.118 185.29 141.51 185.492 141.859C185.694 142.209 185.976 142.506 186.315 142.725L222.127 163.404C222.771 163.773 223.289 163.474 223.289 162.736V149.684C223.268 149.281 223.151 148.888 222.949 148.539C222.747 148.19 222.465 147.893 222.127 147.673Z" fill="#37474F"/>
<path d="M220.656 151.545C220.656 152.409 220.004 152.739 219.203 152.275L189.234 134.997C188.821 134.736 188.475 134.382 188.223 133.964C187.97 133.545 187.819 133.074 187.781 132.586C187.781 131.715 188.433 131.385 189.234 131.848L219.203 149.126C219.617 149.388 219.964 149.743 220.217 150.163C220.469 150.583 220.619 151.056 220.656 151.545Z" fill="#263238"/>
<path d="M220.657 151.545C220.657 152.409 220.005 152.739 219.204 152.275L197.41 139.71V136.568L219.204 149.134C219.617 149.395 219.963 149.749 220.215 150.167C220.468 150.586 220.619 151.058 220.657 151.545Z" fill="#EA9924"/>
<path d="M220.656 157.836C220.656 158.699 220.004 159.029 219.203 158.566L189.234 141.288C188.821 141.027 188.475 140.673 188.223 140.255C187.97 139.836 187.819 139.364 187.781 138.877C187.781 138.005 188.433 137.676 189.234 138.139L219.203 155.417C219.617 155.679 219.964 156.034 220.217 156.454C220.469 156.874 220.619 157.347 220.656 157.836Z" fill="#263238"/>
<path d="M220.656 157.836C220.656 158.699 220.004 159.029 219.203 158.566L211.027 153.854V150.712L219.203 155.425C219.616 155.686 219.962 156.04 220.214 156.458C220.467 156.877 220.618 157.348 220.656 157.836Z" fill="#EA9924"/>
<path d="M182.521 25.6135L225.928 0.545006C226.379 0.320234 226.877 0.203247 227.381 0.203247C227.885 0.203247 228.382 0.320234 228.834 0.545006L272.24 25.6135C272.417 25.6709 272.571 25.7828 272.68 25.9331C272.789 26.0833 272.847 26.2642 272.847 26.4499C272.847 26.6355 272.789 26.8165 272.68 26.9667C272.571 27.1169 272.417 27.2288 272.24 27.2863L228.834 52.3469C228.383 52.5753 227.886 52.6943 227.381 52.6943C226.876 52.6943 226.378 52.5753 225.928 52.3469L182.521 27.2863C182.345 27.2288 182.191 27.1169 182.082 26.9667C181.973 26.8165 181.914 26.6355 181.914 26.4499C181.914 26.2642 181.973 26.0833 182.082 25.9331C182.191 25.7828 182.345 25.6709 182.521 25.6135Z" fill="#455A64"/>
<path d="M228.252 46.3939L261.92 26.9486C262.175 26.7849 262.387 26.5627 262.539 26.3004C262.691 26.0381 262.777 25.7433 262.792 25.4407V24.3098C262.777 24.0072 262.691 23.7124 262.539 23.4501C262.387 23.1878 262.175 22.9656 261.92 22.8019L228.252 3.34087C227.981 3.20541 227.683 3.13489 227.38 3.13489C227.078 3.13489 226.779 3.20541 226.509 3.34087L192.833 22.8019C192.579 22.967 192.368 23.1896 192.216 23.4516C192.065 23.7136 191.977 24.0076 191.961 24.3098V25.4407C191.977 25.7429 192.065 26.0369 192.216 26.2989C192.368 26.5609 192.579 26.7835 192.833 26.9486L226.509 46.3939C226.779 46.5294 227.078 46.5999 227.38 46.5999C227.683 46.5999 227.981 46.5294 228.252 46.3939Z" fill="#263238"/>
<path d="M261.918 23.8072L228.25 43.2447C227.98 43.3838 227.681 43.4564 227.378 43.4564C227.075 43.4564 226.776 43.3838 226.506 43.2447L192.83 23.8072C192.727 23.77 192.637 23.7018 192.574 23.6119C192.511 23.5219 192.477 23.4146 192.477 23.3046C192.477 23.1946 192.511 23.0873 192.574 22.9973C192.637 22.9074 192.727 22.8391 192.83 22.802L226.506 4.03203C226.776 3.89291 227.075 3.82031 227.378 3.82031C227.681 3.82031 227.98 3.89291 228.25 4.03203L261.918 22.802C262.025 22.8352 262.119 22.9019 262.186 22.9924C262.252 23.0828 262.288 23.1922 262.288 23.3046C262.288 23.4169 262.252 23.5264 262.186 23.6168C262.119 23.7072 262.025 23.774 261.918 23.8072Z" fill="#455A64"/>
<path d="M227.379 43.4567V46.5981C227.682 46.606 227.982 46.5357 228.251 46.3939L261.919 26.9486C262.174 26.7849 262.386 26.5627 262.537 26.3004C262.689 26.0381 262.776 25.7433 262.79 25.4407V24.3098C262.777 24.0403 262.707 23.7767 262.585 23.536C262.463 23.2952 262.293 23.0826 262.084 22.9119C262.398 23.1867 262.343 23.5637 261.919 23.8072L228.251 43.2447C227.983 43.3892 227.683 43.4622 227.379 43.4567Z" fill="#37474F"/>
<path d="M228.25 36.954L251.025 23.8072C251.283 23.6447 251.499 23.4233 251.654 23.1612C251.81 22.899 251.901 22.6036 251.92 22.2993V21.1605C251.902 20.8588 251.814 20.5654 251.662 20.3037C251.511 20.042 251.301 19.8191 251.049 19.6526L236.418 11.1944C235.857 10.8433 235.361 10.3999 234.949 9.88286L227.975 0.458622C227.808 0.239664 227.567 0.0882091 227.298 0.0319663C227.028 -0.0242765 226.747 0.0184499 226.506 0.152332L203.731 13.2991C203.477 13.4637 203.266 13.6862 203.114 13.9483C202.962 14.2104 202.875 14.5047 202.859 14.807V22.2365C202.876 22.5386 202.963 22.8327 203.115 23.0947C203.266 23.3567 203.477 23.5793 203.731 23.7443L226.506 36.8911C226.771 37.0401 227.067 37.1235 227.37 37.1344C227.674 37.1454 227.975 37.0835 228.25 36.954Z" fill="#263238"/>
<path d="M226.508 33.8126L211.869 25.3779C211.591 25.214 211.328 25.0247 211.084 24.8125C210.822 24.5757 210.585 24.3126 210.377 24.0271L203.403 14.6029C203.324 14.5026 203.268 14.3862 203.238 14.2617C203.209 14.1372 203.207 14.0078 203.233 13.8827C203.26 13.7575 203.313 13.6397 203.39 13.5375C203.467 13.4353 203.565 13.3512 203.678 13.2913L226.453 0.144522C226.694 0.0106398 226.975 -0.0320896 227.245 0.0241532C227.514 0.0803961 227.755 0.231851 227.922 0.450809L234.896 9.87504C235.262 10.4046 235.719 10.8646 236.247 11.2337L250.972 19.6134C251.076 19.6506 251.165 19.7188 251.228 19.8088C251.292 19.8987 251.326 20.0061 251.326 20.116C251.326 20.226 251.292 20.3333 251.228 20.4233C251.165 20.5133 251.076 20.5815 250.972 20.6187L228.197 33.7733C227.936 33.9062 227.649 33.9787 227.357 33.9855C227.065 33.9923 226.775 33.9332 226.508 33.8126Z" fill="#455A64"/>
<path d="M203.731 13.362L226.506 0.215201C226.747 0.0813186 227.028 0.0385891 227.298 0.0948319C227.567 0.151075 227.808 0.302529 227.975 0.521488L234.949 9.94573C235.162 10.215 235.401 10.4623 235.664 10.684C235.664 10.684 211.153 24.8203 211.145 24.8203C210.878 24.5857 210.639 24.3223 210.43 24.035L203.456 14.6107C203.388 14.5121 203.341 14.4004 203.317 14.2826C203.294 14.1649 203.295 14.0436 203.321 13.9264C203.347 13.8091 203.397 13.6985 203.467 13.6014C203.538 13.5043 203.628 13.4228 203.731 13.362Z" fill="#37474F"/>
<path d="M245.497 19.8883C245.181 19.7257 244.831 19.6409 244.476 19.6409C244.121 19.6409 243.771 19.7257 243.455 19.8883C242.89 20.2103 242.89 20.7364 243.455 21.0663C243.772 21.2252 244.122 21.3079 244.476 21.3079C244.831 21.3079 245.18 21.2252 245.497 21.0663C246.063 20.7364 246.063 20.2103 245.497 19.8883Z" fill="#EA9924"/>
<path d="M241.411 22.2443C241.094 22.0854 240.745 22.0027 240.39 22.0027C240.036 22.0027 239.686 22.0854 239.369 22.2443C238.804 22.5742 238.804 23.1004 239.369 23.4224C239.685 23.5849 240.035 23.6698 240.39 23.6698C240.746 23.6698 241.096 23.5849 241.411 23.4224C241.977 23.1004 241.977 22.5742 241.411 22.2443Z" fill="#EA9924"/>
<path d="M237.33 24.6004C237.011 24.4414 236.661 24.3586 236.305 24.3586C235.949 24.3586 235.598 24.4414 235.28 24.6004C235.157 24.6435 235.051 24.7237 234.975 24.8299C234.9 24.9361 234.859 25.0631 234.859 25.1933C234.859 25.3236 234.9 25.4506 234.975 25.5568C235.051 25.663 235.157 25.7432 235.28 25.7863C235.598 25.9453 235.949 26.0281 236.305 26.0281C236.661 26.0281 237.011 25.9453 237.33 25.7863C237.453 25.7432 237.559 25.663 237.634 25.5568C237.71 25.4506 237.75 25.3236 237.75 25.1933C237.75 25.0631 237.71 24.9361 237.634 24.8299C237.559 24.7237 237.453 24.6435 237.33 24.6004Z" fill="#263238"/>
<path d="M233.237 26.9643C232.921 26.8017 232.571 26.7169 232.216 26.7169C231.861 26.7169 231.511 26.8017 231.195 26.9643C231.071 27.0053 230.963 27.0843 230.887 27.19C230.811 27.2958 230.77 27.4229 230.77 27.5533C230.77 27.6838 230.811 27.8109 230.887 27.9166C230.963 28.0224 231.071 28.1014 231.195 28.1423C231.511 28.3049 231.861 28.3897 232.216 28.3897C232.571 28.3897 232.921 28.3049 233.237 28.1423C233.361 28.1014 233.469 28.0224 233.545 27.9166C233.621 27.8109 233.662 27.6838 233.662 27.5533C233.662 27.4229 233.621 27.2958 233.545 27.19C233.469 27.0843 233.361 27.0053 233.237 26.9643Z" fill="#263238"/>
<path d="M242.435 18.1134C242.118 17.9544 241.769 17.8717 241.414 17.8717C241.06 17.8717 240.71 17.9544 240.393 18.1134C240.27 18.1564 240.164 18.2366 240.088 18.3428C240.013 18.4491 239.973 18.5761 239.973 18.7063C239.973 18.8365 240.013 18.9635 240.088 19.0698C240.164 19.176 240.27 19.2562 240.393 19.2992C240.71 19.4582 241.06 19.5409 241.414 19.5409C241.769 19.5409 242.118 19.4582 242.435 19.2992C242.558 19.2562 242.665 19.176 242.74 19.0698C242.815 18.9635 242.856 18.8365 242.856 18.7063C242.856 18.5761 242.815 18.4491 242.74 18.3428C242.665 18.2366 242.558 18.1564 242.435 18.1134Z" fill="#EA9924"/>
<path d="M238.35 20.4773C238.033 20.3147 237.682 20.2299 237.325 20.2299C236.969 20.2299 236.618 20.3147 236.3 20.4773C236.177 20.5183 236.069 20.5973 235.992 20.703C235.916 20.8088 235.875 20.9359 235.875 21.0663C235.875 21.1968 235.916 21.3239 235.992 21.4296C236.069 21.5354 236.177 21.6144 236.3 21.6553C236.619 21.8143 236.97 21.8971 237.325 21.8971C237.681 21.8971 238.032 21.8143 238.35 21.6553C238.474 21.6144 238.582 21.5354 238.658 21.4296C238.735 21.3239 238.776 21.1968 238.776 21.0663C238.776 20.9359 238.735 20.8088 238.658 20.703C238.582 20.5973 238.474 20.5183 238.35 20.4773Z" fill="#263238"/>
<path d="M233.238 24.2549C234.036 24.2549 234.683 23.8822 234.683 23.4224C234.683 22.9627 234.036 22.59 233.238 22.59C232.44 22.59 231.793 22.9627 231.793 23.4224C231.793 23.8822 232.44 24.2549 233.238 24.2549Z" fill="#EA9924"/>
<path d="M230.173 25.1972C229.857 25.0346 229.507 24.9498 229.152 24.9498C228.797 24.9498 228.447 25.0346 228.131 25.1972C227.566 25.5192 227.566 26.0454 228.131 26.3753C228.448 26.5342 228.798 26.6169 229.152 26.6169C229.507 26.6169 229.856 26.5342 230.173 26.3753C230.715 26.0454 230.715 25.5192 230.173 25.1972Z" fill="#263238"/>
<path d="M239.357 16.3464C239.04 16.1875 238.69 16.1047 238.336 16.1047C237.981 16.1047 237.632 16.1875 237.315 16.3464C236.749 16.6762 236.749 17.2024 237.315 17.5244C237.63 17.687 237.981 17.7718 238.336 17.7718C238.691 17.7718 239.041 17.687 239.357 17.5244C239.938 17.2024 239.938 16.6919 239.357 16.3464Z" fill="#263238"/>
<path d="M235.279 18.7023C234.962 18.5434 234.612 18.4607 234.258 18.4607C233.903 18.4607 233.554 18.5434 233.237 18.7023C233.114 18.7454 233.008 18.8256 232.932 18.9318C232.857 19.0381 232.816 19.1651 232.816 19.2953C232.816 19.4255 232.857 19.5525 232.932 19.6588C233.008 19.765 233.114 19.8452 233.237 19.8882C233.554 20.0471 233.903 20.1299 234.258 20.1299C234.612 20.1299 234.962 20.0471 235.279 19.8882C235.402 19.8452 235.508 19.765 235.584 19.6588C235.659 19.5525 235.699 19.4255 235.699 19.2953C235.699 19.1651 235.659 19.0381 235.584 18.9318C235.508 18.8256 235.402 18.7454 235.279 18.7023Z" fill="#EA9924"/>
<path d="M231.194 21.0664C230.878 20.9038 230.528 20.819 230.173 20.819C229.818 20.819 229.468 20.9038 229.152 21.0664C229.028 21.1073 228.92 21.1863 228.844 21.2921C228.768 21.3978 228.727 21.5249 228.727 21.6554C228.727 21.7858 228.768 21.9129 228.844 22.0187C228.92 22.1244 229.028 22.2034 229.152 22.2444C229.469 22.4033 229.819 22.486 230.173 22.486C230.528 22.486 230.877 22.4033 231.194 22.2444C231.318 22.2034 231.426 22.1244 231.502 22.0187C231.578 21.9129 231.619 21.7858 231.619 21.6554C231.619 21.5249 231.578 21.3978 231.502 21.2921C231.426 21.1863 231.318 21.1073 231.194 21.0664Z" fill="#263238"/>
<path d="M229.146 29.2575C228.829 29.0986 228.479 29.0159 228.125 29.0159C227.77 29.0159 227.421 29.0986 227.104 29.2575C226.538 29.5874 226.538 30.1136 227.104 30.4356C227.42 30.5981 227.77 30.6829 228.125 30.6829C228.48 30.6829 228.83 30.5981 229.146 30.4356C229.695 30.1293 229.695 29.6031 229.146 29.2575Z" fill="#EA9924"/>
<path d="M226.069 27.5062C225.753 27.3436 225.403 27.2588 225.048 27.2588C224.693 27.2588 224.343 27.3436 224.027 27.5062C223.903 27.5472 223.795 27.6261 223.719 27.7319C223.643 27.8376 223.602 27.9647 223.602 28.0952C223.602 28.2256 223.643 28.3528 223.719 28.4585C223.795 28.5642 223.903 28.6432 224.027 28.6842C224.343 28.8468 224.693 28.9316 225.048 28.9316C225.403 28.9316 225.753 28.8468 226.069 28.6842C226.193 28.6432 226.301 28.5642 226.377 28.4585C226.453 28.3528 226.494 28.2256 226.494 28.0952C226.494 27.9647 226.453 27.8376 226.377 27.7319C226.301 27.6261 226.193 27.5472 226.069 27.5062Z" fill="#263238"/>
<path d="M227.111 23.4224C226.794 23.2635 226.444 23.1808 226.09 23.1808C225.735 23.1808 225.386 23.2635 225.069 23.4224C224.946 23.4655 224.84 23.5457 224.764 23.6519C224.689 23.7581 224.648 23.8852 224.648 24.0154C224.648 24.1456 224.689 24.2726 224.764 24.3788C224.84 24.4851 224.946 24.5653 225.069 24.6083C225.386 24.7672 225.735 24.85 226.09 24.85C226.444 24.85 226.794 24.7672 227.111 24.6083C227.234 24.5653 227.34 24.4851 227.416 24.3788C227.491 24.2726 227.531 24.1456 227.531 24.0154C227.531 23.8852 227.491 23.7581 227.416 23.6519C227.34 23.5457 227.234 23.4655 227.111 23.4224Z" fill="#263238"/>
<path d="M236.307 14.5794C235.99 14.4167 235.639 14.3319 235.282 14.3319C234.926 14.3319 234.575 14.4167 234.258 14.5794C234.134 14.6203 234.026 14.6993 233.95 14.8051C233.873 14.9108 233.832 15.0379 233.832 15.1684C233.832 15.2988 233.873 15.426 233.95 15.5317C234.026 15.6374 234.134 15.7164 234.258 15.7574C234.575 15.92 234.926 16.0049 235.282 16.0049C235.639 16.0049 235.99 15.92 236.307 15.7574C236.431 15.7164 236.539 15.6374 236.615 15.5317C236.692 15.426 236.733 15.2988 236.733 15.1684C236.733 15.0379 236.692 14.9108 236.615 14.8051C236.539 14.6993 236.431 14.6203 236.307 14.5794Z" fill="#EA9924"/>
<path d="M231.195 18.3568C231.993 18.3568 232.64 17.9841 232.64 17.5244C232.64 17.0646 231.993 16.6919 231.195 16.6919C230.397 16.6919 229.75 17.0646 229.75 17.5244C229.75 17.9841 230.397 18.3568 231.195 18.3568Z" fill="#263238"/>
<path d="M228.134 19.2993C227.818 19.1367 227.468 19.0519 227.113 19.0519C226.758 19.0519 226.408 19.1367 226.092 19.2993C225.527 19.6213 225.527 20.1474 226.092 20.4773C226.409 20.6362 226.759 20.719 227.113 20.719C227.468 20.719 227.817 20.6362 228.134 20.4773C228.699 20.1474 228.699 19.6213 228.134 19.2993Z" fill="#EA9924"/>
<path d="M224.05 21.6553C223.731 21.4963 223.38 21.4136 223.025 21.4136C222.669 21.4136 222.318 21.4963 222 21.6553C221.876 21.6963 221.768 21.7753 221.692 21.881C221.615 21.9868 221.574 22.1139 221.574 22.2444C221.574 22.3748 221.615 22.5019 221.692 22.6077C221.768 22.7134 221.876 22.7924 222 22.8334C222.317 22.996 222.668 23.0808 223.025 23.0808C223.381 23.0808 223.732 22.996 224.05 22.8334C224.173 22.7924 224.281 22.7134 224.358 22.6077C224.434 22.5019 224.475 22.3748 224.475 22.2444C224.475 22.1139 224.434 21.9868 224.358 21.881C224.281 21.7753 224.173 21.6963 224.05 21.6553Z" fill="#263238"/>
<path d="M223.003 25.7392C222.685 25.5765 222.334 25.4917 221.978 25.4917C221.621 25.4917 221.27 25.5765 220.953 25.7392C220.829 25.7801 220.721 25.8591 220.645 25.9649C220.568 26.0706 220.527 26.1977 220.527 26.3282C220.527 26.4586 220.568 26.5857 220.645 26.6915C220.721 26.7972 220.829 26.8762 220.953 26.9172C221.27 27.0798 221.621 27.1646 221.978 27.1646C222.334 27.1646 222.685 27.0798 223.003 26.9172C223.126 26.8762 223.234 26.7972 223.311 26.6915C223.387 26.5857 223.428 26.4586 223.428 26.3282C223.428 26.1977 223.387 26.0706 223.311 25.9649C223.234 25.8591 223.126 25.7801 223.003 25.7392Z" fill="#EA9924"/>
<path d="M219.935 23.9721C219.619 23.8095 219.269 23.7247 218.914 23.7247C218.559 23.7247 218.209 23.8095 217.893 23.9721C217.327 24.2941 217.327 24.8203 217.893 25.1501C218.21 25.3091 218.559 25.3918 218.914 25.3918C219.268 25.3918 219.618 25.3091 219.935 25.1501C220.508 24.8203 220.508 24.2941 219.935 23.9721Z" fill="#263238"/>
<path d="M227.332 34.0168V37.1582C227.651 37.1729 227.968 37.1025 228.251 36.954L251.026 23.8072C251.284 23.6431 251.5 23.4202 251.656 23.1568C251.811 22.8933 251.902 22.5968 251.921 22.2915V21.1606C251.905 20.892 251.833 20.6297 251.71 20.3904C251.587 20.1511 251.416 19.94 251.207 19.7705C251.521 20.0454 251.466 20.4145 251.05 20.658L228.274 33.8126C227.985 33.9652 227.659 34.0358 227.332 34.0168Z" fill="#37474F"/>
<path d="M231.942 9.52169C231.828 9.37856 231.667 9.27982 231.488 9.24253C231.309 9.20525 231.122 9.23176 230.96 9.31749L211.122 20.7365C211.047 20.7757 210.981 20.8313 210.929 20.8993C210.877 20.9673 210.842 21.0459 210.824 21.1294C210.807 21.2129 210.809 21.2992 210.829 21.3821C210.849 21.4649 210.888 21.5422 210.942 21.6083C211.056 21.7514 211.216 21.8501 211.396 21.8874C211.575 21.9247 211.762 21.8982 211.923 21.8125L231.754 10.4091C231.831 10.37 231.899 10.3139 231.953 10.2449C232.006 10.1759 232.043 10.0959 232.061 10.0107C232.079 9.92547 232.078 9.83729 232.057 9.75265C232.037 9.66801 231.997 9.58907 231.942 9.52169Z" fill="#263238"/>
<path d="M231.942 9.52169C231.827 9.37856 231.667 9.27982 231.488 9.24253C231.308 9.20525 231.122 9.23176 230.96 9.31749L216.203 17.7993L217.028 18.8988L231.753 10.4091C231.831 10.37 231.899 10.3139 231.952 10.2449C232.005 10.1759 232.042 10.0959 232.06 10.0107C232.079 9.92547 232.077 9.83729 232.057 9.75265C232.036 9.66801 231.997 9.58907 231.942 9.52169Z" fill="#EA9924"/>
<path d="M230.301 7.32262C230.187 7.18136 230.028 7.08384 229.851 7.04662C229.673 7.0094 229.488 7.03477 229.327 7.11843L209.513 18.5296C209.438 18.5707 209.373 18.6275 209.322 18.6963C209.271 18.765 209.236 18.8439 209.219 18.9276C209.202 19.0113 209.203 19.0977 209.223 19.1809C209.242 19.264 209.28 19.3419 209.332 19.4092C209.446 19.5523 209.607 19.6511 209.786 19.6884C209.966 19.7256 210.152 19.6991 210.314 19.6134L230.128 8.1708C230.199 8.12953 230.26 8.07387 230.307 8.00744C230.355 7.94102 230.388 7.86532 230.404 7.78529C230.421 7.70526 230.42 7.6227 230.402 7.54297C230.384 7.46325 230.35 7.38817 230.301 7.32262Z" fill="#263238"/>
<path d="M230.3 7.32262C230.187 7.18136 230.027 7.08384 229.85 7.04662C229.672 7.0094 229.487 7.03477 229.327 7.11843L224.395 9.9614L225.219 11.0373L230.143 8.19436C230.216 8.15205 230.279 8.09441 230.327 8.02542C230.376 7.95643 230.409 7.87774 230.423 7.79482C230.438 7.71189 230.435 7.62671 230.414 7.54517C230.393 7.46364 230.354 7.3877 230.3 7.32262Z" fill="#EA9924"/>
<path d="M228.661 5.12361C228.547 4.98049 228.386 4.88175 228.207 4.84446C228.027 4.80718 227.841 4.83369 227.679 4.91942L207.841 16.3306C207.766 16.3717 207.701 16.4285 207.65 16.4973C207.6 16.566 207.564 16.6449 207.547 16.7286C207.53 16.8123 207.531 16.8987 207.551 16.9819C207.57 17.065 207.608 17.1429 207.66 17.2102C207.775 17.3533 207.935 17.4521 208.114 17.4893C208.294 17.5266 208.48 17.5001 208.642 17.4144L228.457 5.97179C228.53 5.93327 228.593 5.87964 228.644 5.81447C228.695 5.7493 228.731 5.67409 228.75 5.59385C228.77 5.5136 228.772 5.43016 228.756 5.34908C228.741 5.268 228.708 5.19114 228.661 5.12361Z" fill="#263238"/>
<path d="M228.661 5.12361C228.546 4.98049 228.386 4.88175 228.207 4.84446C228.027 4.80718 227.841 4.83369 227.679 4.91942L217.367 10.8331L218.192 11.9326L228.511 5.99536C228.584 5.95238 228.646 5.89422 228.693 5.82492C228.741 5.75561 228.773 5.67679 228.787 5.59391C228.801 5.51104 228.797 5.42607 228.775 5.34487C228.754 5.26367 228.714 5.18819 228.661 5.12361Z" fill="#EA9924"/>
<path d="M227.024 2.92464C226.91 2.78151 226.749 2.68277 226.57 2.64549C226.391 2.6082 226.204 2.63472 226.042 2.72045L206.204 14.1316C206.129 14.1727 206.064 14.2296 206.014 14.2983C205.963 14.367 205.928 14.446 205.91 14.5296C205.893 14.6133 205.895 14.6997 205.914 14.7829C205.934 14.866 205.971 14.944 206.024 15.0112C206.138 15.1544 206.298 15.2531 206.478 15.2904C206.657 15.3277 206.844 15.3012 207.005 15.2154L226.82 3.77282C226.893 3.7343 226.957 3.68067 227.007 3.6155C227.058 3.55033 227.094 3.47512 227.114 3.39487C227.133 3.31463 227.135 3.23119 227.119 3.15011C227.104 3.06903 227.071 2.99217 227.024 2.92464Z" fill="#263238"/>
<path d="M227.025 2.92464C226.911 2.78151 226.75 2.68277 226.571 2.64549C226.392 2.6082 226.205 2.63472 226.043 2.72045L208.027 13.0793L208.852 14.1788L226.837 3.79638C226.912 3.75687 226.978 3.70129 227.029 3.63359C227.081 3.56589 227.117 3.48771 227.135 3.40457C227.153 3.32144 227.152 3.23536 227.133 3.15244C227.114 3.06951 227.077 2.99175 227.025 2.92464Z" fill="#EA9924"/>
<path d="M188.573 149.526C188.633 149.506 188.698 149.5 188.76 149.509C188.823 149.519 188.883 149.544 188.934 149.581C189.094 149.687 189.227 149.829 189.323 149.995C189.418 150.162 189.473 150.348 189.484 150.54C189.489 150.6 189.48 150.661 189.458 150.718C189.436 150.775 189.402 150.827 189.358 150.869L189.296 150.909L165.688 164.535L164.117 163.639L188.573 149.526Z" fill="#455A64"/>
<path d="M191.761 151.372C191.82 151.349 191.884 151.342 191.947 151.35C192.01 151.358 192.07 151.382 192.122 151.419C192.283 151.524 192.418 151.666 192.514 151.832C192.611 151.998 192.668 152.185 192.679 152.377C192.685 152.44 192.675 152.503 192.652 152.562C192.629 152.62 192.593 152.673 192.546 152.715L192.483 152.754L168.875 166.38L167.305 165.485L191.761 151.372Z" fill="#455A64"/>
<path d="M194.952 153.21C195.012 153.189 195.076 153.183 195.139 153.193C195.202 153.202 195.262 153.227 195.313 153.265C195.473 153.369 195.607 153.509 195.702 153.674C195.798 153.839 195.853 154.025 195.863 154.215C195.868 154.277 195.86 154.34 195.838 154.398C195.816 154.456 195.782 154.509 195.737 154.553L195.667 154.592L172.067 168.218L170.496 167.323L194.952 153.21Z" fill="#455A64"/>
<path d="M198.139 155.048C198.201 155.029 198.266 155.024 198.33 155.033C198.394 155.043 198.455 155.066 198.509 155.103C198.668 155.209 198.801 155.35 198.897 155.517C198.992 155.683 199.047 155.869 199.058 156.061C199.064 156.122 199.056 156.183 199.034 156.24C199.012 156.297 198.977 156.349 198.933 156.391L198.87 156.43L175.262 170.056L173.691 169.16L198.139 155.048Z" fill="#455A64"/>
<path d="M36.7305 232.318C36.8093 233.4 37.1419 234.448 37.7013 235.377C38.2608 236.307 39.0313 237.091 39.9504 237.667L130.266 289.791C131.265 290.298 132.37 290.562 133.49 290.562C134.61 290.562 135.715 290.298 136.714 289.791L260.234 218.473C261.207 217.958 262.021 217.188 262.589 216.244C263.157 215.301 263.458 214.221 263.458 213.12C263.458 212.02 263.157 210.94 262.589 209.997C262.021 209.053 261.207 208.283 260.234 207.768L169.95 155.644C168.951 155.141 167.848 154.879 166.73 154.879C165.612 154.879 164.509 155.141 163.51 155.644L39.9818 226.962C39.0558 227.535 38.2786 228.319 37.7135 229.25C37.1484 230.181 36.8116 231.233 36.7305 232.318Z" fill="#444854"/>
<path opacity="0.7" d="M133.487 283.586V290.56C132.362 290.577 131.251 290.306 130.26 289.775L39.9834 237.667C39.0366 237.171 38.2385 236.432 37.6709 235.527C37.1033 234.621 36.7865 233.581 36.753 232.513C36.7194 231.445 36.9703 230.387 37.48 229.447C37.9896 228.508 38.7397 227.721 39.6535 227.167C38.2085 228.203 38.3184 229.719 39.9834 230.677L130.299 282.801C131.278 283.33 132.375 283.6 133.487 283.586Z" fill="black"/>
<path d="M33.7385 227.08C32.8361 226.468 32.0916 225.65 31.566 224.695C31.0405 223.739 30.7488 222.673 30.7148 221.583V113.879C30.776 112.762 31.0994 111.675 31.6588 110.707C32.2182 109.738 32.9979 108.915 33.9348 108.303L157.463 36.9854C158.395 36.4012 159.469 36.0819 160.568 36.0618C161.668 36.0417 162.753 36.3216 163.706 36.8715C164.658 37.4213 165.443 38.2204 165.976 39.1827C166.509 40.1451 166.77 41.2344 166.73 42.3337V150.068C166.67 151.186 166.347 152.273 165.788 153.242C165.228 154.211 164.448 155.034 163.51 155.644L39.982 226.962C39.024 227.472 37.9592 227.748 36.8743 227.769C35.7894 227.789 34.715 227.553 33.7385 227.08Z" fill="#444854"/>
<path opacity="0.7" d="M39.5972 227.166C38.6741 227.582 37.6712 227.79 36.6591 227.776C35.647 227.763 34.6501 227.528 33.7385 227.088C32.8365 226.475 32.0924 225.658 31.5669 224.702C31.0414 223.747 30.7494 222.68 30.7148 221.59V113.879C30.7585 112.769 31.0827 111.689 31.6573 110.738L37.7045 114.225C37.1275 115.175 36.8006 116.256 36.7542 117.366V225.109C36.7306 227.009 38.0029 227.865 39.5972 227.166Z" fill="black"/>
<path opacity="0.5" d="M36.7305 117.374V225.109C36.7305 227.159 38.1677 227.991 39.9504 226.962L163.479 155.644C164.416 155.034 165.197 154.211 165.756 153.242C166.316 152.273 166.639 151.186 166.699 150.068V42.3336C166.699 40.276 165.253 39.4435 163.479 40.4724L39.9818 111.79C39.0377 112.398 38.2509 113.221 37.6858 114.192C37.1207 115.162 36.7933 116.253 36.7305 117.374Z" fill="black"/>
<path d="M39.9816 230.685L130.297 282.809C131.296 283.316 132.401 283.58 133.521 283.58C134.641 283.58 135.746 283.316 136.745 282.809L260.226 211.459C262.009 210.431 262.009 208.766 260.226 207.737L169.95 155.644C168.951 155.141 167.848 154.879 166.73 154.879C165.611 154.879 164.508 155.141 163.51 155.644L39.9816 226.962C38.1988 227.991 38.1988 229.656 39.9816 230.685Z" fill="#444854"/>
<path opacity="0.3" d="M39.9816 230.685L130.297 282.809C131.296 283.316 132.401 283.58 133.521 283.58C134.641 283.58 135.746 283.316 136.745 282.809L260.226 211.459C262.009 210.431 262.009 208.766 260.226 207.737L169.95 155.644C168.951 155.141 167.848 154.879 166.73 154.879C165.611 154.879 164.508 155.141 163.51 155.644L39.9816 226.962C38.1988 227.991 38.1988 229.656 39.9816 230.685Z" fill="black"/>
<path d="M41.7172 117.767L160.816 49.0249C161.884 48.4123 162.748 48.9149 162.748 50.1479V143.409C162.711 144.079 162.517 144.731 162.182 145.312C161.846 145.894 161.378 146.388 160.816 146.754L41.7172 215.496C40.6491 216.109 39.7773 215.614 39.7773 214.381V121.144C39.8118 120.468 40.0055 119.81 40.3426 119.223C40.6797 118.636 41.1507 118.137 41.7172 117.767Z" fill="#FAFAFA"/>
<path d="M120.293 103.214L119.507 124.749C119.507 133.615 113.939 149.629 102.481 161.464C101.659 162.25 100.619 162.77 99.4967 162.956C98.9155 163.011 98.3579 163.035 97.8082 163.035C95.3574 163.071 92.9406 162.459 90.8028 161.26L90.7321 161.22L90.5986 161.134C85.5017 158.055 82.9886 151.773 82.9886 145.851L82.2032 125.267C82.1982 124.711 82.4061 124.174 82.7844 123.767C83.0656 123.433 83.4168 123.165 83.8132 122.982C89.0593 120.626 96.9207 111.366 100.612 102.201C100.879 101.549 101.272 101.337 101.711 101.541L101.774 101.581C101.924 101.665 102.06 101.774 102.175 101.903L102.245 101.989C106.172 106.544 113.861 106.536 118.997 102.61C119.39 102.311 119.712 102.217 119.932 102.311C120.199 102.468 120.309 102.751 120.293 103.214Z" fill="#EA9924"/>
<path opacity="0.2" d="M101.264 101.51C101.115 101.572 100.983 101.666 100.876 101.786C100.768 101.905 100.689 102.047 100.643 102.201C96.952 111.366 89.0906 120.657 83.8444 122.982C83.448 123.165 83.0968 123.433 82.8156 123.767C82.4374 124.174 82.2294 124.711 82.2345 125.267L83.0198 145.851C83.0198 151.796 85.5329 158.079 90.6534 161.134L90.787 161.22L90.8576 161.26C92.9954 162.459 95.4122 163.071 97.863 163.035C98.4127 163.035 98.9703 163.035 99.5515 162.956C100.165 162.87 100.757 162.668 101.295 162.359L101.264 101.51Z" fill="black"/>
<path opacity="0.3" d="M50.4586 227.897L165.12 161.699C165.619 161.447 166.171 161.316 166.73 161.316C167.289 161.316 167.841 161.447 168.34 161.699L174.207 165.084C174.402 165.15 174.571 165.275 174.691 165.442C174.811 165.609 174.876 165.809 174.876 166.015C174.876 166.221 174.811 166.421 174.691 166.588C174.571 166.755 174.402 166.88 174.207 166.946L59.5059 233.135C59.0066 233.387 58.4552 233.518 57.8959 233.518C57.3367 233.518 56.7852 233.387 56.2859 233.135L50.4351 229.758C50.2409 229.69 50.0729 229.563 49.9549 229.395C49.8369 229.226 49.7748 229.025 49.7774 228.819C49.78 228.613 49.8472 228.414 49.9694 228.248C50.0916 228.083 50.2628 227.96 50.4586 227.897Z" fill="black"/>
<path opacity="0.3" d="M65.5761 236.591L180.238 170.393C180.736 170.138 181.288 170.004 181.848 170.004C182.408 170.004 182.959 170.138 183.458 170.393L219.529 191.221C219.724 191.286 219.893 191.411 220.013 191.578C220.134 191.745 220.198 191.946 220.198 192.151C220.198 192.357 220.134 192.558 220.013 192.725C219.893 192.892 219.724 193.017 219.529 193.082L105.001 259.217C104.5 259.468 103.947 259.599 103.387 259.599C102.827 259.599 102.274 259.468 101.773 259.217L65.5761 238.476C65.3675 238.421 65.1828 238.299 65.051 238.129C64.9192 237.958 64.8477 237.749 64.8477 237.533C64.8477 237.318 64.9192 237.108 65.051 236.938C65.1828 236.767 65.3675 236.645 65.5761 236.591Z" fill="black"/>
<path d="M168.357 200.205L171.946 198.132C172.095 198.046 172.087 197.896 171.946 197.802L167.799 195.407C167.71 195.363 167.612 195.339 167.513 195.339C167.413 195.339 167.315 195.363 167.226 195.407L163.637 197.48C163.48 197.574 163.488 197.716 163.637 197.81L167.791 200.213C167.88 200.255 167.977 200.276 168.075 200.275C168.173 200.273 168.269 200.25 168.357 200.205ZM161.289 191.975L157.676 194.04C157.519 194.135 157.527 194.276 157.676 194.378L161.831 196.773C161.92 196.818 162.018 196.841 162.117 196.841C162.217 196.841 162.315 196.818 162.404 196.773L165.993 194.7C166.142 194.614 166.134 194.464 165.993 194.37L161.846 191.975C161.758 191.929 161.659 191.905 161.56 191.905C161.46 191.905 161.362 191.929 161.273 191.975H161.289ZM149.689 198.666L143.61 202.177C143.461 202.263 143.469 202.412 143.61 202.506L147.765 204.862C147.853 204.907 147.949 204.93 148.048 204.93C148.146 204.93 148.243 204.907 148.33 204.862L154.409 201.352C154.558 201.266 154.55 201.116 154.409 201.022L150.262 198.666C150.171 198.619 150.07 198.595 149.968 198.595C149.865 198.595 149.764 198.619 149.673 198.666H149.689ZM156.027 194.967L152.43 197.04C152.281 197.127 152.289 197.276 152.43 197.37L156.584 199.726C156.674 199.771 156.772 199.794 156.871 199.794C156.971 199.794 157.069 199.771 157.158 199.726L160.747 197.653C160.896 197.567 160.888 197.417 160.747 197.323L156.6 194.928C156.508 194.889 156.408 194.873 156.309 194.88C156.209 194.887 156.113 194.917 156.027 194.967ZM141.969 203.135L138.349 205.177C138.199 205.271 138.207 205.42 138.349 205.514L142.495 207.91C142.584 207.954 142.682 207.977 142.782 207.977C142.881 207.977 142.979 207.954 143.069 207.91L146.658 205.836C146.815 205.75 146.807 205.601 146.658 205.506L142.503 203.15C142.421 203.108 142.33 203.085 142.238 203.082C142.145 203.079 142.054 203.097 141.969 203.135ZM136.723 206.158L133.134 208.232C132.985 208.318 132.992 208.467 133.134 208.561L137.28 210.957C137.369 211.003 137.467 211.027 137.567 211.027C137.667 211.027 137.765 211.003 137.854 210.957L141.443 208.883C141.6 208.797 141.592 208.648 141.443 208.554L137.257 206.174C137.17 206.129 137.074 206.103 136.976 206.101C136.878 206.098 136.781 206.118 136.691 206.158H136.723ZM153.05 215.905L156.647 213.831C156.797 213.745 156.789 213.596 156.647 213.501L152.493 211.106C152.404 211.06 152.306 211.036 152.206 211.036C152.106 211.036 152.008 211.06 151.919 211.106L148.252 213.171C148.103 213.258 148.111 213.407 148.252 213.501L152.399 215.857C152.49 215.917 152.594 215.953 152.703 215.961C152.811 215.969 152.92 215.95 153.019 215.905H153.05ZM147.804 218.936L151.393 216.863C151.55 216.776 151.542 216.627 151.393 216.533L147.239 214.177C147.15 214.132 147.052 214.109 146.952 214.109C146.853 214.109 146.755 214.132 146.665 214.177L143.029 216.172C142.88 216.258 142.888 216.407 143.029 216.501L147.176 218.905C147.265 218.958 147.367 218.988 147.471 218.994C147.574 218.999 147.678 218.979 147.773 218.936H147.804ZM142.558 221.967L146.147 219.894C146.304 219.808 146.296 219.659 146.147 219.564L141.969 217.169C141.881 217.123 141.782 217.099 141.682 217.099C141.583 217.099 141.484 217.123 141.396 217.169L137.807 219.242C137.657 219.329 137.665 219.478 137.807 219.572L141.953 221.967C142.042 222.012 142.141 222.035 142.24 222.035C142.339 222.035 142.438 222.012 142.527 221.967H142.558ZM137.257 224.991L140.846 222.926C141.003 222.831 140.987 222.682 140.846 222.588L136.691 220.193C136.602 220.148 136.504 220.125 136.405 220.125C136.305 220.125 136.207 220.148 136.118 220.193L132.545 222.258C132.396 222.344 132.403 222.494 132.545 222.588L136.691 224.983C136.778 225.029 136.875 225.054 136.973 225.055C137.072 225.057 137.169 225.035 137.257 224.991ZM163.087 203.237L166.676 201.163C166.825 201.077 166.818 200.928 166.676 200.834L162.53 198.438C162.441 198.394 162.342 198.371 162.243 198.371C162.143 198.371 162.045 198.394 161.956 198.438L158.367 200.464C158.21 200.551 158.218 200.7 158.367 200.794L162.522 203.19C162.609 203.244 162.708 203.277 162.811 203.285C162.913 203.293 163.016 203.277 163.111 203.237H163.087ZM158.242 212.881L166.252 208.255C166.409 208.169 166.394 208.02 166.252 207.925L156.168 202.106C156.079 202.062 155.981 202.039 155.882 202.039C155.782 202.039 155.684 202.062 155.595 202.106L151.456 204.501C151.299 204.588 151.307 204.737 151.456 204.831L156.797 207.91C156.961 208.004 156.969 208.153 156.797 208.239L153.482 210.156C153.333 210.242 153.341 210.391 153.482 210.486L157.637 212.881C157.732 212.936 157.841 212.965 157.951 212.965C158.061 212.965 158.17 212.936 158.265 212.881H158.242ZM131.422 209.19L127.833 211.263C127.683 211.349 127.691 211.499 127.833 211.593L131.979 213.988C132.068 214.033 132.167 214.056 132.266 214.056C132.365 214.056 132.464 214.033 132.553 213.988L136.142 211.915C136.299 211.829 136.291 211.679 136.142 211.585L131.987 209.19C131.903 209.149 131.81 209.127 131.716 209.127C131.622 209.127 131.53 209.149 131.445 209.19H131.422ZM126.199 212.245L122.61 214.318C122.461 214.405 122.469 214.554 122.61 214.648L126.757 217.043C126.845 217.089 126.944 217.113 127.043 217.113C127.143 217.113 127.242 217.089 127.33 217.043L130.919 214.978C131.076 214.884 131.06 214.734 130.919 214.64L126.765 212.284C126.68 212.235 126.584 212.206 126.486 212.199C126.388 212.192 126.29 212.208 126.199 212.245ZM99.9841 246.211C100.073 246.257 100.171 246.281 100.271 246.281C100.371 246.281 100.469 246.257 100.557 246.211L104.146 244.146C104.296 244.052 104.288 243.902 104.146 243.808L99.9919 241.413C99.9044 241.368 99.8075 241.345 99.7092 241.345C99.6109 241.345 99.514 241.368 99.4265 241.413L95.8296 243.486C95.6804 243.573 95.6882 243.722 95.8296 243.816L99.9841 246.211ZM84.2221 236.481L80.633 238.546C80.4838 238.64 80.4916 238.782 80.633 238.884L84.7796 241.279C84.8687 241.324 84.9668 241.347 85.0663 241.347C85.1658 241.347 85.2639 241.324 85.353 241.279L88.942 239.206C89.0991 239.12 89.0912 238.97 88.942 238.876L84.7875 236.481C84.7019 236.432 84.6059 236.405 84.5076 236.401C84.4093 236.397 84.3114 236.416 84.2221 236.457V236.481ZM92.6724 243.588C92.7615 243.632 92.8596 243.656 92.9591 243.656C93.0586 243.656 93.1567 243.632 93.2458 243.588L96.8348 241.515C96.984 241.428 96.9762 241.279 96.8348 241.185L92.6882 238.79C92.5991 238.745 92.501 238.722 92.4015 238.722C92.302 238.722 92.2039 238.745 92.1149 238.79L88.5258 240.863C88.3687 240.957 88.3766 241.099 88.5258 241.193L92.6724 243.588ZM109.243 248.049L112.832 245.984C112.99 245.889 112.982 245.74 112.832 245.646L108.678 243.251C108.589 243.206 108.491 243.183 108.391 243.183C108.292 243.183 108.194 243.206 108.105 243.251L104.516 245.324C104.366 245.41 104.374 245.559 104.516 245.654L108.662 248.049C108.754 248.093 108.854 248.114 108.956 248.11C109.057 248.105 109.156 248.077 109.243 248.025V248.049ZM103.424 251.073C103.513 251.117 103.611 251.14 103.711 251.14C103.81 251.14 103.908 251.117 103.997 251.073L107.586 248.999C107.743 248.913 107.728 248.764 107.586 248.669L103.432 246.274C103.343 246.23 103.245 246.207 103.145 246.207C103.046 246.207 102.948 246.23 102.858 246.274L99.2694 248.347C99.1202 248.442 99.1281 248.583 99.2694 248.677L103.424 251.073ZM89.4682 233.449L85.8792 235.523C85.7299 235.609 85.7378 235.758 85.8792 235.852L90.0337 238.248C90.1208 238.294 90.2178 238.318 90.3164 238.318C90.4149 238.318 90.512 238.294 90.5991 238.248L94.196 236.182C94.3453 236.088 94.3374 235.947 94.196 235.845L90.0415 233.489C89.9555 233.438 89.859 233.408 89.7595 233.401C89.66 233.395 89.5603 233.411 89.4682 233.449ZM115.707 218.3L112.126 220.35C111.969 220.436 111.984 220.585 112.126 220.679L116.28 223.075C116.369 223.119 116.467 223.142 116.567 223.142C116.666 223.142 116.764 223.119 116.853 223.075L120.443 221.001C120.592 220.915 120.584 220.766 120.443 220.672L116.296 218.276C116.205 218.229 116.104 218.205 116.001 218.205C115.899 218.205 115.798 218.229 115.707 218.276V218.3ZM94.7222 230.418L91.1253 232.491C90.9761 232.578 90.9839 232.727 91.1253 232.821L95.2798 235.216C95.3689 235.261 95.467 235.284 95.5665 235.284C95.6659 235.284 95.7641 235.261 95.8531 235.216L99.4422 233.143C99.5914 233.057 99.5836 232.907 99.4422 232.813L95.2877 230.418C95.2018 230.37 95.106 230.343 95.0078 230.339C94.9095 230.335 94.8117 230.354 94.7222 230.394V230.418ZM120.953 215.268L117.364 217.342C117.207 217.436 117.223 217.577 117.364 217.672L121.518 220.075C121.608 220.119 121.706 220.142 121.805 220.142C121.905 220.142 122.003 220.119 122.092 220.075L125.681 218.001C125.838 217.915 125.822 217.766 125.681 217.672L121.55 215.261C121.459 215.21 121.357 215.182 121.253 215.179C121.149 215.177 121.046 215.199 120.953 215.245V215.268ZM110.461 221.331L106.872 223.405C106.715 223.491 106.722 223.64 106.872 223.734L111.026 226.091C111.115 226.135 111.213 226.158 111.313 226.158C111.412 226.158 111.51 226.135 111.599 226.091L115.189 224.017C115.338 223.923 115.33 223.782 115.189 223.687L111.042 221.284C110.95 221.242 110.849 221.223 110.748 221.227C110.647 221.231 110.549 221.259 110.461 221.308V221.331ZM105.215 224.363L101.625 226.381C101.468 226.468 101.476 226.617 101.625 226.711L105.78 229.106C105.869 229.152 105.967 229.177 106.067 229.177C106.166 229.177 106.265 229.152 106.353 229.106L109.942 227.033C110.092 226.947 110.084 226.797 109.942 226.703L105.796 224.347C105.707 224.298 105.607 224.272 105.506 224.271C105.405 224.27 105.305 224.293 105.215 224.339V224.363ZM99.9684 227.386L96.4186 229.436C96.2615 229.523 96.2694 229.672 96.4186 229.766L100.573 232.169C100.662 232.213 100.76 232.237 100.86 232.237C100.959 232.237 101.057 232.213 101.146 232.169L104.735 230.096C104.885 230.009 104.877 229.86 104.735 229.766L100.589 227.371C100.494 227.317 100.388 227.288 100.28 227.287C100.171 227.286 100.064 227.312 99.9684 227.363V227.386ZM126.788 231.078L130.377 229.004C130.526 228.918 130.519 228.769 130.377 228.674L126.231 226.279C126.142 226.235 126.043 226.212 125.944 226.212C125.844 226.212 125.746 226.235 125.657 226.279L122.068 228.352C121.911 228.439 121.927 228.588 122.068 228.682L126.223 231.078C126.31 231.123 126.406 231.148 126.504 231.151C126.602 231.154 126.699 231.134 126.788 231.093V231.078ZM172.873 185.299L169.276 187.373C169.127 187.459 169.134 187.608 169.276 187.703L173.43 190.059C173.519 190.103 173.617 190.126 173.717 190.126C173.816 190.126 173.915 190.103 174.004 190.059L177.593 187.985C177.742 187.891 177.734 187.75 177.593 187.655L173.438 185.252C173.349 185.211 173.251 185.192 173.153 185.196C173.054 185.2 172.958 185.227 172.873 185.276V185.299ZM166.519 188.967L162.93 191.04C162.773 191.127 162.781 191.276 162.93 191.37L167.085 193.765C167.173 193.812 167.271 193.836 167.371 193.836C167.471 193.836 167.569 193.812 167.658 193.765L171.247 191.7C171.396 191.606 171.388 191.456 171.247 191.362L167.1 188.951C167.011 188.904 166.912 188.879 166.811 188.878C166.71 188.877 166.61 188.899 166.519 188.943V188.967ZM178.095 182.244L174.506 184.318C174.349 184.404 174.357 184.553 174.506 184.647L178.661 187.043C178.75 187.087 178.848 187.11 178.947 187.11C179.047 187.11 179.145 187.087 179.234 187.043L182.823 184.969C182.972 184.883 182.964 184.734 182.823 184.64L178.676 182.244C178.586 182.199 178.487 182.175 178.386 182.175C178.285 182.175 178.185 182.199 178.095 182.244ZM150.938 210.25L154.527 208.177C154.676 208.09 154.668 207.941 154.527 207.847L150.38 205.491C150.291 205.446 150.193 205.423 150.094 205.423C149.994 205.423 149.896 205.446 149.807 205.491L146.21 207.533C146.061 207.627 146.069 207.768 146.21 207.863L150.364 210.266C150.458 210.311 150.561 210.334 150.665 210.331C150.769 210.328 150.871 210.301 150.961 210.25H150.938ZM183.923 179.229C183.834 179.184 183.735 179.161 183.636 179.161C183.536 179.161 183.438 179.184 183.349 179.229L179.76 181.302C179.603 181.396 179.611 181.537 179.76 181.632L183.915 184.035C184.004 184.079 184.102 184.102 184.201 184.102C184.301 184.102 184.399 184.079 184.488 184.035L188.077 181.962C188.226 181.875 188.218 181.726 188.077 181.632L183.923 179.229ZM132.019 228.023L135.608 225.949C135.765 225.863 135.749 225.714 135.608 225.619L131.453 223.263C131.364 223.219 131.266 223.196 131.167 223.196C131.067 223.196 130.969 223.219 130.88 223.263L127.291 225.337C127.134 225.431 127.149 225.572 127.291 225.666L131.437 228.07C131.533 228.111 131.638 228.128 131.742 228.12C131.846 228.111 131.946 228.078 132.034 228.023H132.019ZM196.363 190.875L199.952 188.802C200.101 188.716 200.093 188.566 199.952 188.472L195.805 186.077C195.716 186.033 195.618 186.01 195.518 186.01C195.419 186.01 195.321 186.033 195.232 186.077L191.643 188.15C191.486 188.237 191.501 188.386 191.643 188.48L195.797 190.836C195.883 190.89 195.981 190.921 196.083 190.928C196.184 190.935 196.286 190.917 196.378 190.875H196.363ZM185.187 190.483L188.776 188.409C188.925 188.323 188.917 188.174 188.776 188.079L184.629 185.684C184.54 185.64 184.442 185.617 184.343 185.617C184.243 185.617 184.145 185.64 184.056 185.684L180.451 187.742C180.294 187.828 180.302 187.977 180.451 188.072L184.606 190.428C184.693 190.485 184.794 190.519 184.897 190.529C185.001 190.538 185.106 190.523 185.203 190.483H185.187ZM189.852 182.629C189.763 182.585 189.665 182.562 189.565 182.562C189.466 182.562 189.368 182.585 189.279 182.629L185.69 184.702C185.533 184.797 185.54 184.938 185.69 185.032L189.844 187.435C189.933 187.48 190.031 187.503 190.131 187.503C190.23 187.503 190.328 187.48 190.417 187.435L194.007 185.362C194.156 185.276 194.148 185.127 194.007 185.032L189.852 182.629ZM190.951 181.993L201.035 187.812C201.124 187.859 201.222 187.883 201.322 187.883C201.422 187.883 201.52 187.859 201.609 187.812L205.198 185.739C205.355 185.653 205.339 185.504 205.198 185.409L195.114 179.59C195.025 179.544 194.927 179.52 194.827 179.52C194.727 179.52 194.629 179.544 194.541 179.59L190.951 181.663C190.794 181.773 190.81 181.922 190.967 182.017L190.951 181.993ZM178.802 188.684L175.213 190.758C175.056 190.844 175.064 190.993 175.213 191.087L179.368 193.483C179.456 193.529 179.554 193.553 179.654 193.553C179.754 193.553 179.852 193.529 179.941 193.483L183.53 191.417C183.679 191.323 183.671 191.182 183.53 191.08L179.375 188.684C179.286 188.64 179.188 188.617 179.089 188.617C178.989 188.617 178.891 188.64 178.802 188.684ZM139.307 211.459L135.686 213.572C135.537 213.658 135.545 213.808 135.686 213.902L139.833 216.297C139.922 216.341 140.02 216.365 140.12 216.365C140.219 216.365 140.317 216.341 140.406 216.297L143.995 214.224C144.152 214.13 144.144 213.988 143.995 213.894L139.841 211.491C139.756 211.454 139.665 211.435 139.573 211.437C139.481 211.438 139.39 211.459 139.307 211.499V211.459ZM190.559 193.852C190.648 193.896 190.746 193.919 190.845 193.919C190.945 193.919 191.043 193.896 191.132 193.852L194.721 191.778C194.87 191.692 194.863 191.543 194.721 191.449L190.575 189.093C190.486 189.046 190.388 189.022 190.288 189.022C190.188 189.022 190.09 189.046 190.001 189.093L186.412 191.166C186.255 191.252 186.263 191.402 186.412 191.496L190.559 193.852ZM144.553 208.428L140.964 210.501C140.815 210.588 140.822 210.737 140.964 210.831L145.11 213.266C145.198 213.31 145.295 213.333 145.393 213.333C145.491 213.333 145.588 213.31 145.676 213.266L149.273 211.192C149.422 211.106 149.414 210.957 149.273 210.863L145.11 208.483C145.025 208.439 144.93 208.414 144.833 208.412C144.737 208.409 144.641 208.428 144.553 208.467V208.428ZM105.23 243.117C105.319 243.161 105.417 243.184 105.517 243.184C105.616 243.184 105.714 243.161 105.804 243.117L109.393 241.044C109.542 240.957 109.534 240.808 109.393 240.714L105.246 238.319C105.157 238.274 105.059 238.251 104.959 238.251C104.86 238.251 104.762 238.274 104.673 238.319L101.084 240.392C100.927 240.478 100.934 240.627 101.084 240.722L105.23 243.117ZM97.3374 235.695L93.7484 237.769C93.5913 237.855 93.5992 238.004 93.7484 238.099L97.9029 240.455C97.9914 240.501 98.0898 240.525 98.1896 240.525C98.2894 240.525 98.3877 240.501 98.4762 240.455L102.065 238.381C102.214 238.295 102.207 238.146 102.065 238.051L97.9186 235.656C97.8228 235.62 97.7196 235.609 97.6182 235.622C97.5168 235.636 97.4203 235.675 97.3374 235.735V235.695ZM111.05 240.101L114.639 238.028C114.788 237.942 114.78 237.792 114.639 237.698L110.492 235.342C110.403 235.298 110.305 235.275 110.205 235.275C110.106 235.275 110.008 235.298 109.919 235.342L106.306 237.376C106.149 237.462 106.157 237.612 106.306 237.706L110.461 240.109C110.549 240.161 110.649 240.191 110.751 240.196C110.854 240.202 110.956 240.183 111.05 240.141V240.101ZM116.296 237.07L119.885 234.996C120.034 234.91 120.026 234.761 119.885 234.667L115.738 232.271C115.65 232.225 115.551 232.201 115.452 232.201C115.352 232.201 115.253 232.225 115.165 232.271L111.576 234.345C111.419 234.431 111.427 234.58 111.576 234.674L115.73 237.031C115.811 237.088 115.905 237.125 116.004 237.139C116.102 237.152 116.202 237.142 116.296 237.109V237.07ZM121.542 234.046L125.131 231.973C125.28 231.879 125.272 231.737 125.131 231.643L120.984 229.24C120.895 229.196 120.797 229.173 120.698 229.173C120.598 229.173 120.5 229.196 120.411 229.24L116.838 231.345C116.681 231.431 116.689 231.58 116.838 231.674L120.992 234.07C121.078 234.114 121.173 234.138 121.269 234.141C121.366 234.144 121.462 234.125 121.55 234.085L121.542 234.046ZM102.584 232.664L98.9945 234.737C98.8375 234.824 98.8453 234.973 98.9945 235.067L103.149 237.462C103.238 237.507 103.336 237.53 103.436 237.53C103.535 237.53 103.633 237.507 103.722 237.462L107.311 235.389C107.461 235.295 107.453 235.154 107.311 235.059L103.165 232.656C103.071 232.618 102.97 232.602 102.869 232.61C102.768 232.618 102.67 232.65 102.584 232.703V232.664ZM107.83 229.633L104.272 231.745C104.115 231.831 104.123 231.981 104.272 232.075L108.427 234.47C108.516 234.515 108.614 234.538 108.713 234.538C108.813 234.538 108.911 234.515 109 234.47L112.589 232.397C112.738 232.311 112.73 232.161 112.589 232.067L108.442 229.672C108.348 229.621 108.243 229.594 108.136 229.594C108.029 229.594 107.924 229.621 107.83 229.672V229.633ZM128.814 217.514L125.225 219.588C125.076 219.674 125.084 219.823 125.225 219.918L129.372 222.313C129.461 222.359 129.559 222.383 129.659 222.383C129.758 222.383 129.857 222.359 129.945 222.313L133.534 220.24C133.691 220.153 133.684 220.004 133.534 219.91L129.403 217.569C129.314 217.52 129.213 217.493 129.111 217.49C129.008 217.488 128.907 217.509 128.814 217.554V217.514ZM123.568 220.546L119.979 222.659C119.83 222.745 119.838 222.894 119.979 222.988L124.126 225.384C124.215 225.428 124.313 225.451 124.412 225.451C124.512 225.451 124.61 225.428 124.699 225.384L128.288 223.31C128.445 223.224 128.437 223.075 128.288 222.981L124.134 220.585C124.046 220.54 123.949 220.517 123.851 220.517C123.753 220.517 123.656 220.54 123.568 220.585V220.546ZM134.061 214.491L130.471 216.556C130.322 216.651 130.33 216.8 130.471 216.894L134.618 219.25C134.707 219.294 134.805 219.317 134.905 219.317C135.004 219.317 135.102 219.294 135.191 219.25L138.781 217.177C138.938 217.09 138.93 216.941 138.781 216.847L134.626 214.452C134.532 214.418 134.432 214.408 134.334 214.422C134.235 214.436 134.142 214.473 134.061 214.53V214.491ZM113.076 226.601L109.487 228.737C109.33 228.831 109.345 228.973 109.487 229.067L113.641 231.47C113.73 231.515 113.829 231.538 113.928 231.538C114.027 231.538 114.126 231.515 114.215 231.47L117.804 229.397C117.953 229.31 117.945 229.161 117.804 229.067L113.657 226.711C113.573 226.654 113.476 226.618 113.375 226.606C113.274 226.593 113.171 226.605 113.076 226.64V226.601ZM118.322 223.577L114.733 225.651C114.584 225.737 114.592 225.886 114.733 225.981L118.88 228.337C118.968 228.383 119.067 228.407 119.166 228.407C119.266 228.407 119.364 228.383 119.453 228.337L123.042 226.271C123.199 226.177 123.183 226.028 123.042 225.933L118.888 223.538C118.794 223.507 118.694 223.498 118.596 223.511C118.498 223.525 118.404 223.561 118.322 223.617V223.577ZM114.482 245.002L118.071 242.929C118.228 242.842 118.22 242.693 118.071 242.599L113.916 240.243C113.828 240.196 113.729 240.172 113.63 240.172C113.53 240.172 113.431 240.196 113.343 240.243L109.77 242.261C109.62 242.347 109.628 242.497 109.77 242.591L113.916 244.986C114.003 245.032 114.099 245.057 114.197 245.059C114.295 245.062 114.392 245.042 114.482 245.002ZM83.6959 241.86L79.5414 239.465C79.4523 239.421 79.3542 239.398 79.2547 239.398C79.1552 239.398 79.0571 239.421 78.968 239.465L75.379 241.538C75.2298 241.625 75.2376 241.774 75.379 241.868L79.5256 244.264C79.6147 244.308 79.7128 244.331 79.8123 244.331C79.9118 244.331 80.0099 244.308 80.099 244.264L83.688 242.19C83.8529 242.135 83.8529 241.986 83.7037 241.892L83.6959 241.86ZM91.5494 244.169L87.3949 241.774C87.3072 241.73 87.2103 241.707 87.1121 241.707C87.0139 241.707 86.9171 241.73 86.8294 241.774L81.332 244.963C81.1827 245.049 81.1906 245.198 81.332 245.292L85.4786 247.648C85.5677 247.693 85.6658 247.716 85.7653 247.716C85.8647 247.716 85.9629 247.693 86.0519 247.648L91.5494 244.46C91.7065 244.444 91.7065 244.295 91.5651 244.201L91.5494 244.169ZM77.3188 237.227L73.1643 234.832C73.0752 234.787 72.9771 234.764 72.8776 234.764C72.7782 234.764 72.6801 234.787 72.591 234.832L68.193 237.376C68.0359 237.462 68.0438 237.612 68.193 237.706L72.3475 240.101C72.4366 240.146 72.5347 240.169 72.6342 240.169C72.7336 240.169 72.8318 240.146 72.9208 240.101L77.3345 237.549C77.5073 237.502 77.4994 237.376 77.3345 237.258L77.3188 237.227ZM80.7037 235.271C80.7922 235.317 80.8905 235.342 80.9903 235.342C81.0901 235.342 81.1885 235.317 81.277 235.271L84.866 233.198C85.0231 233.112 85.0074 232.962 84.866 232.868L80.7115 230.512C80.6225 230.468 80.5243 230.445 80.4249 230.445C80.3254 230.445 80.2273 230.468 80.1382 230.512L76.5492 232.585C76.3999 232.672 76.4078 232.821 76.5492 232.915L80.7037 235.271ZM98.8767 246.8L94.7222 244.444C94.6337 244.398 94.5354 244.374 94.4356 244.374C94.3358 244.374 94.2374 244.398 94.1489 244.444L87.2457 248.371C87.0965 248.457 87.1043 248.607 87.2457 248.701L91.4002 251.096C91.4879 251.14 91.5847 251.163 91.6829 251.163C91.7811 251.163 91.8779 251.14 91.9656 251.096L98.8767 247.107C99.0495 247.067 99.0417 246.918 98.8767 246.8ZM102.324 251.662L98.1699 249.266C98.0808 249.222 97.9827 249.199 97.8833 249.199C97.7838 249.199 97.6857 249.222 97.5966 249.266L93.1751 251.819C93.0259 251.905 93.0337 252.054 93.1751 252.149L97.3296 254.544C97.4187 254.588 97.5168 254.611 97.6162 254.611C97.7157 254.611 97.8138 254.588 97.9029 254.544L102.317 251.991C102.497 251.929 102.482 251.779 102.324 251.685V251.662ZM119.728 212.755C119.817 212.8 119.915 212.823 120.015 212.823C120.114 212.823 120.212 212.8 120.301 212.755L123.89 210.682C124.047 210.588 124.039 210.446 123.89 210.352L119.736 207.949C119.647 207.905 119.549 207.882 119.449 207.882C119.35 207.882 119.251 207.905 119.162 207.949L115.573 210.022C115.424 210.109 115.432 210.258 115.573 210.352L119.728 212.755ZM109.236 218.81C109.324 218.856 109.422 218.881 109.522 218.881C109.622 218.881 109.72 218.856 109.809 218.81L113.398 216.737C113.555 216.651 113.547 216.501 113.398 216.407L109.243 214.012C109.154 213.968 109.056 213.944 108.957 213.944C108.857 213.944 108.759 213.968 108.67 214.012L105.057 216.109C104.908 216.195 104.916 216.344 105.057 216.439L109.236 218.81ZM85.9655 232.271C86.0546 232.316 86.1527 232.339 86.2522 232.339C86.3517 232.339 86.4498 232.316 86.5388 232.271L90.1279 230.198C90.285 230.112 90.2771 229.962 90.1279 229.868L85.9734 227.465C85.8843 227.421 85.7862 227.398 85.6867 227.398C85.5873 227.398 85.4892 227.421 85.4001 227.465L81.7953 229.523C81.6461 229.609 81.654 229.758 81.7953 229.852L85.9655 232.271ZM114.482 215.779C114.571 215.823 114.669 215.846 114.768 215.846C114.868 215.846 114.966 215.823 115.055 215.779L118.644 213.706C118.801 213.619 118.793 213.47 118.644 213.376L114.482 211.02C114.393 210.974 114.295 210.949 114.195 210.949C114.095 210.949 113.997 210.974 113.908 211.02L110.319 213.085C110.17 213.179 110.178 213.329 110.319 213.423L114.482 215.779ZM103.989 221.834C104.078 221.878 104.177 221.901 104.276 221.901C104.376 221.901 104.474 221.878 104.563 221.834L108.152 219.761C108.309 219.674 108.293 219.525 108.152 219.431L103.997 217.028C103.908 216.983 103.81 216.96 103.711 216.96C103.611 216.96 103.513 216.983 103.424 217.028L99.8349 219.101C99.6857 219.187 99.6935 219.337 99.8349 219.431L103.989 221.834ZM105.207 252.039C105.118 251.994 105.019 251.971 104.92 251.971C104.821 251.971 104.722 251.994 104.633 252.039L99.1359 255.227C98.9788 255.314 98.9867 255.463 99.1359 255.557L103.29 257.952C103.379 257.997 103.478 258.02 103.577 258.02C103.677 258.02 103.775 257.997 103.864 257.952L109.361 254.764C109.51 254.677 109.503 254.528 109.361 254.434L105.207 252.039ZM96.4579 226.185C96.5469 226.229 96.645 226.252 96.7445 226.252C96.844 226.252 96.9421 226.229 97.0312 226.185L100.62 224.111C100.777 224.025 100.769 223.876 100.62 223.782L96.4186 221.426C96.3301 221.379 96.2317 221.355 96.1319 221.355C96.0321 221.355 95.9338 221.379 95.8453 221.426L92.2562 223.491C92.107 223.585 92.1148 223.727 92.2562 223.829L96.4579 226.185ZM91.2117 229.208C91.3008 229.253 91.3989 229.276 91.4984 229.276C91.5978 229.276 91.6959 229.253 91.785 229.208L95.3741 227.135C95.5311 227.049 95.5233 226.899 95.3741 226.805L91.2196 224.41C91.1305 224.366 91.0324 224.343 90.9329 224.343C90.8334 224.343 90.7353 224.366 90.6462 224.41L87.0572 226.483C86.908 226.57 86.9158 226.719 87.0572 226.813L91.2117 229.208ZM202.441 195.949C202.352 195.904 202.254 195.881 202.155 195.881C202.055 195.881 201.957 195.904 201.868 195.949L193.017 201.046C192.86 201.132 192.876 201.281 193.017 201.375L197.172 203.732C197.26 203.778 197.358 203.802 197.458 203.802C197.558 203.802 197.656 203.778 197.745 203.732L206.58 198.635C206.737 198.548 206.721 198.399 206.58 198.305L202.441 195.949ZM190.842 202.648C190.753 202.602 190.655 202.578 190.555 202.578C190.455 202.578 190.357 202.602 190.268 202.648L186.679 204.721C186.53 204.807 186.538 204.957 186.679 205.051L190.826 207.446C190.914 207.492 191.013 207.516 191.113 207.516C191.212 207.516 191.311 207.492 191.399 207.446L194.988 205.373C195.145 205.287 195.137 205.137 194.988 205.043L190.842 202.648ZM119.767 241.97L123.364 239.897C123.513 239.811 123.505 239.661 123.364 239.567L119.194 237.172C119.105 237.128 119.007 237.105 118.907 237.105C118.808 237.105 118.71 237.128 118.621 237.172L115.031 239.245C114.882 239.332 114.89 239.481 115.031 239.575L119.178 241.978C119.266 242.019 119.361 242.039 119.458 242.038C119.554 242.036 119.649 242.013 119.736 241.97H119.767ZM180.349 208.711C180.26 208.666 180.162 208.643 180.063 208.643C179.963 208.643 179.865 208.666 179.776 208.711L176.187 210.784C176.03 210.87 176.046 211.02 176.187 211.114L180.334 213.47C180.423 213.514 180.521 213.537 180.62 213.537C180.72 213.537 180.818 213.514 180.907 213.47L184.496 211.397C184.653 211.31 184.637 211.161 184.496 211.067L180.349 208.711ZM207.687 192.925C207.598 192.881 207.5 192.858 207.401 192.858C207.301 192.858 207.203 192.881 207.114 192.925L203.494 194.967C203.344 195.053 203.352 195.203 203.494 195.297L207.64 197.692C207.729 197.736 207.827 197.76 207.927 197.76C208.026 197.76 208.124 197.736 208.214 197.692L211.803 195.619C211.96 195.532 211.944 195.383 211.803 195.289L207.687 192.925ZM217.112 192.289L207.028 186.469C206.939 186.423 206.841 186.399 206.741 186.399C206.641 186.399 206.543 186.423 206.454 186.469L202.865 188.535C202.716 188.629 202.724 188.778 202.865 188.873L212.941 194.692C213.03 194.736 213.129 194.759 213.228 194.759C213.327 194.759 213.426 194.736 213.515 194.692L217.104 192.619C217.229 192.532 217.222 192.383 217.057 192.289H217.112ZM160.763 220.028C160.675 219.983 160.578 219.96 160.48 219.96C160.382 219.96 160.285 219.983 160.197 220.028L155.776 222.58C155.618 222.666 155.634 222.816 155.776 222.91L159.93 225.305C160.019 225.351 160.117 225.375 160.217 225.375C160.317 225.375 160.415 225.351 160.503 225.305L164.925 222.753C165.074 222.666 165.066 222.517 164.925 222.423L160.763 220.028ZM174.019 212.37C173.93 212.326 173.832 212.303 173.733 212.303C173.633 212.303 173.535 212.326 173.446 212.37L167.949 215.559C167.799 215.645 167.807 215.795 167.949 215.889L172.095 218.284C172.184 218.328 172.282 218.351 172.382 218.351C172.481 218.351 172.579 218.328 172.668 218.284L178.166 215.096C178.323 215.009 178.315 214.86 178.166 214.766L174.019 212.37ZM148.613 227.041C148.525 226.995 148.426 226.971 148.326 226.971C148.227 226.971 148.128 226.995 148.04 227.041L118.408 244.091C118.259 244.177 118.267 244.326 118.408 244.421L122.555 246.777C122.644 246.821 122.742 246.844 122.842 246.844C122.941 246.844 123.039 246.821 123.128 246.777L152.673 229.711C152.83 229.625 152.823 229.475 152.673 229.381L148.613 227.041ZM117.411 245.057C117.323 245.011 117.224 244.987 117.124 244.987C117.025 244.987 116.926 245.011 116.838 245.057L112.361 247.586C112.212 247.672 112.22 247.821 112.361 247.916L116.516 250.311C116.603 250.356 116.7 250.379 116.798 250.379C116.897 250.379 116.994 250.356 117.081 250.311L121.503 247.758C121.652 247.672 121.644 247.523 121.503 247.429L117.411 245.057ZM154.692 223.538C154.603 223.492 154.505 223.468 154.405 223.468C154.305 223.468 154.207 223.492 154.118 223.538L149.697 226.091C149.548 226.177 149.556 226.326 149.697 226.42L153.844 228.816C153.933 228.86 154.031 228.883 154.13 228.883C154.23 228.883 154.328 228.86 154.417 228.816L158.838 226.263C158.988 226.177 158.98 226.028 158.838 225.933L154.692 223.538ZM111.332 248.567C111.243 248.523 111.145 248.5 111.046 248.5C110.946 248.5 110.848 248.523 110.759 248.567L106.345 251.12C106.188 251.206 106.204 251.355 106.345 251.45L110.5 253.845C110.589 253.889 110.687 253.912 110.787 253.912C110.886 253.912 110.984 253.889 111.073 253.845L115.487 251.293C115.644 251.206 115.636 251.057 115.487 250.963L111.332 248.567ZM166.841 216.517C166.752 216.473 166.654 216.45 166.555 216.45C166.455 216.45 166.357 216.473 166.268 216.517L161.846 219.069C161.697 219.156 161.705 219.305 161.846 219.399L166.001 221.755C166.089 221.802 166.188 221.826 166.287 221.826C166.387 221.826 166.486 221.802 166.574 221.755L170.988 219.211C171.145 219.117 171.129 218.967 170.988 218.873L166.841 216.517ZM185.619 205.679C185.53 205.635 185.432 205.612 185.332 205.612C185.233 205.612 185.135 205.635 185.046 205.679L181.457 207.753C181.307 207.839 181.315 207.988 181.457 208.082L185.603 210.486C185.692 210.53 185.79 210.553 185.89 210.553C185.989 210.553 186.087 210.53 186.177 210.486L189.766 208.412C189.923 208.326 189.907 208.177 189.766 208.082L185.619 205.679ZM197.062 197.323L200.651 195.25C200.8 195.163 200.792 195.014 200.651 194.92L196.504 192.525C196.415 192.478 196.317 192.454 196.217 192.454C196.117 192.454 196.019 192.478 195.931 192.525L192.342 194.598C192.185 194.684 192.2 194.834 192.342 194.928L196.496 197.323C196.584 197.366 196.681 197.388 196.779 197.388C196.877 197.388 196.973 197.366 197.062 197.323ZM173.603 197.166L177.192 195.101C177.341 195.006 177.333 194.857 177.192 194.763L173.045 192.368C172.957 192.321 172.859 192.297 172.759 192.297C172.659 192.297 172.561 192.321 172.472 192.368L168.883 194.441C168.726 194.527 168.742 194.676 168.883 194.771L173.038 197.166C173.124 197.212 173.221 197.237 173.319 197.238C173.418 197.239 173.515 197.217 173.603 197.174V197.166ZM161.713 217.742L172.205 211.687C172.362 211.601 172.354 211.452 172.205 211.357L168.051 208.962C167.962 208.918 167.863 208.895 167.764 208.895C167.664 208.895 167.566 208.918 167.477 208.962L156.969 214.994C156.82 215.088 156.828 215.237 156.969 215.331L161.116 217.727C161.207 217.777 161.309 217.805 161.412 217.808C161.516 217.81 161.619 217.788 161.713 217.742ZM191.242 200.355C191.331 200.401 191.429 200.425 191.529 200.425C191.629 200.425 191.727 200.401 191.815 200.355L195.404 198.289C195.554 198.195 195.546 198.046 195.404 197.951L191.258 195.556C191.169 195.512 191.071 195.489 190.971 195.489C190.872 195.489 190.774 195.512 190.684 195.556L187.095 197.629C186.938 197.716 186.946 197.865 187.095 197.959L191.242 200.355ZM185.886 196.938L189.475 194.873C189.624 194.779 189.616 194.629 189.475 194.535L185.328 192.14C185.239 192.095 185.141 192.072 185.042 192.072C184.942 192.072 184.844 192.095 184.755 192.14L181.142 194.182C180.985 194.268 180.993 194.417 181.142 194.512L185.297 196.907C185.385 196.959 185.486 196.989 185.588 196.993C185.691 196.997 185.794 196.976 185.886 196.93V196.938ZM156.467 220.774L160.056 218.7C160.213 218.614 160.197 218.465 160.056 218.371L155.901 215.975C155.812 215.931 155.714 215.908 155.615 215.908C155.515 215.908 155.417 215.931 155.328 215.975L151.739 218.049C151.582 218.135 151.597 218.284 151.739 218.378L155.885 220.774C155.976 220.818 156.076 220.84 156.177 220.839C156.278 220.838 156.377 220.813 156.467 220.766V220.774ZM179.666 207.046C179.755 207.09 179.853 207.113 179.953 207.113C180.052 207.113 180.15 207.09 180.239 207.046L183.828 204.972C183.985 204.886 183.97 204.737 183.828 204.643L179.666 202.255C179.577 202.211 179.479 202.188 179.379 202.188C179.28 202.188 179.182 202.211 179.093 202.255L175.504 204.328C175.347 204.423 175.362 204.564 175.504 204.658L179.666 207.046ZM130.259 235.915L133.849 233.842C133.998 233.748 133.99 233.606 133.849 233.512L129.655 231.093C129.566 231.049 129.468 231.026 129.368 231.026C129.269 231.026 129.17 231.049 129.081 231.093L125.477 233.174C125.32 233.261 125.327 233.41 125.477 233.504L129.631 235.9C129.723 235.952 129.826 235.98 129.932 235.983C130.037 235.986 130.141 235.962 130.236 235.915H130.259ZM135.506 232.884L139.095 230.811C139.244 230.724 139.236 230.575 139.095 230.481L134.901 228.085C134.812 228.041 134.714 228.018 134.614 228.018C134.515 228.018 134.417 228.041 134.328 228.085L130.738 230.159C130.581 230.245 130.589 230.394 130.738 230.489L134.893 232.884C134.984 232.931 135.085 232.955 135.188 232.955C135.29 232.955 135.391 232.931 135.482 232.884H135.506ZM124.982 238.947L128.579 236.873C128.728 236.787 128.72 236.638 128.579 236.544L124.424 234.148C124.336 234.102 124.237 234.078 124.138 234.078C124.038 234.078 123.939 234.102 123.851 234.148L120.262 236.222C120.113 236.308 120.121 236.457 120.262 236.551L124.416 238.947C124.504 238.992 124.601 239.015 124.699 239.015C124.797 239.015 124.894 238.992 124.982 238.947ZM145.974 226.829L149.563 224.763C149.713 224.669 149.705 224.52 149.563 224.426L145.417 222.03C145.328 221.986 145.23 221.963 145.13 221.963C145.031 221.963 144.933 221.986 144.843 222.03L141.254 224.104C141.097 224.19 141.105 224.339 141.254 224.433L145.409 226.829C145.497 226.872 145.594 226.894 145.693 226.893C145.791 226.892 145.887 226.867 145.974 226.821V226.829ZM140.728 229.86L144.317 227.787C144.466 227.701 144.459 227.551 144.317 227.457L140.171 225.062C140.082 225.017 139.983 224.994 139.884 224.994C139.784 224.994 139.686 225.017 139.597 225.062L136.008 227.135C135.851 227.229 135.859 227.371 136.008 227.465L140.163 229.868C140.252 229.909 140.349 229.928 140.447 229.926C140.545 229.923 140.641 229.898 140.728 229.852V229.86ZM151.22 223.805L154.81 221.732C154.959 221.645 154.951 221.496 154.81 221.402L150.663 219.046C150.574 219 150.476 218.976 150.376 218.976C150.276 218.976 150.178 219 150.09 219.046L146.501 221.119C146.343 221.206 146.359 221.355 146.501 221.449L150.655 223.844C150.747 223.88 150.845 223.895 150.943 223.887C151.041 223.878 151.136 223.848 151.22 223.797V223.805ZM175.221 178.993C175.31 179.037 175.408 179.06 175.508 179.06C175.607 179.06 175.705 179.037 175.794 178.993L179.383 176.92C179.54 176.833 179.532 176.684 179.383 176.59L178.276 175.954C178.187 175.909 178.089 175.886 177.989 175.886C177.89 175.886 177.792 175.909 177.703 175.954L174.114 178.027C173.964 178.113 173.972 178.263 174.114 178.357L175.221 178.993ZM149.406 195.65C149.495 195.695 149.594 195.718 149.693 195.718C149.792 195.718 149.891 195.695 149.98 195.65L153.569 193.577C153.726 193.491 153.718 193.341 153.569 193.247L149.414 190.852C149.325 190.807 149.227 190.784 149.128 190.784C149.028 190.784 148.93 190.807 148.841 190.852L145.252 192.925C145.103 193.011 145.11 193.161 145.252 193.255L149.406 195.65ZM159.899 189.595C159.987 189.641 160.086 189.665 160.185 189.665C160.285 189.665 160.383 189.641 160.472 189.595L164.061 187.522C164.218 187.435 164.21 187.286 164.061 187.192L159.907 184.797C159.818 184.751 159.72 184.727 159.62 184.727C159.52 184.727 159.422 184.751 159.333 184.797L155.744 186.87C155.595 186.956 155.603 187.106 155.744 187.2L159.899 189.595ZM142.998 199.349C143.087 199.394 143.185 199.417 143.285 199.417C143.384 199.417 143.482 199.394 143.571 199.349L147.168 197.276C147.317 197.19 147.309 197.04 147.168 196.946L143.014 194.59C142.924 194.546 142.826 194.523 142.727 194.523C142.627 194.523 142.529 194.546 142.44 194.59L138.828 196.616C138.678 196.703 138.686 196.852 138.828 196.946L142.998 199.349ZM154.652 192.611C154.742 192.655 154.84 192.678 154.939 192.678C155.039 192.678 155.137 192.655 155.226 192.611L158.815 190.538C158.972 190.451 158.964 190.302 158.815 190.208L154.66 187.852C154.571 187.807 154.473 187.784 154.374 187.784C154.274 187.784 154.176 187.807 154.087 187.852L150.498 189.925C150.349 190.019 150.357 190.161 150.498 190.255L154.652 192.611ZM132.545 205.404C132.634 205.449 132.732 205.472 132.831 205.472C132.931 205.472 133.029 205.449 133.118 205.404L136.707 203.331C136.864 203.245 136.856 203.095 136.707 203.001L132.553 200.606C132.464 200.56 132.366 200.536 132.266 200.536C132.166 200.536 132.068 200.56 131.979 200.606L128.39 202.671C128.241 202.766 128.249 202.915 128.39 203.009L132.545 205.404ZM137.791 202.373C137.88 202.417 137.978 202.44 138.078 202.44C138.177 202.44 138.275 202.417 138.364 202.373L141.953 200.3C142.11 200.205 142.103 200.064 141.953 199.97L137.799 197.567C137.71 197.522 137.612 197.499 137.512 197.499C137.413 197.499 137.315 197.522 137.226 197.567L133.581 199.679C133.432 199.766 133.44 199.915 133.581 200.009L137.791 202.373ZM164.744 185.04C164.833 185.086 164.931 185.11 165.031 185.11C165.131 185.11 165.229 185.086 165.318 185.04L168.907 182.975C169.064 182.88 169.056 182.739 168.907 182.637L167.799 182.001C167.71 181.957 167.612 181.934 167.513 181.934C167.413 181.934 167.315 181.957 167.226 182.001L163.637 184.074C163.488 184.161 163.496 184.31 163.637 184.404L164.744 185.04ZM180.451 175.954C180.54 176 180.638 176.024 180.738 176.024C180.838 176.024 180.936 176 181.025 175.954L184.622 173.88C184.771 173.794 184.763 173.645 184.622 173.55L183.514 172.914C183.426 172.868 183.327 172.844 183.228 172.844C183.128 172.844 183.029 172.868 182.941 172.914L179.352 174.98C179.203 175.074 179.21 175.223 179.352 175.317L180.451 175.954ZM189.177 180.988C189.265 181.034 189.363 181.058 189.463 181.058C189.563 181.058 189.661 181.034 189.75 180.988L193.339 178.914C193.488 178.828 193.48 178.679 193.339 178.585L189.192 176.229C189.104 176.182 189.005 176.158 188.906 176.158C188.806 176.158 188.708 176.182 188.619 176.229L185.03 178.302C184.873 178.388 184.881 178.537 185.03 178.632L189.177 180.988ZM202.292 194.299L205.881 192.226C206.038 192.14 206.022 191.991 205.881 191.896L201.727 189.54C201.637 189.496 201.539 189.473 201.44 189.473C201.34 189.473 201.242 189.496 201.153 189.54L197.564 191.614C197.407 191.7 197.423 191.849 197.564 191.943L201.711 194.339C201.806 194.383 201.91 194.403 202.014 194.396C202.119 194.389 202.22 194.356 202.308 194.299H202.292ZM169.975 182.009C170.064 182.053 170.162 182.076 170.261 182.076C170.361 182.076 170.459 182.053 170.548 182.009L174.137 179.935C174.294 179.849 174.286 179.7 174.137 179.606L173.03 178.969C172.941 178.923 172.843 178.899 172.743 178.899C172.643 178.899 172.545 178.923 172.456 178.969L168.867 181.043C168.718 181.129 168.726 181.278 168.867 181.373L169.975 182.009ZM127.259 208.428C127.348 208.472 127.447 208.495 127.546 208.495C127.646 208.495 127.744 208.472 127.833 208.428L131.422 206.355C131.579 206.268 131.571 206.119 131.422 206.025L127.267 203.629C127.178 203.585 127.08 203.562 126.981 203.562C126.881 203.562 126.783 203.585 126.694 203.629L123.121 205.703C122.971 205.789 122.979 205.938 123.121 206.033L127.259 208.428Z" fill="#263238"/>
<path opacity="0.3" d="M150.528 239.928L185.947 219.47C186.546 219.168 187.208 219.01 187.879 219.01C188.55 219.01 189.212 219.168 189.811 219.47L210.128 231.203C211.196 231.816 211.196 232.813 210.128 233.434L174.701 253.853C174.103 254.159 173.441 254.318 172.769 254.318C172.097 254.318 171.435 254.159 170.837 253.853L150.528 242.159C149.46 241.538 149.46 240.517 150.528 239.928Z" fill="black"/>
<path d="M33.7399 227.072C34.0524 227.251 34.3845 227.393 34.7294 227.496C34.3835 227.399 34.0511 227.26 33.7399 227.08C33.6321 227.024 33.5296 226.958 33.4336 226.884C33.5317 226.953 33.634 227.016 33.7399 227.072Z" fill="#444854"/>
<path opacity="0.3" d="M166.698 41.8232C166.47 40.1582 165.127 39.5457 163.501 40.4881L39.981 111.79C39.0331 112.368 38.2491 113.179 37.7035 114.146L31.6562 110.667C32.1985 109.685 32.9824 108.858 33.9338 108.264L157.462 36.9776C158.356 36.4156 159.382 36.0982 160.437 36.0571C161.492 36.0159 162.539 36.2524 163.474 36.743C164.409 37.2335 165.199 37.9609 165.765 38.8524C166.33 39.7439 166.652 40.7683 166.698 41.8232Z" fill="black"/>
<path d="M39.3789 227.378C39.3944 227.375 39.4105 227.375 39.426 227.378H39.3789Z" fill="#444854"/>
<path opacity="0.5" d="M263.452 213.124C263.372 214.206 263.038 215.253 262.479 216.182C261.92 217.111 261.15 217.895 260.233 218.473L136.704 289.79C135.713 290.322 134.602 290.593 133.477 290.576V283.61C134.602 283.626 135.713 283.356 136.704 282.824L260.233 211.459C261.89 210.493 262 208.986 260.555 207.949C261.39 208.544 262.083 209.317 262.584 210.212C263.085 211.106 263.382 212.101 263.452 213.124Z" fill="black"/>
<path d="M342.525 152.055L328.098 143.731C327.776 143.558 327.313 143.676 326.747 144.108C326.449 144.327 326.15 144.547 325.852 144.752L325.514 144.964C325.318 145.089 325.122 145.223 324.917 145.341C324.713 145.458 324.635 145.498 324.493 145.584L323.967 145.875L323.48 146.118L322.993 146.354L322.451 146.581C322.302 146.644 322.153 146.715 321.996 146.77L321.407 146.99L320.991 147.139L320.355 147.335L319.978 147.445L319.294 147.618L318.949 147.697C318.713 147.752 318.47 147.799 318.226 147.838L317.928 147.893L317.142 148.003H316.883C316.616 148.003 316.341 148.058 316.098 148.074H315.886H315.038H314.865C314.574 148.074 314.284 148.074 313.993 148.074H313.86C313.561 148.074 313.255 148.074 312.956 148.011H312.87L311.936 147.885H311.888L311.456 147.799L302.503 142.631C301.844 142.262 301.239 142.529 300.846 143.495C295.647 156.406 284.574 169.498 277.192 172.773C277.045 172.835 276.903 172.909 276.767 172.993C276.678 173.045 276.591 173.103 276.508 173.166L276.39 173.244L276.068 173.519C275.959 173.621 275.856 173.731 275.754 173.841C275.228 174.416 274.934 175.166 274.93 175.946L275.998 189.061C275.998 197.519 279.595 206.441 286.938 210.705L301.373 219.022L301.475 219.077C305.203 221.141 309.487 221.979 313.718 221.473C315.299 221.211 316.764 220.477 317.92 219.368C334.067 202.695 341.912 180.1 341.912 167.645L342.981 153.194C342.973 152.621 342.808 152.22 342.525 152.055Z" fill="#EA9924"/>
<path opacity="0.4" d="M316.82 150.932C316.676 150.859 316.515 150.825 316.354 150.834C316.193 150.842 316.036 150.892 315.901 150.979L315.744 151.097C315.653 151.188 315.571 151.288 315.5 151.396C315.421 151.531 315.353 151.673 315.296 151.82C313.942 155.137 312.316 158.336 310.435 161.385C308.806 164.066 307.015 166.644 305.071 169.105C304.128 170.283 303.186 171.406 302.236 172.459C302.239 172.472 302.239 172.485 302.236 172.498L301.45 173.37C301.175 173.645 300.916 173.927 300.665 174.194C300.531 174.344 300.398 174.485 300.256 174.618C297.225 177.666 294.256 179.943 291.72 181.066C291.287 181.259 290.891 181.524 290.55 181.852L290.259 182.142C290.243 182.167 290.224 182.191 290.204 182.213L290.259 182.142L275.84 173.833C275.851 173.811 275.867 173.792 275.887 173.778C275.913 173.735 275.945 173.696 275.981 173.66L276.068 173.582C276.092 173.554 276.118 173.527 276.146 173.503L276.233 173.425C276.307 173.352 276.386 173.284 276.468 173.22L276.586 173.142C276.672 173.087 276.759 173.016 276.845 172.969C276.979 172.882 277.121 172.808 277.269 172.749C284.652 169.474 295.733 156.383 300.924 143.471C301.207 142.78 301.592 142.443 302.031 142.443C302.227 142.45 302.416 142.51 302.581 142.615L311.448 147.846L316.82 150.932Z" fill="white"/>
<path opacity="0.1" d="M342.526 152.055L328.099 143.731C327.784 143.566 327.313 143.683 326.756 144.107C326.465 144.335 326.159 144.555 325.853 144.759L325.523 144.971C325.326 145.097 325.13 145.231 324.926 145.348C324.722 145.466 324.643 145.505 324.502 145.592L323.976 145.882C323.818 145.969 323.654 146.039 323.489 146.118L323.002 146.361L322.452 146.589C322.311 146.66 322.153 146.723 322.004 146.786L321.415 146.998L320.999 147.147L320.355 147.343L319.978 147.453L319.303 147.626L318.965 147.704L318.235 147.846L317.928 147.901C317.677 147.948 317.426 147.979 317.143 148.011H316.884L316.098 148.089H315.886C315.604 148.089 315.321 148.089 315.038 148.089H314.873C314.575 148.089 314.284 148.089 313.994 148.089H313.868C313.562 148.089 313.255 148.05 312.957 148.026H312.871C312.556 148.026 312.242 147.956 311.944 147.909H311.897C311.75 147.89 311.606 147.858 311.465 147.814L316.837 150.909L316.931 150.964C317.135 151.091 317.316 151.254 317.465 151.443C317.503 151.475 317.537 151.512 317.567 151.553C323.064 157.977 333.934 157.969 341.183 152.424C341.732 152.008 342.188 151.875 342.494 152.016H342.541C342.685 152.102 342.793 152.235 342.848 152.393C342.781 152.248 342.668 152.129 342.526 152.055Z" fill="black"/>
<path opacity="0.2" d="M301.145 218.983L286.906 210.784C279.571 206.512 275.967 197.59 275.967 189.132L274.898 176.016C274.907 175.512 275.03 175.017 275.259 174.568C275.487 174.119 275.815 173.728 276.218 173.425C276.04 173.573 275.874 173.736 275.723 173.912L290.15 182.221C289.631 182.8 289.35 183.555 289.365 184.333L290.425 197.449C290.401 205.828 293.935 214.671 301.145 218.983Z" fill="black"/>
<path d="M342.948 153.273L341.88 167.723C341.88 180.21 334.027 202.773 317.896 219.446C316.737 220.56 315.265 221.292 313.678 221.543C309.453 222.064 305.172 221.24 301.442 219.187L301.34 219.132L301.152 219.014C293.935 214.703 290.393 205.868 290.393 197.48L289.332 184.365C289.321 183.589 289.601 182.838 290.118 182.26C290.206 182.157 290.3 182.06 290.4 181.969C290.742 181.641 291.138 181.376 291.571 181.184C294.115 180.053 297.068 177.776 300.115 174.736L300.524 174.312L301.309 173.48L302.094 172.608C303.052 171.548 303.995 170.425 304.937 169.247C306.88 166.785 308.672 164.206 310.301 161.527C312.181 158.48 313.804 155.283 315.155 151.969C315.218 151.821 315.288 151.677 315.367 151.537C315.438 151.432 315.519 151.334 315.61 151.246C315.659 151.202 315.711 151.163 315.767 151.128C315.9 151.038 316.056 150.986 316.216 150.978C316.377 150.969 316.537 151.005 316.678 151.081L316.78 151.128C316.986 151.254 317.167 151.417 317.314 151.608L317.417 151.725C322.914 158.142 333.783 158.134 341.032 152.597C341.574 152.181 342.037 152.047 342.344 152.181H342.383C342.456 152.212 342.519 152.264 342.564 152.33C342.797 152.59 342.933 152.923 342.948 153.273Z" fill="#EA9924"/>
<path d="M320.332 200.669L311.74 205.624L313.067 190.082C312.039 189.54 311.387 188.197 311.387 186.281C311.387 182.857 313.468 178.883 316.036 177.399C318.604 175.914 320.685 177.485 320.685 180.909C320.63 182.938 320.051 184.918 319.005 186.658L320.332 200.669Z" fill="#455A64"/>
<path d="M320.33 200.669L312.547 196.168L311.738 205.624L320.33 200.669Z" fill="#37474F"/>
<path d="M316.036 177.399C314.165 178.661 312.769 180.513 312.07 182.66L319.005 186.658C320.051 184.918 320.63 182.938 320.686 180.909C320.686 177.485 318.604 175.914 316.036 177.399Z" fill="#37474F"/>
<path d="M326.843 115.403C324.487 114.021 321.456 114.178 318.605 115.819L296.026 128.864C293.672 130.355 291.716 132.395 290.326 134.81C288.936 137.225 288.154 139.941 288.047 142.725V170.385C288.08 170.736 288.205 171.071 288.411 171.357C288.617 171.643 288.895 171.869 289.217 172.011C290.092 172.45 291.057 172.679 292.036 172.679C293.015 172.679 293.981 172.45 294.856 172.011C295.178 171.869 295.456 171.643 295.662 171.357C295.868 171.071 295.993 170.736 296.026 170.385V142.725C296.134 141.341 296.55 139.998 297.245 138.795C297.939 137.593 298.894 136.561 300.039 135.775L322.602 122.714V150.398C322.636 150.75 322.763 151.086 322.97 151.371C323.177 151.657 323.457 151.883 323.78 152.024C324.653 152.466 325.618 152.696 326.596 152.696C327.574 152.696 328.539 152.466 329.411 152.024C329.733 151.881 330.012 151.656 330.217 151.37C330.423 151.084 330.549 150.749 330.582 150.398V122.714C330.597 119.455 329.231 116.777 326.843 115.403Z" fill="#37474F"/>
<path d="M322.602 122.714V150.375C322.635 150.726 322.762 151.062 322.969 151.348C323.176 151.634 323.456 151.859 323.78 152C324.146 152.208 324.54 152.364 324.95 152.464V121.364L322.602 122.714Z" fill="#263238"/>
</g>
</svg>
