<svg width="40" height="40" viewBox="0 0 40 40" fill="none" xmlns="http://www.w3.org/2000/svg">
<path d="M16.7172 14.9494C16.2291 14.4612 15.4376 14.4612 14.9494 14.9494C14.4613 15.4376 14.4613 16.229 14.9494 16.7172L18.2322 20L14.9495 23.2827C14.4613 23.7709 14.4613 24.5623 14.9495 25.0505C15.4376 25.5387 16.2291 25.5387 16.7172 25.0505L20 21.7677L23.2827 25.0505C23.7709 25.5386 24.5623 25.5386 25.0505 25.0505C25.5387 24.5623 25.5387 23.7709 25.0505 23.2827L21.7678 20L25.0505 16.7172C25.5387 16.229 25.5387 15.4376 25.0505 14.9494C24.5624 14.4613 23.7709 14.4613 23.2828 14.9494L20 18.2322L16.7172 14.9494Z" fill="#DB8200"/>
<path fill-rule="evenodd" clip-rule="evenodd" d="M20 2.08331C10.1049 2.08331 2.08337 10.1049 2.08337 20C2.08337 29.8951 10.1049 37.9166 20 37.9166C29.8951 37.9166 37.9167 29.8951 37.9167 20C37.9167 10.1049 29.8951 2.08331 20 2.08331ZM4.58337 20C4.58337 11.4856 11.4857 4.58331 20 4.58331C28.5144 4.58331 35.4167 11.4856 35.4167 20C35.4167 28.5144 28.5144 35.4166 20 35.4166C11.4857 35.4166 4.58337 28.5144 4.58337 20Z" fill="#DB8200"/>
</svg>
