<svg width="31" height="29" viewBox="0 0 31 29" fill="none" xmlns="http://www.w3.org/2000/svg">
<path d="M15.4999 0.5C19.1272 0.5 22.4323 1.79602 24.9736 3.92169L21.4431 7.33451C19.8157 6.06493 17.7514 5.3 15.4999 5.3C10.2697 5.3 5.99998 9.40344 5.99998 14.5C5.99998 19.5966 10.2697 23.7 15.4999 23.7C19.626 23.7 23.1374 21.1462 24.4467 17.572L24.6928 16.9H23.9772H15.9999V12.1H28.4999V12.1602H28.9999H29.7943C29.9278 12.922 29.9999 13.7033 29.9999 14.5C29.9999 22.2156 23.5236 28.5 15.4999 28.5C7.47626 28.5 1 22.2156 1 14.5C1 6.78436 7.47626 0.5 15.4999 0.5Z" fill="#FFC107" stroke="#F6F6F6"/>
<path d="M24.9736 3.92169L21.4431 7.33451C19.8157 6.06493 17.7514 5.3 15.4999 5.3C11.7448 5.3 8.49589 7.41289 6.95506 10.4882L2.88712 7.60429C5.37684 3.36779 10.0859 0.5 15.4999 0.5C19.1272 0.5 22.4323 1.79602 24.9736 3.92169Z" fill="#FF3D00" stroke="#F6F6F6"/>
<path d="M24.7737 25.241L20.8916 22.0655C19.3107 23.1299 17.4292 23.7014 15.4998 23.6999M24.7737 25.241L15.5002 23.1999M24.7737 25.241C22.2596 27.2689 19.0329 28.4999 15.5002 28.4999C10.0144 28.4999 5.25672 25.553 2.79411 21.2233M15.4998 23.6999L15.5002 23.1999M15.4998 23.6999C15.4999 23.6999 15.5001 23.6999 15.5002 23.6999V23.1999M15.4998 23.6999C11.6297 23.6998 8.30013 21.4524 6.82199 18.2234M15.5002 23.1999C11.7867 23.1999 8.60665 21.0213 7.23264 17.9175L6.82199 18.2234M6.82199 18.2234C6.75071 18.0677 6.68373 17.9096 6.6212 17.7495L7.03797 17.4391M6.82199 18.2234L2.79411 21.2233M2.79411 21.2233C2.72369 21.0995 2.65514 20.9746 2.58852 20.8485L2.14648 21.0822L2.44515 21.4832L2.79411 21.2233Z" fill="#4CAF50" stroke="#F6F6F6"/>
<path d="M25.8458 24.337C25.7395 24.4382 25.6446 24.5243 25.5637 24.595L21.7138 21.4458C22.95 20.4076 23.8935 19.075 24.4464 17.573L24.6941 16.9002H23.9772H16V12.1002H28.5V12.1604H29H29.7943C29.9278 12.9222 29.9999 13.7035 29.9999 14.5002C29.9999 17.9981 28.7294 20.6555 27.4963 22.4069C26.8795 23.2829 26.2738 23.9296 25.8458 24.337Z" fill="#1976D2" stroke="#F6F6F6"/>
</svg>
