<svg width="39" height="39" viewBox="0 0 39 39" fill="none" xmlns="http://www.w3.org/2000/svg">
<path d="M34.0319 27.3575C32.9654 20.9407 29.6452 16.1625 26.7588 13.3559C25.9189 12.5392 25.4989 12.1308 24.5713 11.7529C23.6436 11.375 22.8462 11.375 21.2514 11.375H17.7486C16.1538 11.375 15.3564 11.375 14.4287 11.7529C13.5011 12.1308 13.0811 12.5392 12.2412 13.3559C9.35483 16.1625 6.03461 20.9407 4.96806 27.3575C4.17451 32.1318 8.57882 35.75 13.501 35.75H25.499C30.4212 35.75 34.8255 32.1318 34.0319 27.3575Z" stroke="#141B34" stroke-width="1.5" stroke-linecap="round"/>
<path d="M20.1087 17.875C20.1087 17.4608 19.7729 17.125 19.3587 17.125C18.9445 17.125 18.6087 17.4608 18.6087 17.875L20.1087 17.875ZM18.6087 29.25C18.6087 29.6642 18.9445 30 19.3587 30C19.7729 30 20.1087 29.6642 20.1087 29.25H18.6087ZM21.4749 20.7664C21.7255 21.0961 22.196 21.1602 22.5258 20.9096C22.8556 20.6589 22.9197 20.1884 22.6691 19.8586L21.4749 20.7664ZM17.1516 26.5154C16.8429 26.2392 16.3688 26.2655 16.0926 26.5741C15.8163 26.8828 15.8426 27.3569 16.1513 27.6331L17.1516 26.5154ZM19.3587 22.6489C18.2766 22.6489 17.683 22.476 17.3755 22.2689C17.1316 22.1045 17 21.8745 17 21.4329H15.5C15.5 22.2581 15.7924 23.011 16.5375 23.513C17.2192 23.9722 18.1799 24.1489 19.3587 24.1489V22.6489ZM17 21.4329C17 21.0938 17.1846 20.7252 17.6058 20.4145C18.0267 20.1039 18.644 19.8891 19.3587 19.8891V18.3891C18.3565 18.3891 17.4194 18.6878 16.7152 19.2074C16.0113 19.7269 15.5 20.5051 15.5 21.4329H17ZM22 25.6926C22 26.2297 21.7751 26.5679 21.3705 26.811C20.9204 27.0813 20.227 27.2364 19.3587 27.2364V28.7364C20.3634 28.7364 21.3656 28.5637 22.1429 28.0968C22.9657 27.6026 23.5 26.794 23.5 25.6926H22ZM19.3587 24.1489C20.4468 24.1489 21.1136 24.3125 21.4925 24.5596C21.8039 24.7627 22 25.073 22 25.6926H23.5C23.5 24.6739 23.1309 23.8373 22.3119 23.3032C21.5603 22.813 20.5314 22.6489 19.3587 22.6489V24.1489ZM20.1087 19.1391L20.1087 17.875L18.6087 17.875L18.6087 19.1391L20.1087 19.1391ZM18.6087 27.9864V29.25H20.1087V27.9864H18.6087ZM19.3587 19.8891C20.3418 19.8891 21.1133 20.2906 21.4749 20.7664L22.6691 19.8586C21.9662 18.934 20.7065 18.3891 19.3587 18.3891V19.8891ZM19.3587 27.2364C18.3999 27.2364 17.6076 26.9235 17.1516 26.5154L16.1513 27.6331C16.9334 28.3331 18.1056 28.7364 19.3587 28.7364V27.2364Z" fill="#141B34"/>
<path d="M11.792 7.21966C11.4568 6.7317 10.9708 6.06937 11.9746 5.91832C13.0064 5.76308 14.0777 6.46936 15.1264 6.45484C16.0751 6.44171 16.5584 6.02094 17.077 5.42016C17.623 4.78753 18.4685 3.25 19.5 3.25C20.5315 3.25 21.377 4.78753 21.923 5.42016C22.4416 6.02094 22.9249 6.44171 23.8736 6.45484C24.9223 6.46936 25.9936 5.76308 27.0254 5.91832C28.0292 6.06937 27.5432 6.7317 27.208 7.21966L25.6921 9.42604C25.0437 10.3699 24.7195 10.8418 24.041 11.1084C23.3625 11.375 22.4857 11.375 20.7321 11.375H18.2679C16.5143 11.375 15.6375 11.375 14.959 11.1084C14.2805 10.8418 13.9563 10.3699 13.3079 9.42604L11.792 7.21966Z" stroke="#141B34" stroke-width="1.5"/>
</svg>
