<svg width="40" height="40" viewBox="0 0 40 40" fill="none" xmlns="http://www.w3.org/2000/svg">
<path d="M32.7 6H6.3C4.48005 6 3 7.51369 3 9.375V29.625C3 31.4863 4.48005 33 6.3 33H32.7C34.5199 33 36 31.4863 36 29.625V9.375C36 7.51369 34.5199 6 32.7 6ZM14.0798 12.75C15.9789 12.75 17.3798 14.1827 17.3798 16.125C17.3798 18.0673 15.9789 19.5 14.0798 19.5C12.1806 19.5 10.7798 18.0673 10.7798 16.125C10.7798 14.1827 12.179 12.75 14.0798 12.75ZM20.2095 26.25H7.95V25.4653C7.95 23.1484 10.7154 20.7656 14.0798 20.7656C17.4441 20.7656 20.2095 23.1484 20.2095 25.4653V26.25ZM31.05 24.5625H24.45V21.1875H31.05V24.5625ZM31.05 17.8125H22.8V14.4375H31.05V17.8125Z" fill="#EA9924"/>
</svg>
