<svg width="40" height="40" viewBox="0 0 40 40" fill="none" xmlns="http://www.w3.org/2000/svg">
<path d="M21 29.8636H6C5.46957 29.8636 4.96086 29.6541 4.58579 29.2812C4.21071 28.9082 4 28.4024 4 27.875V7.98864C4 7.46122 4.21071 6.9554 4.58579 6.58246C4.96086 6.20952 5.46957 6 6 6H34C34.5304 6 35.0391 6.20952 35.4142 6.58246C35.7893 6.9554 36 7.46122 36 7.98864V18.2997C34.6678 16.6126 32.7299 15.5044 30.5933 15.2078C28.4568 14.9113 26.2878 15.4494 24.5418 16.7093C22.7959 17.9692 21.6088 19.8528 21.2299 21.9644C20.8511 24.0761 21.3099 26.2516 22.51 28.0341L21.58 29.1676L21 29.8636ZM9 11.9659V13.5568H26V11.9659H9ZM9 17.5341H20V15.9432H9V17.5341ZM9 24.4943H19V22.9034H9V24.4943Z" fill="#E0E6ED"/>
<path d="M35.83 23.4901C35.8327 22.4416 35.5736 21.409 35.0759 20.4847C34.5783 19.5604 33.8577 18.7734 32.9788 18.1942C32.0998 17.6151 31.09 17.262 30.04 17.1665C28.99 17.071 27.9326 17.2362 26.9626 17.6473C25.9926 18.0583 25.1404 18.7023 24.4824 19.5216C23.8245 20.3408 23.3813 21.3097 23.1927 22.3412C23.0041 23.3727 23.076 24.4346 23.4019 25.4317C23.7278 26.4288 24.2976 27.3298 25.06 28.054L23.12 30.4105L24.02 34L27.68 29.5653C28.8385 29.906 30.0715 29.906 31.23 29.5653L34.89 34L35.79 30.4105L33.85 28.054C34.4739 27.4664 34.9711 26.7588 35.3115 25.9742C35.6518 25.1897 35.8283 24.3445 35.83 23.4901ZM25.09 23.4901C25.0781 22.6282 25.3242 21.7823 25.7971 21.06C26.27 20.3376 26.9483 19.7714 27.7457 19.4334C28.5431 19.0953 29.4236 19.0007 30.2752 19.1616C31.1268 19.3224 31.911 19.7315 32.5282 20.3367C33.1454 20.942 33.5676 21.716 33.7411 22.5605C33.9147 23.405 33.8317 24.2817 33.5028 25.0791C33.1739 25.8766 32.6138 26.5588 31.894 27.0389C31.1741 27.5191 30.3268 27.7755 29.46 27.7756C28.3115 27.7782 27.2085 27.3292 26.3917 26.5263C25.5749 25.7235 25.1106 24.632 25.1 23.4901H25.09Z" fill="#E0E6ED"/>
</svg>
