<svg width="40" height="40" viewBox="0 0 40 40" fill="none" xmlns="http://www.w3.org/2000/svg">
<path d="M6.3 6C5.42479 6 4.58542 6.35558 3.96655 6.98851C3.34768 7.62145 3 8.47989 3 9.375V17.8125H13.1145C13.8735 14.8425 16.497 12.75 19.5 12.75C20.9616 12.754 22.3808 13.2529 23.536 14.1687C24.6912 15.0846 25.5174 16.3658 25.8855 17.8125H36V9.375C36 8.47989 35.6523 7.62145 35.0335 6.98851C34.4146 6.35558 33.5752 6 32.7 6H6.3ZM19.5 16.125C18.6248 16.125 17.7854 16.4806 17.1665 17.1135C16.5477 17.7465 16.2 18.6049 16.2 19.5C16.2 20.3951 16.5477 21.2535 17.1665 21.8865C17.7854 22.5194 18.6248 22.875 19.5 22.875C20.3752 22.875 21.2146 22.5194 21.8335 21.8865C22.4523 21.2535 22.8 20.3951 22.8 19.5C22.8 18.6049 22.4523 17.7465 21.8335 17.1135C21.2146 16.4806 20.3752 16.125 19.5 16.125ZM3 21.1875V29.625C3 30.5201 3.34768 31.3785 3.96655 32.0115C4.58542 32.6444 5.42479 33 6.3 33H32.7C33.5752 33 34.4146 32.6444 35.0335 32.0115C35.6523 31.3785 36 30.5201 36 29.625V21.1875H25.8855C25.5174 22.6342 24.6912 23.9154 23.536 24.8313C22.3808 25.7471 20.9616 26.246 19.5 26.25C18.0384 26.246 16.6192 25.7471 15.464 24.8313C14.3088 23.9154 13.4826 22.6342 13.1145 21.1875H3Z" fill="#E0E6ED"/>
</svg>
