<svg width="32" height="32" viewBox="0 0 32 32" fill="none" xmlns="http://www.w3.org/2000/svg">
<path d="M18.918 1.70871C17.9756 1.51741 17.0002 1.41699 16.0013 1.41699C7.94715 1.41699 1.41797 7.94617 1.41797 16.0003C1.41797 24.0545 7.94715 30.5837 16.0013 30.5837C24.0555 30.5837 30.5846 24.0545 30.5846 16.0003C30.5846 15.0015 30.4842 14.0261 30.2929 13.0837" stroke="#25292D" stroke-width="1.5" stroke-linecap="round"/>
<path d="M16.0026 11.6253C14.3918 11.6253 13.0859 12.6047 13.0859 13.8128C13.0859 15.0209 14.3918 16.0003 16.0026 16.0003C17.6134 16.0003 18.9193 16.9797 18.9193 18.1878C18.9193 19.3959 17.6134 20.3753 16.0026 20.3753M16.0026 11.6253C17.2725 11.6253 18.3529 12.234 18.7533 13.0837M16.0026 11.6253V10.167M16.0026 20.3753C14.7327 20.3753 13.6523 19.7666 13.2519 18.917M16.0026 20.3753V21.8337" stroke="#25292D" stroke-width="1.5" stroke-linecap="round"/>
<path d="M30.4446 2.6787C30.7388 2.38716 30.741 1.9123 30.4495 1.61805C30.158 1.3238 29.6831 1.32159 29.3888 1.61313L30.4446 2.6787ZM22.7651 8.17568C22.4709 8.46721 22.4687 8.94208 22.7602 9.23633C23.0517 9.53058 23.5266 9.53278 23.8208 9.24125L22.7651 8.17568ZM29.1676 1.74788L29.0368 2.48638L29.1676 1.74788ZM30.2533 2.83387L30.9918 2.70322L30.2533 2.83387ZM24.0322 0.672922C23.618 0.667253 23.2776 0.998413 23.272 1.41259C23.2663 1.82676 23.5975 2.16711 24.0116 2.17278L24.0322 0.672922ZM29.8283 7.98956C29.834 8.40373 30.1744 8.73487 30.5886 8.72917C31.0027 8.72348 31.3339 8.3831 31.3282 7.96893L29.8283 7.98956ZM29.3888 1.61313L22.7651 8.17568L23.8208 9.24125L30.4446 2.6787L29.3888 1.61313ZM29.0368 2.48638C29.2973 2.53252 29.4686 2.7038 29.5147 2.96453L30.9918 2.70322C30.836 1.82247 30.1794 1.16538 29.2984 1.00937L29.0368 2.48638ZM29.2984 1.00937C27.8513 0.753092 25.2596 0.689721 24.0322 0.672922L24.0116 2.17278C25.2698 2.19 27.7324 2.25538 29.0368 2.48638L29.2984 1.00937ZM31.3282 7.96893C31.3113 6.74155 31.2478 4.15012 30.9918 2.70322L29.5147 2.96453C29.7455 4.26896 29.811 6.73152 29.8283 7.98956L31.3282 7.96893Z" fill="#25292D"/>
</svg>
