<svg width="42" height="44" viewBox="0 0 42 44" fill="none" xmlns="http://www.w3.org/2000/svg">
<path d="M21 0C15.4771 0 11 4.47715 11 10C11 15.5228 15.4771 20 21 20C26.5228 20 31 15.5228 31 10C31 4.47715 26.5228 0 21 0Z" fill="url(#paint0_linear_2203_2691)"/>
<path d="M10.3333 25.3333C4.81046 25.3333 0.333313 29.8105 0.333313 35.3333V38.5021C0.333313 40.5107 1.789 42.2233 3.77137 42.547C15.1816 44.4099 26.8184 44.4099 38.2286 42.547C40.211 42.2233 41.6666 40.5107 41.6666 38.5021V35.3333C41.6666 29.8105 37.1895 25.3333 31.6666 25.3333H30.7577C30.2657 25.3333 29.7768 25.4111 29.3091 25.5638L27.0011 26.3175C23.1017 27.5908 18.8983 27.5908 14.9989 26.3175L12.6908 25.5638C12.2232 25.4111 11.7343 25.3333 11.2423 25.3333H10.3333Z" fill="url(#paint1_linear_2203_2691)"/>
<defs>
<linearGradient id="paint0_linear_2203_2691" x1="21" y1="43.9441" x2="21" y2="0" gradientUnits="userSpaceOnUse">
<stop stop-color="#EA9924"/>
<stop offset="1" stop-color="#FFCF8A"/>
</linearGradient>
<linearGradient id="paint1_linear_2203_2691" x1="21" y1="43.9441" x2="21" y2="0" gradientUnits="userSpaceOnUse">
<stop stop-color="#EA9924"/>
<stop offset="1" stop-color="#FFCF8A"/>
</linearGradient>
</defs>
</svg>
