<svg width="24" height="24" viewBox="0 0 24 24" fill="none" xmlns="http://www.w3.org/2000/svg">
<g clip-path="url(#clip0_672_92041)">
<path d="M9.32894 22.4061L9.32873 22.4064C8.99036 22.8266 8.49845 23.1028 7.81158 23.273C7.117 23.4451 6.25866 23.5 5.23077 23.5C4.20288 23.5 3.34454 23.4451 2.64996 23.273C1.96309 23.1028 1.47118 22.8266 1.1328 22.4064L1.1326 22.4061C0.835987 22.0383 0.673015 21.5891 0.587848 20.9959C0.517528 20.5061 0.503489 19.9469 0.500693 19.2836L0.939734 19.269L0.923077 18.2692H0.502133C0.508665 17.6027 0.532716 17.0309 0.607444 16.5364C0.699588 15.9267 0.863193 15.4778 1.13029 15.1385C1.65487 14.4719 2.73809 14.0385 5.23077 14.0385C7.72345 14.0385 8.80667 14.4719 9.33125 15.1385C9.59835 15.4778 9.76195 15.9267 9.8541 16.5364C9.94688 17.1504 9.96154 17.8836 9.96154 18.7692C9.96154 19.6652 9.96049 20.3833 9.87363 20.992C9.78841 21.5892 9.62536 22.0386 9.32894 22.4061ZM22.8674 22.4061L22.8672 22.4064C22.5288 22.8266 22.0369 23.1028 21.35 23.273C20.6555 23.4451 19.7971 23.5 18.7692 23.5C17.7413 23.5 16.883 23.4451 16.1884 23.273C15.5016 23.1028 15.0096 22.8266 14.6713 22.4064L14.6711 22.4061C14.3744 22.0383 14.2115 21.5891 14.1263 20.9959C14.056 20.5061 14.042 19.9469 14.0392 19.2836L14.4782 19.269L14.4615 18.2692H14.0406C14.0471 17.6027 14.0712 17.0309 14.1459 16.5364C14.238 15.9267 14.4017 15.4778 14.6688 15.1385C15.1933 14.4719 16.2766 14.0385 18.7692 14.0385C21.2619 14.0385 22.3451 14.4719 22.8697 15.1385C23.1368 15.4778 23.3004 15.9267 23.3926 16.5364C23.4853 17.1504 23.5 17.8836 23.5 18.7692C23.5 19.6652 23.4989 20.3833 23.4121 20.992C23.3269 21.5892 23.1638 22.0386 22.8674 22.4061ZM5.48682 14.8852L5.48559 14.8852L5.23185 14.8846H5.23077C4.43057 14.8846 3.7862 14.8984 3.28095 14.9673C2.77864 15.0358 2.33791 15.1674 2.00544 15.4631C1.663 15.7676 1.51017 16.1782 1.4342 16.6338C1.35962 17.0811 1.3487 17.6415 1.34661 18.3087L1.34661 18.3105L1.34712 19.3605L1.34713 19.3629C1.35005 19.8983 1.36147 20.387 1.41228 20.7921C1.46102 21.1808 1.55495 21.5832 1.78959 21.8759L1.79077 21.8773C2.07135 22.2246 2.54923 22.3992 3.07393 22.5007C3.62254 22.6069 4.34062 22.6538 5.23077 22.6538C6.12105 22.6538 6.83921 22.6066 7.3879 22.5001C7.91276 22.3982 8.39035 22.2232 8.67077 21.8761L8.67149 21.8752C8.94121 21.5398 9.02985 21.051 9.07172 20.5805C9.11539 20.0898 9.11539 19.4845 9.11539 18.8186V18.7988V18.7711C9.11539 18.025 9.1154 17.4062 9.0637 16.9167C9.01162 16.4237 8.90022 15.9719 8.60723 15.6223C8.30506 15.2618 7.87925 15.0903 7.38426 15C6.89533 14.9109 6.26746 14.8888 5.48682 14.8852ZM19.0253 14.8852L19.0241 14.8852L18.7703 14.8846H18.7692C17.969 14.8846 17.3247 14.8984 16.8194 14.9673C16.3171 15.0358 15.8764 15.1674 15.5439 15.4631C15.2015 15.7676 15.0486 16.1782 14.9727 16.6338C14.8981 17.0811 14.8872 17.6415 14.8851 18.3087L14.8851 18.3105L14.8856 19.3605L14.8856 19.3629C14.8885 19.8983 14.8999 20.387 14.9507 20.7921C14.9995 21.1808 15.0934 21.5832 15.3281 21.8758L15.3292 21.8773C15.6098 22.2246 16.0877 22.3992 16.6124 22.5007C17.161 22.6069 17.8791 22.6538 18.7692 22.6538C19.6595 22.6538 20.3777 22.6066 20.9264 22.5001C21.4512 22.3982 21.9288 22.2232 22.2092 21.8761L22.21 21.8752C22.4797 21.5398 22.5683 21.051 22.6102 20.5805C22.6539 20.0898 22.6539 19.4846 22.6538 18.8187V18.7988V18.7712C22.6539 18.025 22.6539 17.4062 22.6022 16.9167C22.5501 16.4237 22.4387 15.9719 22.1457 15.6223C21.8435 15.2618 21.4177 15.0903 20.9227 15C20.4338 14.9109 19.8059 14.8888 19.0253 14.8852ZM9.32894 8.86767L9.32873 8.86793C8.99036 9.2881 8.49845 9.56431 7.81158 9.73453C7.117 9.90665 6.25866 9.96154 5.23077 9.96154C4.20288 9.96154 3.34454 9.90665 2.64996 9.73453C1.96309 9.56431 1.47118 9.2881 1.1328 8.86793L1.1326 8.86767C0.835987 8.49985 0.673015 8.05061 0.587848 7.45741C0.517528 6.96761 0.503489 6.4084 0.500693 5.74513L0.939734 5.73049L0.923077 4.73077H0.502133C0.508665 4.06424 0.532716 3.49245 0.607444 2.99799C0.699588 2.38828 0.863193 1.93938 1.13029 1.6C1.65487 0.933476 2.73809 0.5 5.23077 0.5C7.72345 0.5 8.80667 0.933476 9.33125 1.6C9.59835 1.93938 9.76195 2.38828 9.8541 2.99799C9.94688 3.61193 9.96154 4.34509 9.96154 5.23077C9.96154 6.12675 9.96049 6.84481 9.87363 7.45353C9.78841 8.05079 9.62536 8.50009 9.32894 8.86767ZM22.8674 8.86767L22.8672 8.86793C22.5288 9.2881 22.0369 9.56431 21.35 9.73453C20.6555 9.90665 19.7971 9.96154 18.7692 9.96154C17.7413 9.96154 16.883 9.90665 16.1884 9.73453C15.5016 9.56431 15.0096 9.2881 14.6713 8.86793L14.6711 8.86767C14.3744 8.49985 14.2115 8.05061 14.1263 7.45741C14.056 6.96761 14.042 6.4084 14.0392 5.74513L14.4782 5.73049L14.4615 4.73077H14.0406C14.0471 4.06424 14.0712 3.49245 14.1459 2.99799C14.238 2.38828 14.4017 1.93938 14.6688 1.6C15.1933 0.933476 16.2766 0.5 18.7692 0.5C21.2619 0.5 22.3451 0.933476 22.8697 1.6C23.1368 1.93938 23.3004 2.38828 23.3926 2.99799C23.4853 3.61193 23.5 4.34509 23.5 5.23077C23.5 6.12675 23.4989 6.84481 23.4121 7.45353C23.3269 8.05079 23.1638 8.50009 22.8674 8.86767ZM5.48682 1.34671L5.48559 1.3467L5.23185 1.34615H5.23077C4.43057 1.34615 3.7862 1.35994 3.28095 1.42886C2.77864 1.49737 2.33791 1.62897 2.00544 1.92463C1.663 2.22918 1.51017 2.63974 1.4342 3.09536C1.35962 3.54265 1.3487 4.10307 1.34661 4.77019L1.34661 4.772L1.34712 5.82201L1.34713 5.82448C1.35005 6.35988 1.36147 6.84858 1.41228 7.25368C1.46102 7.64235 1.55495 8.04472 1.78959 8.33739L1.79077 8.33884C2.07135 8.68613 2.54923 8.86074 3.07393 8.96228C3.62254 9.06844 4.34062 9.11539 5.23077 9.11539C6.12105 9.11539 6.83921 9.06812 7.3879 8.96161C7.91276 8.85972 8.39035 8.6847 8.67077 8.33761L8.67149 8.33672C8.94121 8.00132 9.02985 7.51252 9.07172 7.04202C9.11539 6.55134 9.11539 5.94607 9.11539 5.28015V5.26031V5.23268C9.11539 4.48655 9.1154 3.86772 9.0637 3.37826C9.01162 2.88525 8.90022 2.43339 8.60723 2.08382C8.30506 1.72329 7.87925 1.55186 7.38426 1.46158C6.89533 1.37241 6.26746 1.35032 5.48682 1.34671ZM19.0253 1.34671L19.0241 1.3467L18.7703 1.34615H18.7692C17.969 1.34615 17.3247 1.35994 16.8194 1.42886C16.3171 1.49737 15.8764 1.62897 15.5439 1.92463C15.2015 2.22918 15.0486 2.63974 14.9727 3.09536C14.8981 3.54265 14.8872 4.10307 14.8851 4.77019L14.8851 4.772L14.8856 5.82201L14.8856 5.82448C14.8885 6.35988 14.8999 6.84858 14.9507 7.25368C14.9995 7.64235 15.0934 8.04472 15.3281 8.33739L15.3292 8.33884C15.6098 8.68613 16.0877 8.86074 16.6124 8.96228C17.161 9.06844 17.8791 9.11539 18.7692 9.11539C19.6595 9.11539 20.3777 9.06812 20.9264 8.96161C21.4512 8.85972 21.9288 8.6847 22.2092 8.33761L22.21 8.33672C22.4797 8.00132 22.5683 7.51252 22.6102 7.04202C22.6539 6.55135 22.6539 5.9461 22.6538 5.28019V5.26031V5.23272C22.6539 4.48657 22.6539 3.86773 22.6022 3.37826C22.5501 2.88525 22.4387 2.43339 22.1457 2.08382C21.8435 1.72329 21.4177 1.55186 20.9227 1.46158C20.4338 1.37241 19.8059 1.35032 19.0253 1.34671Z" fill="#EA9924" stroke="#25292D"/>
</g>
<defs>
<clipPath id="clip0_672_92041">
<rect width="24" height="24" fill="white"/>
</clipPath>
</defs>
</svg>
