<svg width="39" height="39" viewBox="0 0 39 39" fill="none" xmlns="http://www.w3.org/2000/svg">
<path d="M3.25 19.5C3.25 13.7516 3.25 10.8774 4.9608 8.95846C5.23443 8.65154 5.53601 8.3677 5.86212 8.11016C7.90097 6.5 10.9548 6.5 17.0625 6.5H21.9375C28.0452 6.5 31.099 6.5 33.1379 8.11016C33.464 8.3677 33.7656 8.65154 34.0392 8.95846C35.75 10.8774 35.75 13.7516 35.75 19.5C35.75 25.2484 35.75 28.1226 34.0392 30.0415C33.7656 30.3485 33.464 30.6323 33.1379 30.8898C31.099 32.5 28.0452 32.5 21.9375 32.5H17.0625C10.9548 32.5 7.90097 32.5 5.86212 30.8898C5.53601 30.6323 5.23443 30.3485 4.9608 30.0415C3.25 28.1226 3.25 25.2484 3.25 19.5Z" stroke="#141B34" stroke-width="1.5" stroke-linecap="round" stroke-linejoin="round"/>
<path d="M16.25 26H18.6875" stroke="#141B34" stroke-width="1.5" stroke-miterlimit="10" stroke-linecap="round" stroke-linejoin="round"/>
<path d="M23.5625 26L29.25 26" stroke="#141B34" stroke-width="1.5" stroke-miterlimit="10" stroke-linecap="round" stroke-linejoin="round"/>
<path d="M3.25 14.625H35.75" stroke="#141B34" stroke-width="1.5" stroke-linejoin="round"/>
</svg>
