<svg width="24" height="24" viewBox="0 0 24 24" fill="none" xmlns="http://www.w3.org/2000/svg">
<g clip-path="url(#clip0_672_92026)">
<path d="M13.0621 0.439855C12.7804 0.158216 12.3984 0 12 0C11.6016 0 11.2196 0.158216 10.9379 0.439855L0.421715 10.956C0.148058 11.2393 -0.00336609 11.6188 5.67912e-05 12.0127C0.00347968 12.4066 0.161476 12.7834 0.440016 13.062C0.718556 13.3405 1.09535 13.4985 1.48925 13.5019C1.88315 13.5054 2.26264 13.3539 2.54598 13.0803L2.98615 12.6401V22.5343C2.98615 22.9327 3.14443 23.3148 3.42617 23.5966C3.70791 23.8783 4.09002 24.0366 4.48846 24.0366H7.49308C7.89151 24.0366 8.27363 23.8783 8.55537 23.5966C8.83711 23.3148 8.99538 22.9327 8.99538 22.5343V19.5297C8.99538 19.1312 9.15366 18.7491 9.4354 18.4674C9.71714 18.1856 10.0993 18.0274 10.4977 18.0274H13.5023C13.9007 18.0274 14.2829 18.1856 14.5646 18.4674C14.8463 18.7491 15.0046 19.1312 15.0046 19.5297V22.5343C15.0046 22.9327 15.1629 23.3148 15.4446 23.5966C15.7264 23.8783 16.1085 24.0366 16.5069 24.0366H19.5115C19.91 24.0366 20.2921 23.8783 20.5738 23.5966C20.8556 23.3148 21.0138 22.9327 21.0138 22.5343V12.6401L21.454 13.0803C21.7374 13.3539 22.1168 13.5054 22.5107 13.5019C22.9046 13.4985 23.2814 13.3405 23.56 13.062C23.8385 12.7834 23.9965 12.4066 23.9999 12.0127C24.0034 11.6188 23.8519 11.2393 23.5783 10.956L13.0621 0.439855Z" fill="#EA9924"/>
</g>
<defs>
<clipPath id="clip0_672_92026">
<rect width="24" height="24" fill="white"/>
</clipPath>
</defs>
</svg>
