<svg width="31" height="35" viewBox="0 0 31 35" fill="none" xmlns="http://www.w3.org/2000/svg">
<path d="M30.0319 25.3575C28.9654 18.9407 25.6452 14.1625 22.7588 11.3559C21.9189 10.5392 21.4989 10.1308 20.5713 9.75292C19.6436 9.375 18.8462 9.375 17.2514 9.375H13.7486C12.1538 9.375 11.3564 9.375 10.4287 9.75292C9.50105 10.1308 9.0811 10.5392 8.24119 11.3559C5.35483 14.1625 2.03461 18.9407 0.968059 25.3575C0.174511 30.1318 4.57882 33.75 9.50102 33.75H21.499C26.4212 33.75 30.8255 30.1318 30.0319 25.3575Z" stroke="#141B34" stroke-width="1.5" stroke-linecap="round"/>
<path d="M16.1087 15.875C16.1087 15.4608 15.7729 15.125 15.3587 15.125C14.9445 15.125 14.6087 15.4608 14.6087 15.875L16.1087 15.875ZM14.6087 27.25C14.6087 27.6642 14.9445 28 15.3587 28C15.7729 28 16.1087 27.6642 16.1087 27.25H14.6087ZM17.4749 18.7664C17.7255 19.0961 18.196 19.1602 18.5258 18.9096C18.8556 18.6589 18.9197 18.1884 18.6691 17.8586L17.4749 18.7664ZM13.1516 24.5154C12.8429 24.2392 12.3688 24.2655 12.0926 24.5741C11.8163 24.8828 11.8426 25.3569 12.1513 25.6331L13.1516 24.5154ZM15.3587 20.6489C14.2766 20.6489 13.683 20.476 13.3755 20.2689C13.1316 20.1045 13 19.8745 13 19.4329H11.5C11.5 20.2581 11.7924 21.011 12.5375 21.513C13.2192 21.9722 14.1799 22.1489 15.3587 22.1489V20.6489ZM13 19.4329C13 19.0938 13.1846 18.7252 13.6058 18.4145C14.0267 18.1039 14.644 17.8891 15.3587 17.8891V16.3891C14.3565 16.3891 13.4194 16.6878 12.7152 17.2074C12.0113 17.7269 11.5 18.5051 11.5 19.4329H13ZM18 23.6926C18 24.2297 17.7751 24.5679 17.3705 24.811C16.9204 25.0813 16.227 25.2364 15.3587 25.2364V26.7364C16.3634 26.7364 17.3656 26.5637 18.1429 26.0968C18.9657 25.6026 19.5 24.794 19.5 23.6926H18ZM15.3587 22.1489C16.4468 22.1489 17.1136 22.3125 17.4925 22.5596C17.8039 22.7627 18 23.073 18 23.6926H19.5C19.5 22.6739 19.1309 21.8373 18.3119 21.3032C17.5603 20.813 16.5314 20.6489 15.3587 20.6489V22.1489ZM16.1087 17.1391L16.1087 15.875L14.6087 15.875L14.6087 17.1391L16.1087 17.1391ZM14.6087 25.9864V27.25H16.1087V25.9864H14.6087ZM15.3587 17.8891C16.3418 17.8891 17.1133 18.2906 17.4749 18.7664L18.6691 17.8586C17.9662 16.934 16.7065 16.3891 15.3587 16.3891V17.8891ZM15.3587 25.2364C14.3999 25.2364 13.6076 24.9235 13.1516 24.5154L12.1513 25.6331C12.9334 26.3331 14.1056 26.7364 15.3587 26.7364V25.2364Z" fill="#141B34"/>
<path d="M7.79201 5.21966C7.45676 4.7317 6.97082 4.06937 7.97461 3.91832C9.00637 3.76308 10.0777 4.46936 11.1264 4.45484C12.0751 4.44171 12.5584 4.02094 13.077 3.42016C13.623 2.78753 14.4685 1.25 15.5 1.25C16.5315 1.25 17.377 2.78753 17.923 3.42016C18.4416 4.02094 18.9249 4.44171 19.8736 4.45484C20.9223 4.46936 21.9936 3.76308 23.0254 3.91832C24.0292 4.06937 23.5432 4.7317 23.208 5.21966L21.6921 7.42604C21.0437 8.36987 20.7195 8.84179 20.041 9.1084C19.3625 9.375 18.4857 9.375 16.7321 9.375H14.2679C12.5143 9.375 11.6375 9.375 10.959 9.1084C10.2805 8.84179 9.95631 8.36987 9.30786 7.42604L7.79201 5.21966Z" stroke="#141B34" stroke-width="1.5"/>
</svg>
