<svg width="21" height="24" viewBox="0 0 21 24" fill="none" xmlns="http://www.w3.org/2000/svg">
<path d="M10.5 23.5003C11.2625 23.5003 11.9938 23.1974 12.5329 22.6582C13.0721 22.119 13.375 21.3878 13.375 20.6253H7.625C7.625 21.3878 7.9279 22.119 8.46707 22.6582C9.00624 23.1974 9.7375 23.5003 10.5 23.5003ZM10.5 3.25741L9.35431 3.48884C8.05476 3.75363 6.8866 4.4593 6.04756 5.48643C5.20852 6.51355 4.75014 7.79902 4.75 9.12528C4.75 10.028 4.55737 12.2835 4.09019 14.5044C3.86019 15.607 3.54969 16.7555 3.13713 17.7503H17.8629C17.4503 16.7555 17.1412 15.6084 16.9098 14.5044C16.4426 12.2835 16.25 10.028 16.25 9.12528C16.2495 7.79927 15.791 6.51413 14.952 5.48731C14.113 4.46048 12.945 3.75502 11.6457 3.49028L10.5 3.25597V3.25741ZM19.4412 17.7503C19.7618 18.3928 20.1327 18.9017 20.5625 19.1878H0.4375C0.867312 18.9017 1.23819 18.3928 1.55875 17.7503C2.8525 15.1628 3.3125 10.3903 3.3125 9.12528C3.3125 5.64653 5.785 2.74278 9.06969 2.08009C9.04962 1.88021 9.07168 1.67835 9.13442 1.48752C9.19717 1.29669 9.29922 1.12112 9.43398 0.972152C9.56875 0.823182 9.73324 0.704111 9.91685 0.622619C10.1005 0.541127 10.2991 0.499023 10.5 0.499023C10.7009 0.499023 10.8995 0.541127 11.0831 0.622619C11.2668 0.704111 11.4313 0.823182 11.566 0.972152C11.7008 1.12112 11.8028 1.29669 11.8656 1.48752C11.9283 1.67835 11.9504 1.88021 11.9303 2.08009C13.5551 2.41058 15.0157 3.29242 16.0649 4.57631C17.1141 5.8602 17.6873 7.46723 17.6875 9.12528C17.6875 10.3903 18.1475 15.1628 19.4412 17.7503Z" fill="#EA9924"/>
</svg>
