<svg width="24" height="26" viewBox="0 0 24 26" fill="none" xmlns="http://www.w3.org/2000/svg">
<path d="M13.072 1.21401C13.072 0.929846 12.9591 0.657324 12.7582 0.456392C12.5572 0.25546 12.2847 0.142578 12.0006 0.142578C11.7164 0.142578 11.4439 0.25546 11.2429 0.456392C11.042 0.657324 10.9291 0.929846 10.9291 1.21401V10.8569C10.9291 11.141 11.042 11.4135 11.2429 11.6145C11.4439 11.8154 11.7164 11.9283 12.0006 11.9283C12.2847 11.9283 12.5572 11.8154 12.7582 11.6145C12.9591 11.4135 13.072 11.141 13.072 10.8569V1.21401ZM8.14341 5.22972C8.2766 5.17637 8.39771 5.09682 8.49957 4.99577C8.60143 4.89473 8.68196 4.77426 8.73638 4.64151C8.7908 4.50876 8.818 4.36643 8.81637 4.22297C8.81474 4.0795 8.78432 3.93783 8.7269 3.80634C8.66949 3.67486 8.58625 3.55625 8.48213 3.45754C8.378 3.35884 8.25511 3.28205 8.12075 3.23174C7.98639 3.18142 7.84329 3.1586 7.69995 3.16464C7.5566 3.17067 7.41593 3.20543 7.28627 3.26686C5.18427 4.18455 3.39564 5.69553 2.13959 7.61462C0.883537 9.53372 0.21463 11.7776 0.214844 14.0711C0.214844 20.5801 5.49163 25.8569 12.0006 25.8569C18.5095 25.8569 23.7863 20.5801 23.7863 14.0711C23.7863 9.23686 20.8752 5.08401 16.7148 3.26686C16.4563 3.16332 16.1677 3.16448 15.91 3.2701C15.6524 3.37572 15.446 3.5775 15.3345 3.83269C15.2231 4.08788 15.2154 4.37643 15.3131 4.63721C15.4107 4.89798 15.6061 5.1105 15.8577 5.22972C17.5777 5.9807 19.0413 7.21721 20.069 8.78767C21.0967 10.3581 21.6438 12.1943 21.6434 14.0711C21.6434 15.3375 21.394 16.5914 20.9094 17.7613C20.4248 18.9312 19.7145 19.9943 18.8191 20.8897C17.9237 21.7851 16.8606 22.4954 15.6907 22.98C14.5208 23.4646 13.2669 23.714 12.0006 23.714C10.7342 23.714 9.48032 23.4646 8.3104 22.98C7.14047 22.4954 6.07745 21.7851 5.18203 20.8897C4.28661 19.9943 3.57632 18.9312 3.09172 17.7613C2.60712 16.5914 2.3577 15.3375 2.3577 14.0711C2.35727 12.1943 2.90444 10.3581 3.93213 8.78767C4.95982 7.21721 6.42338 5.9807 8.14341 5.22972Z" fill="#FF4D67"/>
</svg>
