<svg width="21" height="22" viewBox="0 0 21 22" fill="none" xmlns="http://www.w3.org/2000/svg">
<path d="M0 5.375C0 4.08207 0.513614 2.84209 1.42785 1.92785C2.34209 1.01361 3.58207 0.5 4.875 0.5H6.894C7.19237 0.5 7.47852 0.618526 7.6895 0.829505C7.90047 1.04048 8.019 1.32663 8.019 1.625C8.019 1.92337 7.90047 2.20952 7.6895 2.4205C7.47852 2.63147 7.19237 2.75 6.894 2.75H4.875C4.17881 2.75 3.51113 3.02656 3.01884 3.51885C2.52656 4.01113 2.25 4.67881 2.25 5.375V7.394C2.25 7.69237 2.13147 7.97852 1.9205 8.1895C1.70952 8.40047 1.42337 8.519 1.125 8.519C0.826631 8.519 0.540483 8.40047 0.329505 8.1895C0.118526 7.97852 0 7.69237 0 7.394V5.375ZM12.981 1.625C12.981 1.32663 13.0995 1.04048 13.3105 0.829505C13.5215 0.618526 13.8076 0.5 14.106 0.5H16.125C17.4179 0.5 18.6579 1.01361 19.5721 1.92785C20.4864 2.84209 21 4.08207 21 5.375V7.394C21 7.69237 20.8815 7.97852 20.6705 8.1895C20.4595 8.40047 20.1734 8.519 19.875 8.519C19.5766 8.519 19.2905 8.40047 19.0795 8.1895C18.8685 7.97852 18.75 7.69237 18.75 7.394V5.375C18.75 4.67881 18.4734 4.01113 17.9812 3.51885C17.4889 3.02656 16.8212 2.75 16.125 2.75H14.106C13.8076 2.75 13.5215 2.63147 13.3105 2.4205C13.0995 2.20952 12.981 1.92337 12.981 1.625ZM1.125 13.481C1.42337 13.481 1.70952 13.5995 1.9205 13.8105C2.13147 14.0215 2.25 14.3076 2.25 14.606V16.625C2.25 18.074 3.426 19.25 4.875 19.25H6.894C7.19237 19.25 7.47852 19.3685 7.6895 19.5795C7.90047 19.7905 8.019 20.0766 8.019 20.375C8.019 20.6734 7.90047 20.9595 7.6895 21.1705C7.47852 21.3815 7.19237 21.5 6.894 21.5H4.875C3.58207 21.5 2.34209 20.9864 1.42785 20.0721C0.513614 19.1579 0 17.9179 0 16.625V14.606C0 14.3076 0.118526 14.0215 0.329505 13.8105C0.540483 13.5995 0.826631 13.481 1.125 13.481ZM19.875 13.481C20.1734 13.481 20.4595 13.5995 20.6705 13.8105C20.8815 14.0215 21 14.3076 21 14.606V16.625C21 17.9179 20.4864 19.1579 19.5721 20.0721C18.6579 20.9864 17.4179 21.5 16.125 21.5H14.106C13.8076 21.5 13.5215 21.3815 13.3105 21.1705C13.0995 20.9595 12.981 20.6734 12.981 20.375C12.981 20.0766 13.0995 19.7905 13.3105 19.5795C13.5215 19.3685 13.8076 19.25 14.106 19.25H16.125C16.8212 19.25 17.4889 18.9734 17.9812 18.4812C18.4734 17.9889 18.75 17.3212 18.75 16.625V14.606C18.75 14.3076 18.8685 14.0215 19.0795 13.8105C19.2905 13.5995 19.5766 13.481 19.875 13.481ZM10.5 12.5C10.8978 12.5 11.2794 12.342 11.5607 12.0607C11.842 11.7794 12 11.3978 12 11C12 10.6022 11.842 10.2206 11.5607 9.93934C11.2794 9.65804 10.8978 9.5 10.5 9.5C10.1022 9.5 9.72064 9.65804 9.43934 9.93934C9.15804 10.2206 9 10.6022 9 11C9 11.3978 9.15804 11.7794 9.43934 12.0607C9.72064 12.342 10.1022 12.5 10.5 12.5ZM4.5 14V9.5C4.5 9.10218 4.65804 8.72064 4.93934 8.43934C5.22064 8.15804 5.60218 8 6 8H7.5L8.5545 6.4175C8.69152 6.21213 8.87712 6.04375 9.09483 5.92731C9.31253 5.81087 9.55561 5.74996 9.8025 5.75H11.1975C11.4444 5.74996 11.6875 5.81087 11.9052 5.92731C12.1229 6.04375 12.3085 6.21213 12.4455 6.4175L13.5 8H15C15.3978 8 15.7794 8.15804 16.0607 8.43934C16.342 8.72064 16.5 9.10218 16.5 9.5V14C16.5 14.3978 16.342 14.7794 16.0607 15.0607C15.7794 15.342 15.3978 15.5 15 15.5H6C5.60218 15.5 5.22064 15.342 4.93934 15.0607C4.65804 14.7794 4.5 14.3978 4.5 14ZM13.5 11C13.5 10.2044 13.1839 9.44129 12.6213 8.87868C12.0587 8.31607 11.2956 8 10.5 8C9.70435 8 8.94129 8.31607 8.37868 8.87868C7.81607 9.44129 7.5 10.2044 7.5 11C7.5 11.7957 7.81607 12.5587 8.37868 13.1213C8.94129 13.6839 9.70435 14 10.5 14C11.2956 14 12.0587 13.6839 12.6213 13.1213C13.1839 12.5587 13.5 11.7957 13.5 11Z" fill="#EA9924"/>
</svg>
