<svg width="24" height="24" viewBox="0 0 24 24" fill="none" xmlns="http://www.w3.org/2000/svg">
<g clip-path="url(#clip0_672_92034)">
<path d="M12.8653 4.53213L12.8588 4.5282C12.3665 4.23037 11.7553 4.22406 11.2662 4.53253C10.786 4.83262 10.5211 5.37671 10.5628 5.92494V18.132V18.1615L10.5663 18.1909C10.6566 18.9528 11.2958 19.532 12.0588 19.532C12.8285 19.532 13.4802 18.957 13.5527 18.1783L13.5548 18.1552V18.132V5.93271C13.6129 5.37488 13.341 4.82997 12.8653 4.53218L12.8653 4.53213ZM7.26312 8.46933L7.26241 8.46888C6.77613 8.16271 6.15974 8.16203 5.67359 8.46888C5.1953 8.76929 4.92871 9.31027 4.972 9.8616V18.132V18.1546L4.97404 18.1772C5.04481 18.9574 5.69887 19.532 6.4668 19.532C7.23654 19.532 7.88822 18.957 7.96065 18.1783L7.9628 18.1552V18.132V9.86229C8.00767 9.3081 7.73631 8.76837 7.26312 8.46933ZM16.7805 12.8206L16.7805 12.8206L16.7743 12.8244C16.2998 13.1221 16.0257 13.6519 16.084 14.224V18.132V18.1552L16.0862 18.1783C16.1586 18.957 16.8103 19.532 17.58 19.532C18.343 19.532 18.9822 18.9528 19.0725 18.1909L19.076 18.1615V18.132V14.2164C19.1179 13.6534 18.8506 13.1251 18.3739 12.8253C17.8848 12.5162 17.2727 12.5218 16.7805 12.8206ZM17.6028 0.5C19.5502 0.5 21.0044 1.05061 21.9736 2.02091C22.943 2.99141 23.4942 4.4487 23.5 6.39683C23.5 6.39704 23.5 6.39726 23.5 6.39747L23.5 17.604C23.5 19.5508 22.9491 21.0078 21.9783 21.9784C21.0076 22.949 19.5502 23.5 17.6028 23.5H6.396C4.44856 23.5 2.99157 22.9491 2.02113 21.9785C1.05067 21.0079 0.5 19.5509 0.5 17.604V6.396C0.5 4.44849 1.05069 2.99152 2.0211 2.0211C2.99152 1.05069 4.44849 0.5 6.396 0.5H17.6028Z" stroke="#25292D"/>
</g>
<defs>
<clipPath id="clip0_672_92034">
<rect width="24" height="24" fill="white"/>
</clipPath>
</defs>
</svg>
