<svg width="345" height="237" viewBox="0 0 345 237" fill="none" xmlns="http://www.w3.org/2000/svg">
<path opacity="0.4" d="M70.8639 179.575C110.001 179.575 141.728 161.255 141.728 138.656C141.728 116.058 110.001 97.7377 70.8639 97.7377C31.7269 97.7377 0 116.058 0 138.656C0 161.255 31.7269 179.575 70.8639 179.575Z" fill="url(#paint0_radial_324_8933)"/>
<path opacity="0.3" d="M50.2937 154.427C45.8504 154.427 41.3311 153.828 37.0484 152.569C28.4575 150.043 22.5867 145.304 20.931 139.569C19.7737 135.548 20.8634 131.375 23.9974 127.819L24.3353 127.438C31.8618 118.907 49.1448 115.579 63.6825 119.853C72.2734 122.379 78.1442 127.117 79.7999 132.853C80.9572 136.874 79.8675 141.047 76.7335 144.603L76.3956 144.983C71.0823 150.998 60.9203 154.427 50.2937 154.427ZM26.9793 130.446C24.7407 132.98 23.972 135.751 24.7492 138.462C25.9994 142.804 31.017 146.648 38.1634 148.751C51.113 152.561 66.9178 149.689 73.3969 142.348L73.7347 141.968C75.9733 139.434 76.742 136.663 75.9648 133.951C74.7146 129.609 69.697 125.766 62.5506 123.663C49.601 119.853 33.7962 122.725 27.3171 130.066L26.9793 130.446Z" fill="#6EE8FC"/>
<path d="M50.1338 152.661C45.8848 152.661 41.5683 152.095 37.5305 150.913C29.5225 148.556 24.074 144.248 22.5873 139.087C21.5821 135.606 22.5197 132.101 25.2904 128.958L25.6283 128.578C32.6311 120.646 49.4833 117.47 63.1932 121.508C71.2012 123.865 76.6497 128.173 78.1364 133.334C79.1416 136.814 78.204 140.32 75.4333 143.462L75.0954 143.843C70.1537 149.435 60.3127 152.661 50.1338 152.661ZM25.6874 129.305C23.035 132.304 22.1396 135.64 23.0941 138.943C24.5133 143.851 29.9617 148.142 37.6825 150.414C51.215 154.393 67.8223 151.293 74.6984 143.496L75.0362 143.116C77.6887 140.117 78.5841 136.781 77.6296 133.478C76.2104 128.57 70.7619 124.279 63.0411 122.006C49.5087 118.028 32.9014 121.128 26.0253 128.925L25.6874 129.305Z" fill="#1050FA"/>
<path d="M50.3689 149.51C43.9575 149.51 37.546 148.1 32.6635 145.287C27.9077 142.541 25.2891 138.884 25.2891 134.989C25.2891 131.095 27.9077 127.438 32.6635 124.692C42.4285 119.058 58.3093 119.058 68.0659 124.692C72.8217 127.438 75.4404 131.095 75.4404 134.989C75.4404 138.884 72.8217 142.541 68.0659 145.287C63.1918 148.1 56.7804 149.51 50.3689 149.51ZM50.3689 120.73C44.0082 120.73 37.6474 122.133 32.8071 124.929C28.1442 127.623 25.5678 131.197 25.5678 134.989C25.5678 138.782 28.1358 142.355 32.8071 145.05C42.4961 150.642 58.2502 150.642 67.9392 145.05C72.6021 142.355 75.1785 138.782 75.1785 134.989C75.1785 131.197 72.6105 127.623 67.9392 124.929C63.0905 122.124 56.7297 120.73 50.3689 120.73Z" fill="#787878"/>
<path opacity="0.6" d="M50.3676 147.145C61.9981 147.145 71.4266 141.702 71.4266 134.989C71.4266 128.276 61.9981 122.833 50.3676 122.833C38.737 122.833 29.3086 128.276 29.3086 134.989C29.3086 141.702 38.737 147.145 50.3676 147.145Z" fill="#0C0F38"/>
<path d="M75.3029 128.739V120.588H70.8849C70.0402 119.878 69.0857 119.202 67.996 118.569C58.2563 112.943 42.4684 112.943 32.7287 118.569C31.639 119.202 30.6845 119.878 29.8398 120.588H25.4219V128.748C25.4219 132.431 27.8547 136.114 32.7287 138.927C42.4684 144.553 58.2563 144.553 67.996 138.927C72.8785 136.122 75.3113 132.431 75.3029 128.739Z" fill="url(#paint1_linear_324_8933)"/>
<path d="M25.6578 128.536V120.587H25.4297V128.747C25.4297 132.041 27.3979 135.336 31.3005 138.014C27.5415 135.235 25.6578 131.889 25.6578 128.536Z" fill="#787878"/>
<path d="M74.9132 120.587V128.477C74.9217 132.168 72.4889 135.86 67.6064 138.673C57.8667 144.298 42.0788 144.298 32.3391 138.673C31.8407 138.385 31.393 138.09 30.9453 137.786C31.5028 138.183 32.0941 138.571 32.7361 138.934C42.4758 144.56 58.2637 144.56 68.0034 138.934C72.8774 136.121 75.3102 132.43 75.3102 128.739V120.587H74.9132Z" fill="#787878"/>
<path d="M50.366 134.99C64.1379 134.99 75.3022 128.542 75.3022 120.587C75.3022 112.633 64.1379 106.185 50.366 106.185C36.594 106.185 25.4297 112.633 25.4297 120.587C25.4297 128.542 36.594 134.99 50.366 134.99Z" fill="url(#paint2_linear_324_8933)"/>
<path d="M33.4058 110.56C38.3559 107.705 44.818 106.26 51.297 106.218C44.6068 106.075 37.8406 107.46 32.73 110.408C25.1444 114.792 23.3958 121.373 27.7292 126.601C24.004 121.246 25.8962 114.894 33.4058 110.56Z" fill="#787878"/>
<path d="M68.0059 110.408C65.421 108.913 62.3969 107.832 59.187 107.131C62.0759 107.832 64.779 108.854 67.1358 110.214C76.8755 115.84 76.8755 124.954 67.1358 130.58C59.981 134.711 49.574 135.792 40.6875 133.858C49.7598 136.063 60.623 135.04 68.0059 130.775C77.7456 125.149 77.7456 116.034 68.0059 110.408Z" fill="#787878"/>
<path d="M50.2486 129.787C59.0519 129.787 66.1885 125.668 66.1885 120.588C66.1885 115.507 59.0519 111.388 50.2486 111.388C41.4452 111.388 34.3086 115.507 34.3086 120.588C34.3086 125.668 41.4452 129.787 50.2486 129.787Z" fill="#50ACE9"/>
<path d="M38.9791 119.016C45.2047 115.426 55.2907 115.426 61.5163 119.016C63.5267 120.182 64.8867 121.576 65.5963 123.054C67.083 119.962 65.7315 116.516 61.5163 114.083C55.2907 110.493 45.2047 110.493 38.9791 114.083C34.7723 116.516 33.4208 119.962 34.899 123.054C35.6086 121.576 36.9602 120.173 38.9791 119.016Z" fill="#18D0F7"/>
<path d="M38.9816 117.276C45.2072 113.686 55.2932 113.686 61.5189 117.276C63.9263 118.661 65.3877 120.393 65.9368 122.184C66.8068 119.329 65.337 116.288 61.5189 114.083C55.2932 110.493 45.2072 110.493 38.9816 114.083C35.1635 116.288 33.7021 119.329 34.5637 122.184C35.1128 120.385 36.5741 118.661 38.9816 117.276Z" fill="#25BFEC"/>
<path d="M38.9815 115.722C45.2071 112.132 55.2932 112.132 61.5188 115.722C64.2726 117.31 65.8015 119.337 66.1225 121.407C66.528 118.788 64.999 116.085 61.5188 114.083C55.2932 110.493 45.2071 110.493 38.9815 114.083C35.5097 116.085 33.9807 118.788 34.3778 121.407C34.6988 119.329 36.2277 117.31 38.9815 115.722Z" fill="#267FE5"/>
<path d="M63.2745 109.471C62.7676 109.294 62.1172 109.387 61.8047 109.674C61.4921 109.961 61.6526 110.341 62.151 110.527C62.6578 110.704 63.3083 110.611 63.6208 110.324C63.9334 110.029 63.7729 109.648 63.2745 109.471Z" fill="#163572"/>
<path opacity="0.8" d="M66.7957 111.177C66.3734 110.949 65.706 110.966 65.309 111.211C64.912 111.456 64.9373 111.844 65.3682 112.072C65.7905 112.301 66.4579 112.284 66.8549 112.039C67.2435 111.785 67.2181 111.405 66.7957 111.177Z" fill="#163572"/>
<path opacity="0.6" d="M69.6866 113.238C69.3487 112.968 68.6898 112.909 68.2167 113.103C67.7437 113.297 67.6423 113.677 67.9802 113.948C68.3181 114.218 68.977 114.277 69.4501 114.083C69.9146 113.889 70.0245 113.517 69.6866 113.238Z" fill="#163572"/>
<path opacity="0.4" d="M71.8146 115.595C71.5697 115.29 70.953 115.155 70.4208 115.299C69.8971 115.443 69.6606 115.797 69.9055 116.101C70.1505 116.405 70.7672 116.541 71.2993 116.397C71.8231 116.253 72.0596 115.899 71.8146 115.595Z" fill="#163572"/>
<path opacity="0.2" d="M73.1164 118.138C72.9813 117.809 72.4153 117.614 71.8493 117.69C71.2834 117.766 70.937 118.096 71.0722 118.425C71.2073 118.755 71.7733 118.949 72.3393 118.873C72.9052 118.788 73.2516 118.459 73.1164 118.138Z" fill="#163572"/>
<path opacity="0.1" d="M73.4282 121.069C73.6816 120.765 73.4705 120.402 72.9467 120.258C72.423 120.115 71.7979 120.233 71.5445 120.537C71.2911 120.841 71.5023 121.204 72.026 121.348C72.5413 121.491 73.1748 121.373 73.4282 121.069Z" fill="#163572"/>
<path d="M75.3029 111.193V103.05H70.8849C70.0402 102.34 69.0857 101.665 67.996 101.031C58.2563 95.4053 42.4684 95.4053 32.7287 101.031C31.639 101.665 30.6845 102.34 29.8398 103.05H25.4219V111.21C25.4219 114.893 27.8547 118.576 32.7287 121.389C42.4684 127.015 58.2563 127.015 67.996 121.389C72.8785 118.576 75.3113 114.885 75.3029 111.193Z" fill="url(#paint3_linear_324_8933)"/>
<path d="M25.6578 110.999V103.05H25.4297V111.21C25.4297 114.505 27.3979 117.799 31.3005 120.477C27.5415 117.698 25.6578 114.344 25.6578 110.999Z" fill="#787878"/>
<path d="M74.9132 103.05V110.94C74.9217 114.631 72.4889 118.323 67.6064 121.136C57.8667 126.762 42.0788 126.762 32.3391 121.136C31.8407 120.849 31.393 120.553 30.9453 120.249C31.5028 120.646 32.0941 121.034 32.7361 121.398C42.4758 127.024 58.2637 127.024 68.0034 121.398C72.8774 118.585 75.3102 114.893 75.3102 111.202V103.05H74.9132Z" fill="#787878"/>
<path d="M50.366 117.444C64.1379 117.444 75.3022 111 75.3022 103.05C75.3022 95.1006 64.1379 88.6561 50.366 88.6561C36.594 88.6561 25.4297 95.1006 25.4297 103.05C25.4297 111 36.594 117.444 50.366 117.444Z" fill="url(#paint4_linear_324_8933)"/>
<path d="M33.4058 93.0152C38.3559 90.16 44.818 88.7156 51.297 88.6733C44.6068 88.5297 37.8406 89.9151 32.73 92.8632C25.1444 97.2473 23.3958 103.828 27.7292 109.057C24.004 103.709 25.8962 97.3571 33.4058 93.0152Z" fill="#787878"/>
<path d="M68.0059 92.8634C65.421 91.3682 62.3969 90.287 59.187 89.5859C62.0759 90.287 64.779 91.3091 67.1358 92.6691C76.8755 98.295 76.8755 107.41 67.1358 113.035C59.981 117.166 49.574 118.247 40.6875 116.313C49.7598 118.518 60.623 117.496 68.0059 113.23C77.7456 107.604 77.7456 98.4893 68.0059 92.8634Z" fill="#787878"/>
<path d="M61.519 109.554C55.2933 113.144 45.2073 113.144 38.9817 109.554C32.7561 105.963 32.7561 100.135 38.9817 96.5448C45.2073 92.9547 55.2933 92.9547 61.519 96.5448C67.7446 100.135 67.7446 105.955 61.519 109.554Z" fill="#72B8ED"/>
<path d="M38.983 101.47C45.2086 97.8799 55.2946 97.8799 61.5202 101.47C63.5306 102.636 64.8906 104.029 65.6002 105.508C67.0869 102.416 65.7354 98.9695 61.5202 96.5367C55.2946 92.9467 45.2086 92.9467 38.983 96.5367C34.7762 98.9695 33.4247 102.416 34.9029 105.508C35.6125 104.029 36.9641 102.636 38.983 101.47Z" fill="#72B8ED"/>
<path d="M38.9816 99.7298C45.2072 96.1397 55.2932 96.1397 61.5189 99.7298C63.9263 101.115 65.3877 102.847 65.9368 104.638C66.8068 101.782 65.337 98.7415 61.5189 96.5367C55.2932 92.9467 45.2072 92.9467 38.9816 96.5367C35.1635 98.7415 33.7021 101.782 34.5637 104.638C35.1128 102.838 36.5741 101.115 38.9816 99.7298Z" fill="#72B8ED"/>
<path d="M38.9815 98.1755C45.2071 94.5854 55.2932 94.5854 61.5188 98.1755C64.2726 99.7636 65.8015 101.791 66.1225 103.861C66.528 101.242 64.999 98.5387 61.5188 96.5367C55.2932 92.9467 45.2071 92.9467 38.9815 96.5367C35.5097 98.5387 33.9807 101.242 34.3778 103.861C34.6988 101.791 36.2277 99.7636 38.9815 98.1755Z" fill="#72B8ED"/>
<path d="M63.2745 91.9257C62.7676 91.7483 62.1172 91.8412 61.8047 92.1284C61.4921 92.4157 61.6526 92.7958 62.151 92.9816C62.6578 93.159 63.3083 93.0661 63.6208 92.7789C63.9334 92.4832 63.7729 92.1031 63.2745 91.9257Z" fill="#163572"/>
<path opacity="0.8" d="M66.7957 93.6319C66.3734 93.4039 65.706 93.4207 65.309 93.6657C64.912 93.9107 64.9373 94.2993 65.3682 94.5273C65.7905 94.7554 66.4579 94.7385 66.8549 94.4935C67.2435 94.2486 67.2181 93.86 66.7957 93.6319Z" fill="#163572"/>
<path opacity="0.6" d="M69.6866 95.7021C69.3487 95.4318 68.6898 95.3727 68.2167 95.5669C67.7437 95.7612 67.6423 96.1414 67.9802 96.4117C68.3181 96.682 68.977 96.7411 69.4501 96.5468C69.9146 96.3525 70.0245 95.9724 69.6866 95.7021Z" fill="#163572"/>
<path opacity="0.4" d="M71.8146 98.0505C71.5697 97.7464 70.953 97.6112 70.4208 97.7548C69.8971 97.8984 69.6606 98.2532 69.9055 98.5573C70.1505 98.8614 70.7672 98.9966 71.2993 98.853C71.8231 98.7178 72.0596 98.3546 71.8146 98.0505Z" fill="#163572"/>
<path opacity="0.2" d="M73.1164 100.593C72.9813 100.264 72.4153 100.069 71.8493 100.145C71.2834 100.221 70.937 100.551 71.0722 100.88C71.2073 101.21 71.7733 101.404 72.3393 101.328C72.9052 101.252 73.2516 100.922 73.1164 100.593Z" fill="#163572"/>
<path opacity="0.1" d="M73.4282 103.524C73.6816 103.22 73.4705 102.857 72.9467 102.713C72.423 102.569 71.7979 102.688 71.5445 102.992C71.2911 103.296 71.5023 103.659 72.026 103.803C72.5413 103.955 73.1748 103.828 73.4282 103.524Z" fill="#163572"/>
<path d="M75.3029 93.6579V85.5063H70.8849C70.0402 84.7967 69.0857 84.1209 67.996 83.4874C58.2563 77.8615 42.4684 77.8615 32.7287 83.4874C31.639 84.1209 30.6845 84.7967 29.8398 85.5063H25.4219V93.6663C25.4219 97.3493 27.8547 101.032 32.7287 103.845C42.4684 109.471 58.2563 109.471 67.996 103.845C72.8785 101.032 75.3113 97.3493 75.3029 93.6579Z" fill="url(#paint5_linear_324_8933)"/>
<path d="M25.6578 93.4543V85.5054H25.4297V93.6655C25.4297 96.9599 27.3979 100.254 31.3005 102.932C27.5415 100.153 25.6578 96.8078 25.6578 93.4543Z" fill="#787878"/>
<path d="M74.9132 85.5054V93.3952C74.9217 97.0866 72.4889 100.778 67.6064 103.591C57.8667 109.217 42.0788 109.217 32.3391 103.591C31.8407 103.304 31.393 103.008 30.9453 102.704C31.5028 103.101 32.0941 103.49 32.7361 103.853C42.4758 109.479 58.2637 109.479 68.0034 103.853C72.8774 101.04 75.3102 97.3485 75.3102 93.657V85.5054H74.9132Z" fill="#787878"/>
<path d="M50.366 99.9084C64.1379 99.9084 75.3022 93.4601 75.3022 85.5058C75.3022 77.5515 64.1379 71.1032 50.366 71.1032C36.594 71.1032 25.4297 77.5515 25.4297 85.5058C25.4297 93.4601 36.594 99.9084 50.366 99.9084Z" fill="url(#paint6_linear_324_8933)"/>
<path d="M33.4058 75.4704C38.3559 72.6152 44.818 71.1708 51.297 71.1285C44.6068 70.9849 37.8406 72.3703 32.73 75.3183C25.1444 79.7025 23.3958 86.2829 27.7292 91.5117C24.004 86.1646 25.8962 79.8123 33.4058 75.4704Z" fill="#787878"/>
<path d="M68.0059 75.3267C65.421 73.8315 62.3969 72.7503 59.187 72.0492C62.0759 72.7503 64.779 73.7724 67.1358 75.1324C76.8755 80.7583 76.8755 89.8728 67.1358 95.4987C59.981 99.6294 49.574 100.711 40.6875 98.7762C49.7598 100.981 60.623 99.9589 68.0059 95.693C77.7456 90.0671 77.7456 80.9526 68.0059 75.3267Z" fill="#787878"/>
<path d="M50.2486 94.7053C59.0519 94.7053 66.1885 90.5867 66.1885 85.5062C66.1885 80.4257 59.0519 76.3072 50.2486 76.3072C41.4452 76.3072 34.3086 80.4257 34.3086 85.5062C34.3086 90.5867 41.4452 94.7053 50.2486 94.7053Z" fill="#72B8ED"/>
<path d="M38.9791 83.935C45.2047 80.3449 55.2907 80.3449 61.5163 83.935C63.5267 85.1007 64.8867 86.4945 65.5963 87.9727C67.083 84.881 65.7315 81.4346 61.5163 79.0018C55.2907 75.4117 45.2047 75.4117 38.9791 79.0018C34.7723 81.4346 33.4208 84.881 34.899 87.9727C35.6086 86.4945 36.9602 85.0922 38.9791 83.935Z" fill="#18D0F7"/>
<path d="M38.9816 82.1867C45.2072 78.5967 55.2932 78.5967 61.5189 82.1867C63.9263 83.5721 65.3877 85.3038 65.9368 87.0946C66.8068 84.2394 65.337 81.1984 61.5189 78.9937C55.2932 75.4036 45.2072 75.4036 38.9816 78.9937C35.1635 81.1984 33.7021 84.2394 34.5637 87.0946C35.1128 85.3038 36.5741 83.5805 38.9816 82.1867Z" fill="#25BFEC"/>
<path d="M38.9815 80.6405C45.2071 77.0505 55.2932 77.0505 61.5188 80.6405C64.2726 82.2286 65.8015 84.2559 66.1225 86.3255C66.528 83.7069 64.999 81.0038 61.5188 79.0018C55.2932 75.4117 45.2071 75.4117 38.9815 79.0018C35.5097 81.0038 33.9807 83.7069 34.3778 86.3255C34.6988 84.2475 36.2277 82.2286 38.9815 80.6405Z" fill="#267FE5"/>
<path d="M63.2745 74.389C62.7676 74.2116 62.1172 74.3045 61.8047 74.5917C61.4921 74.8789 61.6526 75.2591 62.151 75.4449C62.6578 75.6223 63.3083 75.5294 63.6208 75.2422C63.9334 74.9465 63.7729 74.5664 63.2745 74.389Z" fill="#163572"/>
<path d="M66.7957 76.0952C66.3734 75.8671 65.706 75.884 65.309 76.129C64.912 76.374 64.9373 76.7625 65.3682 76.9906C65.7905 77.2187 66.4579 77.2018 66.8549 76.9568C67.2435 76.7034 67.2181 76.3233 66.7957 76.0952Z" fill="#163572"/>
<path d="M69.6866 78.1563C69.3487 77.886 68.6898 77.8268 68.2167 78.0211C67.7437 78.2154 67.6423 78.5955 67.9802 78.8659C68.3181 79.1362 68.977 79.1953 69.4501 79.001C69.9146 78.8067 70.0245 78.4266 69.6866 78.1563Z" fill="#163572"/>
<path d="M71.8146 80.5128C71.5697 80.2087 70.953 80.0735 70.4208 80.2171C69.8971 80.3607 69.6606 80.7155 69.9055 81.0196C70.1505 81.3237 70.7672 81.4588 71.2993 81.3152C71.8231 81.1716 72.0596 80.8169 71.8146 80.5128Z" fill="#163572"/>
<path d="M73.1164 83.0562C72.9813 82.7268 72.4153 82.5325 71.8493 82.6085C71.2834 82.6846 70.937 83.014 71.0722 83.3434C71.2073 83.6729 71.7733 83.8672 72.3393 83.7911C72.9052 83.7067 73.2516 83.3772 73.1164 83.0562Z" fill="#163572"/>
<path d="M73.4282 85.9873C73.6816 85.6832 73.4705 85.3199 72.9467 85.1763C72.423 85.0327 71.7979 85.151 71.5445 85.4551C71.2911 85.7592 71.5023 86.1224 72.026 86.266C72.5413 86.4096 73.1748 86.2829 73.4282 85.9873Z" fill="#163572"/>
<path d="M75.3029 76.113V67.9614H70.8849C70.0402 67.2518 69.0857 66.576 67.996 65.9425C58.2563 60.3166 42.4684 60.3166 32.7287 65.9425C31.639 66.576 30.6845 67.2518 29.8398 67.9614H25.4219V76.1214C25.4219 79.8044 27.8547 83.4874 32.7287 86.3003C42.4684 91.9262 58.2563 91.9262 67.996 86.3003C72.8785 83.4958 75.3113 79.8044 75.3029 76.113Z" fill="url(#paint7_linear_324_8933)"/>
<path d="M25.6578 75.9185V67.9696H25.4297V76.1297C25.4297 79.4241 27.3979 82.7185 31.3005 85.3963C27.5415 82.6172 25.6578 79.2636 25.6578 75.9185Z" fill="#787878"/>
<path d="M74.9132 67.9696V75.8594C74.9217 79.5508 72.4889 83.2423 67.6064 86.0552C57.8667 91.6811 42.0788 91.6811 32.3391 86.0552C31.8407 85.768 31.393 85.4723 30.9453 85.1682C31.5028 85.5652 32.0941 85.9538 32.7361 86.3171C42.4758 91.9429 58.2637 91.9429 68.0034 86.3171C72.8774 83.5041 75.3102 79.8127 75.3102 76.1212V67.9696H74.9132Z" fill="#787878"/>
<path d="M50.366 82.3637C64.1379 82.3637 75.3022 75.9193 75.3022 67.9696C75.3022 60.02 64.1379 53.5755 50.366 53.5755C36.594 53.5755 25.4297 60.02 25.4297 67.9696C25.4297 75.9193 36.594 82.3637 50.366 82.3637Z" fill="url(#paint8_linear_324_8933)"/>
<path d="M33.4058 57.9346C38.3559 55.0794 44.818 53.635 51.297 53.5927C44.6068 53.4491 37.8406 54.8345 32.73 57.7826C25.1444 62.1667 23.3958 68.7471 27.7292 73.9759C24.004 68.6288 25.8962 62.268 33.4058 57.9346Z" fill="#787878"/>
<path d="M68.0059 57.7828C65.421 56.2877 62.3969 55.2064 59.187 54.5053C62.0759 55.2064 64.779 56.2285 67.1358 57.5885C76.8755 63.2144 76.8755 72.329 67.1358 77.9548C59.981 82.0855 49.574 83.1668 40.6875 81.2324C49.7598 83.4371 60.623 82.415 68.0059 78.1491C77.7456 72.5233 77.7456 63.4087 68.0059 57.7828Z" fill="#787878"/>
<path d="M61.519 74.4747C55.2933 78.0648 45.2073 78.0648 38.9817 74.4747C32.7561 70.8846 32.7561 65.056 38.9817 61.466C45.2073 57.8759 55.2933 57.8759 61.519 61.466C67.7446 65.056 67.7446 70.8762 61.519 74.4747Z" fill="#72B8ED"/>
<path d="M38.983 66.3901C45.2086 62.8 55.2946 62.8 61.5202 66.3901C63.5306 67.5558 64.8906 68.9496 65.6002 70.4279C67.0869 67.3362 65.7354 63.8897 61.5202 61.4569C55.2946 57.8668 45.2086 57.8668 38.983 61.4569C34.7762 63.8897 33.4247 67.3362 34.9029 70.4279C35.6125 68.9496 36.9641 67.5558 38.983 66.3901Z" fill="#18D0F7"/>
<path d="M38.9816 64.6499C45.2072 61.0599 55.2932 61.0599 61.5189 64.6499C63.9263 66.0353 65.3877 67.767 65.9368 69.5578C66.8068 66.7026 65.337 63.6616 61.5189 61.4569C55.2932 57.8668 45.2072 57.8668 38.9816 61.4569C35.1635 63.6616 33.7021 66.7026 34.5637 69.5578C35.1128 67.7585 36.5741 66.0353 38.9816 64.6499Z" fill="#25BFEC"/>
<path d="M38.9815 63.0956C45.2071 59.5056 55.2932 59.5056 61.5188 63.0956C64.2726 64.6837 65.8015 66.7111 66.1225 68.7806C66.528 66.162 64.999 63.4589 61.5188 61.4569C55.2932 57.8668 45.2071 57.8668 38.9815 61.4569C35.5097 63.4589 33.9807 66.162 34.3778 68.7806C34.6988 66.7111 36.2277 64.6837 38.9815 63.0956Z" fill="#267FE5"/>
<path d="M63.2745 56.8451C62.7676 56.6677 62.1172 56.7606 61.8047 57.0478C61.4921 57.335 61.6526 57.7152 62.151 57.901C62.6578 58.0784 63.3083 57.9855 63.6208 57.6983C63.9334 57.4026 63.7729 57.0225 63.2745 56.8451Z" fill="#163572"/>
<path opacity="0.8" d="M66.7957 58.5511C66.3734 58.323 65.706 58.3399 65.309 58.5849C64.912 58.8298 64.9373 59.2184 65.3682 59.4465C65.7905 59.6746 66.4579 59.6577 66.8549 59.4127C67.2435 59.1677 67.2181 58.7792 66.7957 58.5511Z" fill="#163572"/>
<path opacity="0.6" d="M69.6866 60.6213C69.3487 60.3509 68.6898 60.2918 68.2167 60.4861C67.7437 60.6804 67.6423 61.0605 67.9802 61.3308C68.3181 61.6011 68.977 61.6603 69.4501 61.466C69.9146 61.2717 70.0245 60.8916 69.6866 60.6213Z" fill="#163572"/>
<path opacity="0.4" d="M71.8146 62.9696C71.5697 62.6655 70.953 62.5304 70.4208 62.674C69.8971 62.8176 69.6606 63.1724 69.9055 63.4765C70.1505 63.7806 70.7672 63.9157 71.2993 63.7721C71.8231 63.637 72.0596 63.2737 71.8146 62.9696Z" fill="#163572"/>
<path opacity="0.2" d="M73.1164 65.5121C72.9813 65.1827 72.4153 64.9884 71.8493 65.0644C71.2834 65.1404 70.937 65.4699 71.0722 65.7993C71.2073 66.1288 71.7733 66.323 72.3393 66.247C72.9052 66.171 73.2516 65.8416 73.1164 65.5121Z" fill="#163572"/>
<path opacity="0.1" d="M73.4282 68.4431C73.6816 68.139 73.4705 67.7758 72.9467 67.6322C72.423 67.4886 71.7979 67.6069 71.5445 67.911C71.2911 68.2151 71.5023 68.5783 72.026 68.7219C72.5413 68.8739 73.1748 68.7472 73.4282 68.4431Z" fill="#163572"/>
<path d="M75.3029 58.5751V50.4235H70.8849C70.0402 49.714 69.0857 49.0382 67.996 48.4046C58.2563 42.7788 42.4684 42.7788 32.7287 48.4046C31.639 49.0382 30.6845 49.714 29.8398 50.4235H25.4219V58.5836C25.4219 62.2666 27.8547 65.9496 32.7287 68.7625C42.4684 74.3884 58.2563 74.3884 67.996 68.7625C72.8785 65.9496 75.3113 62.2666 75.3029 58.5751Z" fill="url(#paint9_linear_324_8933)"/>
<path d="M25.6578 58.3726V50.4237H25.4297V58.5838C25.4297 61.8782 27.3979 65.1726 31.3005 67.8504C27.5415 65.0713 25.6578 61.7262 25.6578 58.3726Z" fill="#787878"/>
<path d="M74.9132 50.4233V58.3131C74.9217 62.0045 72.4889 65.696 67.6064 68.5089C57.8667 74.1348 42.0788 74.1348 32.3391 68.5089C31.8407 68.2217 31.393 67.926 30.9453 67.6219C31.5028 68.019 32.0941 68.4075 32.7361 68.7708C42.4758 74.3966 58.2637 74.3966 68.0034 68.7708C72.8774 65.9578 75.3102 62.2664 75.3102 58.5749V50.4233H74.9132Z" fill="#787878"/>
<path d="M68.0056 60.6022C58.2659 66.2281 42.478 66.2281 32.7383 60.6022C22.9987 54.9763 22.9987 45.8617 32.7383 40.2359C42.478 34.61 58.2659 34.61 68.0056 40.2359C77.7453 45.8617 77.7453 54.9848 68.0056 60.6022Z" fill="url(#paint10_linear_324_8933)"/>
<path d="M33.4058 40.3877C38.3559 37.5325 44.818 36.088 51.297 36.0458C44.6068 35.9022 37.8406 37.2875 32.73 40.2356C25.1444 44.6197 23.3958 51.2001 27.7292 56.429C24.004 51.0819 25.8962 44.7296 33.4058 40.3877Z" fill="#787878"/>
<path d="M68.0059 40.245C65.421 38.7498 62.3969 37.6686 59.187 36.9675C62.0759 37.6686 64.779 38.6907 67.1358 40.0507C76.8755 45.6766 76.8755 54.7912 67.1358 60.417C59.981 64.5477 49.574 65.629 40.6875 63.6946C49.7598 65.8993 60.623 64.8772 68.0059 60.6113C77.7456 54.9854 77.7456 45.8624 68.0059 40.245Z" fill="#787878"/>
<path d="M50.2486 59.6224C59.0519 59.6224 66.1885 55.5038 66.1885 50.4233C66.1885 45.3428 59.0519 41.2243 50.2486 41.2243C41.4452 41.2243 34.3086 45.3428 34.3086 50.4233C34.3086 55.5038 41.4452 59.6224 50.2486 59.6224Z" fill="#72B8ED"/>
<path d="M38.9791 48.8519C45.2047 45.2619 55.2907 45.2619 61.5163 48.8519C63.5267 50.0177 64.8867 51.4115 65.5963 52.8897C67.083 49.798 65.7315 46.3516 61.5163 43.9188C55.2907 40.3287 45.2047 40.3287 38.9791 43.9188C34.7723 46.3516 33.4208 49.798 34.899 52.8897C35.6086 51.4115 36.9602 50.0092 38.9791 48.8519Z" fill="#0094F9"/>
<path d="M38.9816 47.1037C45.2072 43.5136 55.2932 43.5136 61.5189 47.1037C63.9263 48.4891 65.3877 50.2208 65.9368 52.0116C66.8068 49.1564 65.337 46.1154 61.5189 43.9107C55.2932 40.3206 45.2072 40.3206 38.9816 43.9107C35.1635 46.1154 33.7021 49.1564 34.5637 52.0116C35.1128 50.2208 36.5741 48.4975 38.9816 47.1037Z" fill="#0094F9"/>
<path d="M38.9815 45.5575C45.2071 41.9674 55.2932 41.9674 61.5188 45.5575C64.2726 47.1456 65.8015 49.1729 66.1225 51.2425C66.528 48.6239 64.999 45.9208 61.5188 43.9188C55.2932 40.3287 45.2071 40.3287 38.9815 43.9188C35.5097 45.9208 33.9807 48.6239 34.3778 51.2425C34.6988 49.1645 36.2277 47.1456 38.9815 45.5575Z" fill="#0094F9"/>
<path d="M63.2745 39.3073C62.7676 39.1299 62.1172 39.2228 61.8047 39.51C61.4921 39.7972 61.6526 40.1773 62.151 40.3632C62.6578 40.5406 63.3083 40.4477 63.6208 40.1605C63.9334 39.8648 63.7729 39.4847 63.2745 39.3073Z" fill="#163572"/>
<path opacity="0.8" d="M66.7957 41.0132C66.3734 40.7852 65.706 40.8021 65.309 41.047C64.912 41.292 64.9373 41.6806 65.3682 41.9086C65.7905 42.1367 66.4579 42.1198 66.8549 41.8749C67.2435 41.6214 67.2181 41.2413 66.7957 41.0132Z" fill="#163572"/>
<path opacity="0.6" d="M69.6866 43.0743C69.3487 42.804 68.6898 42.7449 68.2167 42.9392C67.7437 43.1335 67.6423 43.5136 67.9802 43.7839C68.3181 44.0542 68.977 44.1133 69.4501 43.919C69.9146 43.7248 70.0245 43.3446 69.6866 43.0743Z" fill="#163572"/>
<path opacity="0.4" d="M71.8146 45.4227C71.5697 45.1186 70.953 44.9834 70.4208 45.127C69.8971 45.2706 69.6606 45.6254 69.9055 45.9295C70.1505 46.2336 70.7672 46.3688 71.2993 46.2252C71.8231 46.09 72.0596 45.7352 71.8146 45.4227Z" fill="#163572"/>
<path opacity="0.2" d="M73.1164 47.9743C72.9813 47.6448 72.4153 47.4505 71.8493 47.5266C71.2834 47.6026 70.937 47.932 71.0722 48.2615C71.2073 48.5909 71.7733 48.7852 72.3393 48.7092C72.9052 48.6247 73.2516 48.2953 73.1164 47.9743Z" fill="#163572"/>
<path opacity="0.1" d="M73.4282 50.9053C73.6816 50.6012 73.4705 50.238 72.9467 50.0944C72.423 49.9508 71.7979 50.069 71.5445 50.3731C71.2911 50.6772 71.5023 51.0405 72.026 51.1841C72.5413 51.3277 73.1748 51.201 73.4282 50.9053Z" fill="#163572"/>
<path d="M50.7229 70.3514C51.586 70.3514 52.2856 69.6518 52.2856 68.7887C52.2856 67.9256 51.586 67.226 50.7229 67.226C49.8598 67.226 49.1602 67.9256 49.1602 68.7887C49.1602 69.6518 49.8598 70.3514 50.7229 70.3514Z" fill="url(#paint11_radial_324_8933)"/>
<path d="M50.7235 69.769C49.9548 69.769 49.3213 69.2199 49.1861 68.4935C49.1692 68.5864 49.1523 68.6878 49.1523 68.7891C49.1523 69.6507 49.8535 70.3519 50.7151 70.3519C51.5767 70.3519 52.2778 69.6507 52.2778 68.7891C52.2778 68.6878 52.2694 68.5948 52.244 68.4935C52.1258 69.2199 51.4922 69.769 50.7235 69.769Z" fill="url(#paint12_radial_324_8933)"/>
<path d="M50.7229 87.8875C51.586 87.8875 52.2856 87.1879 52.2856 86.3248C52.2856 85.4617 51.586 84.7621 50.7229 84.7621C49.8598 84.7621 49.1602 85.4617 49.1602 86.3248C49.1602 87.1879 49.8598 87.8875 50.7229 87.8875Z" fill="url(#paint13_radial_324_8933)"/>
<path d="M50.7235 87.3051C49.9548 87.3051 49.3213 86.756 49.1861 86.0295C49.1692 86.1225 49.1523 86.2238 49.1523 86.3252C49.1523 87.1868 49.8535 87.8879 50.7151 87.8879C51.5767 87.8879 52.2778 87.1868 52.2778 86.3252C52.2778 86.2238 52.2694 86.1309 52.244 86.0295C52.1258 86.756 51.4922 87.3051 50.7235 87.3051Z" fill="url(#paint14_radial_324_8933)"/>
<path d="M50.7229 105.433C51.586 105.433 52.2856 104.734 52.2856 103.87C52.2856 103.007 51.586 102.308 50.7229 102.308C49.8598 102.308 49.1602 103.007 49.1602 103.87C49.1602 104.734 49.8598 105.433 50.7229 105.433Z" fill="url(#paint15_radial_324_8933)"/>
<path d="M50.7235 104.851C49.9548 104.851 49.3213 104.302 49.1861 103.575C49.1692 103.668 49.1523 103.769 49.1523 103.871C49.1523 104.732 49.8535 105.433 50.7151 105.433C51.5767 105.433 52.2778 104.732 52.2778 103.871C52.2778 103.769 52.2694 103.676 52.244 103.575C52.1258 104.302 51.4922 104.851 50.7235 104.851Z" fill="url(#paint16_radial_324_8933)"/>
<path d="M50.7229 122.969C51.586 122.969 52.2856 122.27 52.2856 121.407C52.2856 120.543 51.586 119.844 50.7229 119.844C49.8598 119.844 49.1602 120.543 49.1602 121.407C49.1602 122.27 49.8598 122.969 50.7229 122.969Z" fill="url(#paint17_radial_324_8933)"/>
<path d="M50.7235 122.387C49.9548 122.387 49.3213 121.838 49.1861 121.111C49.1692 121.204 49.1523 121.305 49.1523 121.407C49.1523 122.268 49.8535 122.97 50.7151 122.97C51.5767 122.97 52.2778 122.268 52.2778 121.407C52.2778 121.305 52.2694 121.212 52.244 121.111C52.1258 121.838 51.4922 122.387 50.7235 122.387Z" fill="url(#paint18_radial_324_8933)"/>
<path d="M50.7229 140.514C51.586 140.514 52.2856 139.814 52.2856 138.951C52.2856 138.088 51.586 137.388 50.7229 137.388C49.8598 137.388 49.1602 138.088 49.1602 138.951C49.1602 139.814 49.8598 140.514 50.7229 140.514Z" fill="url(#paint19_radial_324_8933)"/>
<path d="M50.7235 139.931C49.9548 139.931 49.3213 139.382 49.1861 138.656C49.1692 138.749 49.1523 138.85 49.1523 138.951C49.1523 139.813 49.8535 140.514 50.7151 140.514C51.5767 140.514 52.2778 139.813 52.2778 138.951C52.2778 138.85 52.2694 138.757 52.244 138.656C52.1258 139.382 51.4922 139.931 50.7235 139.931Z" fill="url(#paint20_radial_324_8933)"/>
<path opacity="0.3" d="M184.563 226.828C183.152 226.828 181.733 226.507 180.635 225.874L140.933 202.914C140.392 202.602 140.206 201.909 140.519 201.368C140.831 200.828 141.533 200.642 142.065 200.954L181.767 223.914C183.279 224.793 185.838 224.793 187.359 223.914L312.902 151.935C313.417 151.639 313.721 151.276 313.721 150.98C313.721 150.676 313.409 150.322 312.893 150.026L273.191 127.066C272.651 126.754 272.465 126.061 272.777 125.521C273.09 124.98 273.783 124.794 274.323 125.107L314.025 148.066C315.267 148.784 315.985 149.849 315.985 150.989C315.985 152.129 315.267 153.194 314.025 153.912L188.482 225.891C187.393 226.516 185.982 226.828 184.563 226.828Z" fill="#6EE8FC"/>
<path d="M184.561 225.925C183.302 225.925 182.043 225.646 181.089 225.097L141.387 202.137L141.615 201.749L181.317 224.708C183.108 225.747 186.022 225.747 187.813 224.708L313.356 152.738C314.184 152.265 314.631 151.64 314.631 150.989C314.631 150.339 314.175 149.722 313.356 149.241L273.654 126.281L273.882 125.892L313.584 148.852C314.555 149.41 315.087 150.17 315.087 150.989C315.087 151.809 314.555 152.569 313.584 153.126L188.041 225.097C187.078 225.646 185.819 225.925 184.561 225.925Z" fill="#2F66F6"/>
<path d="M279.05 129.136C278.772 129.626 278.146 129.786 277.657 129.508C277.167 129.229 277.006 128.604 277.285 128.114C277.564 127.624 278.189 127.463 278.679 127.742C279.169 128.029 279.329 128.654 279.05 129.136Z" fill="#787878"/>
<path d="M284.339 132.194C284.061 132.684 283.436 132.844 282.946 132.565C282.456 132.287 282.295 131.661 282.574 131.172C282.853 130.682 283.478 130.521 283.968 130.8C284.458 131.087 284.618 131.712 284.339 132.194Z" fill="#787878"/>
<path d="M289.628 135.252C289.35 135.742 288.725 135.902 288.235 135.624C287.745 135.345 287.584 134.72 287.863 134.23C288.142 133.74 288.767 133.58 289.257 133.858C289.747 134.145 289.907 134.771 289.628 135.252Z" fill="#787878"/>
<path d="M294.914 138.309C294.635 138.799 294.01 138.959 293.52 138.681C293.03 138.402 292.869 137.777 293.148 137.287C293.427 136.797 294.052 136.636 294.542 136.915C295.032 137.202 295.192 137.827 294.914 138.309Z" fill="#787878"/>
<path d="M300.203 141.367C299.924 141.857 299.299 142.018 298.809 141.739C298.319 141.46 298.158 140.835 298.437 140.345C298.716 139.855 299.341 139.695 299.831 139.973C300.321 140.261 300.481 140.886 300.203 141.367Z" fill="#787878"/>
<path d="M305.492 144.425C305.213 144.915 304.588 145.075 304.098 144.797C303.608 144.518 303.447 143.893 303.726 143.403C304.005 142.913 304.63 142.752 305.12 143.031C305.61 143.318 305.771 143.944 305.492 144.425Z" fill="#787878"/>
<path d="M310.781 147.483C310.502 147.973 309.877 148.134 309.387 147.855C308.897 147.576 308.737 146.951 309.015 146.461C309.294 145.971 309.919 145.811 310.409 146.09C310.899 146.377 311.06 147.002 310.781 147.483Z" fill="#787878"/>
<path d="M314.776 151.479C314.506 151.386 314.295 151.217 314.126 151.09C313.957 150.963 313.838 150.887 313.805 150.786C313.754 150.6 313.864 150.034 314.235 149.62C314.438 149.426 314.708 149.324 314.996 149.401C315.291 149.46 315.595 149.738 315.739 150.161C315.874 150.592 315.764 151.039 315.545 151.276C315.334 151.521 315.038 151.563 314.776 151.479Z" fill="#787878"/>
<path d="M309.892 154.968C309.613 154.478 309.782 153.862 310.272 153.575C310.762 153.296 311.379 153.465 311.666 153.955C311.945 154.445 311.776 155.061 311.286 155.349C310.796 155.627 310.171 155.458 309.892 154.968Z" fill="#787878"/>
<path d="M304.595 158.009C304.316 157.519 304.485 156.903 304.975 156.615C305.465 156.337 306.082 156.506 306.369 156.996C306.648 157.485 306.479 158.102 305.989 158.389C305.499 158.66 304.874 158.491 304.595 158.009Z" fill="#787878"/>
<path d="M299.291 161.041C299.012 160.551 299.181 159.934 299.671 159.647C300.161 159.368 300.777 159.537 301.064 160.027C301.343 160.517 301.174 161.134 300.684 161.421C300.194 161.7 299.578 161.531 299.291 161.041Z" fill="#787878"/>
<path d="M293.994 164.083C293.715 163.593 293.884 162.976 294.374 162.689C294.864 162.41 295.48 162.579 295.768 163.069C296.046 163.559 295.877 164.176 295.387 164.463C294.897 164.742 294.272 164.573 293.994 164.083Z" fill="#787878"/>
<path d="M288.697 167.124C288.418 166.634 288.587 166.017 289.077 165.73C289.567 165.451 290.183 165.62 290.471 166.11C290.749 166.6 290.581 167.216 290.091 167.504C289.592 167.774 288.976 167.605 288.697 167.124Z" fill="#787878"/>
<path d="M283.392 170.156C283.113 169.666 283.282 169.049 283.772 168.762C284.262 168.483 284.879 168.652 285.166 169.142C285.445 169.632 285.276 170.249 284.786 170.536C284.296 170.815 283.671 170.646 283.392 170.156Z" fill="#787878"/>
<path d="M278.095 173.197C277.816 172.707 277.985 172.09 278.475 171.803C278.965 171.524 279.582 171.693 279.869 172.183C280.148 172.673 279.979 173.289 279.489 173.577C278.999 173.855 278.374 173.687 278.095 173.197Z" fill="#787878"/>
<path d="M272.798 176.238C272.52 175.748 272.689 175.132 273.178 174.844C273.668 174.566 274.285 174.735 274.572 175.225C274.851 175.715 274.682 176.331 274.192 176.618C273.694 176.897 273.077 176.728 272.798 176.238Z" fill="#787878"/>
<path d="M267.494 179.27C267.215 178.78 267.384 178.163 267.874 177.876C268.364 177.598 268.98 177.766 269.268 178.256C269.546 178.746 269.377 179.363 268.887 179.65C268.397 179.929 267.772 179.76 267.494 179.27Z" fill="#787878"/>
<path d="M262.197 182.311C261.918 181.821 262.087 181.204 262.577 180.917C263.067 180.638 263.684 180.807 263.971 181.297C264.249 181.787 264.081 182.404 263.591 182.691C263.101 182.97 262.476 182.801 262.197 182.311Z" fill="#787878"/>
<path d="M256.904 185.353C256.625 184.863 256.794 184.246 257.284 183.959C257.774 183.68 258.391 183.849 258.678 184.339C258.956 184.829 258.788 185.446 258.298 185.733C257.799 186.012 257.183 185.843 256.904 185.353Z" fill="#787878"/>
<path d="M251.599 188.385C251.32 187.895 251.489 187.278 251.979 186.991C252.469 186.712 253.086 186.881 253.373 187.371C253.652 187.861 253.483 188.478 252.993 188.765C252.503 189.044 251.878 188.875 251.599 188.385Z" fill="#787878"/>
<path d="M246.302 191.426C246.023 190.936 246.192 190.319 246.682 190.032C247.172 189.753 247.789 189.922 248.076 190.412C248.355 190.902 248.186 191.519 247.696 191.806C247.206 192.085 246.581 191.916 246.302 191.426Z" fill="#787878"/>
<path d="M240.998 194.467C240.719 193.977 240.888 193.36 241.378 193.073C241.868 192.794 242.484 192.963 242.771 193.453C243.05 193.943 242.881 194.56 242.391 194.847C241.901 195.126 241.285 194.957 240.998 194.467Z" fill="#787878"/>
<path d="M235.701 197.508C235.422 197.018 235.591 196.401 236.081 196.114C236.571 195.835 237.187 196.004 237.475 196.494C237.753 196.984 237.584 197.6 237.094 197.888C236.605 198.158 235.979 197.989 235.701 197.508Z" fill="#787878"/>
<path d="M230.404 200.54C230.125 200.05 230.294 199.433 230.784 199.146C231.274 198.867 231.891 199.036 232.178 199.526C232.456 200.016 232.288 200.633 231.798 200.92C231.299 201.199 230.683 201.03 230.404 200.54Z" fill="#787878"/>
<path d="M225.099 203.581C224.82 203.091 224.989 202.474 225.479 202.187C225.969 201.908 226.586 202.077 226.873 202.567C227.152 203.057 226.983 203.674 226.493 203.961C226.003 204.24 225.378 204.071 225.099 203.581Z" fill="#787878"/>
<path d="M219.802 206.623C219.523 206.133 219.692 205.516 220.182 205.229C220.672 204.95 221.289 205.119 221.576 205.609C221.855 206.099 221.686 206.716 221.196 207.003C220.706 207.273 220.081 207.104 219.802 206.623Z" fill="#787878"/>
<path d="M214.505 209.655C214.227 209.165 214.396 208.548 214.886 208.261C215.375 207.982 215.992 208.151 216.279 208.641C216.558 209.131 216.389 209.748 215.899 210.035C215.401 210.314 214.784 210.145 214.505 209.655Z" fill="#787878"/>
<path d="M209.201 212.696C208.922 212.206 209.091 211.589 209.581 211.302C210.071 211.023 210.687 211.192 210.975 211.682C211.253 212.172 211.084 212.789 210.594 213.076C210.105 213.355 209.479 213.186 209.201 212.696Z" fill="#787878"/>
<path d="M203.904 215.737C203.625 215.247 203.794 214.63 204.284 214.343C204.774 214.064 205.391 214.233 205.678 214.723C205.956 215.213 205.788 215.83 205.298 216.117C204.808 216.387 204.183 216.218 203.904 215.737Z" fill="#787878"/>
<path d="M198.607 218.769C198.328 218.279 198.497 217.663 198.987 217.375C199.477 217.097 200.094 217.266 200.381 217.756C200.66 218.246 200.491 218.862 200.001 219.149C199.502 219.428 198.886 219.259 198.607 218.769Z" fill="#787878"/>
<path d="M193.302 221.811C193.023 221.321 193.192 220.704 193.682 220.417C194.172 220.139 194.789 220.307 195.076 220.797C195.355 221.287 195.186 221.904 194.696 222.191C194.206 222.47 193.581 222.301 193.302 221.811Z" fill="#787878"/>
<path d="M188.005 224.852C187.727 224.362 187.896 223.745 188.386 223.458C188.875 223.179 189.492 223.348 189.779 223.838C190.058 224.328 189.889 224.945 189.399 225.232C188.909 225.502 188.284 225.333 188.005 224.852Z" fill="#787878"/>
<path d="M182.085 225.291C182.288 224.767 182.795 224.471 183.259 224.556C183.724 224.649 184.096 225.113 184.079 225.679C184.062 226.237 183.521 226.676 182.879 226.55C182.229 226.44 181.882 225.815 182.085 225.291Z" fill="#787878"/>
<path d="M176.753 222.326C177.032 221.836 177.657 221.676 178.147 221.955C178.637 222.233 178.798 222.858 178.519 223.348C178.24 223.838 177.615 223.999 177.125 223.72C176.635 223.433 176.466 222.808 176.753 222.326Z" fill="#787878"/>
<path d="M171.468 219.268C171.747 218.778 172.372 218.617 172.862 218.896C173.352 219.175 173.513 219.8 173.234 220.29C172.955 220.78 172.33 220.94 171.84 220.662C171.35 220.374 171.181 219.749 171.468 219.268Z" fill="#787878"/>
<path d="M166.179 216.21C166.458 215.72 167.083 215.56 167.573 215.838C168.063 216.117 168.223 216.742 167.945 217.232C167.666 217.722 167.041 217.883 166.551 217.604C166.061 217.317 165.892 216.691 166.179 216.21Z" fill="#787878"/>
<path d="M160.89 213.153C161.169 212.663 161.794 212.502 162.284 212.781C162.774 213.06 162.934 213.685 162.656 214.175C162.377 214.665 161.752 214.825 161.262 214.546C160.772 214.259 160.603 213.634 160.89 213.153Z" fill="#787878"/>
<path d="M155.605 210.095C155.884 209.605 156.509 209.444 156.999 209.723C157.489 210.002 157.649 210.627 157.37 211.117C157.092 211.607 156.467 211.767 155.977 211.489C155.487 211.201 155.318 210.576 155.605 210.095Z" fill="#787878"/>
<path d="M150.316 207.036C150.595 206.546 151.22 206.386 151.71 206.665C152.2 206.943 152.36 207.568 152.081 208.058C151.803 208.548 151.178 208.709 150.688 208.43C150.198 208.143 150.029 207.518 150.316 207.036Z" fill="#787878"/>
<path d="M145.027 203.979C145.306 203.489 145.931 203.328 146.421 203.607C146.911 203.886 147.071 204.511 146.792 205.001C146.514 205.491 145.889 205.651 145.399 205.372C144.909 205.085 144.74 204.46 145.027 203.979Z" fill="#787878"/>
<path opacity="0.6" d="M117.451 236.154L26.1025 183.41C23.9231 182.151 24.2019 179.955 26.7107 178.502L212.457 71.2639C214.974 69.811 218.776 69.6505 220.955 70.9091L312.304 123.654C314.483 124.912 314.204 127.109 311.695 128.562L125.949 235.799C123.432 237.252 119.63 237.404 117.451 236.154Z" fill="#0C0F38" fill-opacity="0.5"/>
<path d="M313.774 104.353L309.119 107.149L220.955 56.2543C218.776 54.9956 214.975 55.1561 212.457 56.609L29.6336 162.157L24.6328 159.919V166.727C24.675 167.488 25.1565 168.206 26.0942 168.746L117.443 221.491C119.622 222.749 123.423 222.589 125.941 221.136L311.687 113.898C313.098 113.079 313.807 112.031 313.765 111.043V104.353H313.774Z" fill="url(#paint21_linear_324_8933)"/>
<path opacity="0.5" d="M29.6336 162.156L24.6328 159.918V166.726C24.675 167.486 25.1565 168.204 26.0942 168.745L26.2885 168.855C26.0182 168.5 25.8746 168.112 25.8492 167.715V160.906L30.85 163.145L37.9119 159.065C37.5909 158.684 37.2614 158.304 36.9151 157.941L29.6336 162.156Z" fill="#11183C"/>
<path opacity="0.5" d="M309.12 107.157L265.844 82.1696C265.405 82.4568 264.974 82.7356 264.535 83.0228L307.946 108.086L312.6 105.29V111.971C312.625 112.597 312.355 113.247 311.798 113.838C313.149 113.027 313.825 112.005 313.783 111.042V104.361L309.12 107.157Z" fill="#11183C"/>
<path d="M117.451 214.749L26.1025 162.005C23.9231 160.746 24.2019 158.55 26.7107 157.097L212.457 49.8592C214.974 48.4062 218.776 48.2457 220.955 49.5044L312.304 102.249C314.483 103.508 314.204 105.704 311.695 107.157L125.949 214.395C123.432 215.848 119.63 216.008 117.451 214.749Z" fill="url(#paint22_linear_324_8933)"/>
<path opacity="0.5" d="M118.717 214.749L27.3685 162.004C25.1891 160.746 25.4679 158.549 27.9767 157.096L213.723 49.8587C214.94 49.1576 216.452 48.769 217.938 48.6845C216.08 48.5578 214.019 48.9633 212.465 49.8587L26.7096 157.105C24.1924 158.558 23.9221 160.754 26.1014 162.013L117.45 214.757C118.573 215.408 120.136 215.67 121.733 215.585C120.601 215.501 119.545 215.222 118.717 214.749Z" fill="#11183C"/>
<path opacity="0.5" d="M312.303 102.249L220.954 49.504C219.831 48.8536 218.268 48.5917 216.68 48.6762C217.829 48.7522 218.901 49.0225 219.738 49.504L311.086 102.249C313.266 103.507 312.987 105.704 310.478 107.156L124.723 214.394C123.507 215.095 121.995 215.484 120.508 215.568C122.358 215.687 124.394 215.29 125.948 214.394L311.694 107.156C314.212 105.704 314.482 103.507 312.303 102.249Z" fill="#11183C"/>
<path d="M127.874 211.506L31.7188 155.99L209.407 53.3986L305.562 108.914L127.874 211.506Z" fill="url(#paint23_radial_324_8933)"/>
<path d="M137.691 192.466L64.707 150.323L199.593 72.4475L272.585 114.582L137.691 192.466Z" fill="#72B8ED"/>
<path d="M266.426 81.9836L256.061 75.9945C255.673 75.7664 255.715 75.3778 256.171 75.116C256.627 74.8541 257.303 74.8288 257.7 75.0568L268.065 81.0459C268.453 81.274 268.411 81.6626 267.955 81.9244C267.499 82.1863 266.815 82.2116 266.426 81.9836Z" fill="#0A0F29"/>
<path d="M112.434 89.9414C112.434 89.9414 116.894 40.677 126.448 46.2184C136.001 51.7514 131.389 80.3115 141.298 86.0387C151.054 91.673 145.741 4.47213 160.465 12.9701C171.032 19.0774 167.653 85.3038 177.089 90.7523C187.682 96.8681 184.649 71.9149 194.034 73.0469C199.423 73.6973 202.253 89.8991 209.889 93.5568C217.534 97.2144 213.885 27.0263 225.973 34.0037C238.205 41.0656 241.736 164.666 241.736 164.666L112.434 89.9414Z" fill="url(#paint24_linear_324_8933)"/>
<path d="M126.867 45.7538C126.867 46.8773 125.955 47.7811 124.84 47.7811C123.725 47.7811 122.812 46.8688 122.812 45.7538C122.812 44.6303 123.725 43.7264 124.84 43.7264C125.955 43.7264 126.867 44.6387 126.867 45.7538Z" fill="#787878"/>
<path d="M160.555 12.3875C160.555 13.511 159.642 14.4148 158.527 14.4148C157.412 14.4148 156.5 13.5025 156.5 12.3875C156.5 11.264 157.412 10.3601 158.527 10.3601C159.642 10.3601 160.555 11.264 160.555 12.3875Z" fill="#787878"/>
<path d="M195.789 72.8948C195.789 74.0183 194.877 74.9221 193.762 74.9221C192.638 74.9221 191.734 74.0098 191.734 72.8948C191.734 71.7713 192.647 70.8674 193.762 70.8674C194.885 70.859 195.789 71.7713 195.789 72.8948Z" fill="#787878"/>
<path d="M226.41 33.3112C226.41 34.4346 225.498 35.3385 224.383 35.3385C223.259 35.3385 222.355 34.4262 222.355 33.3112C222.355 32.1877 223.268 31.2838 224.383 31.2838C225.506 31.2838 226.41 32.1877 226.41 33.3112Z" fill="#787878"/>
<path opacity="0.8" d="M82.7734 104.58C82.7734 104.58 86.1017 55.6455 93.2311 59.7846C100.361 63.9238 96.9141 92.5683 104.314 96.8427C111.595 101.049 107.625 25.8182 118.624 32.1621C126.513 36.7152 123.988 61.8964 131.033 65.9595C138.939 70.521 137.571 58.0107 143.678 61.5332C149.777 65.0557 149.811 80.9872 155.513 83.5467C161.215 86.1062 158.495 29.1042 167.516 34.3077C176.648 39.5788 179.283 160.366 179.283 160.366L82.7734 104.58Z" fill="url(#paint25_linear_324_8933)"/>
<path d="M94.6758 59.5658C94.6758 60.6893 93.7635 61.5931 92.6484 61.5931C91.5249 61.5931 90.6211 60.6808 90.6211 59.5658C90.6211 58.4423 91.5334 57.5385 92.6484 57.5385C93.7635 57.5385 94.6758 58.4423 94.6758 59.5658Z" fill="#787878"/>
<path d="M119.453 31.774C119.453 32.8975 118.541 33.8013 117.426 33.8013C116.302 33.8013 115.398 32.8891 115.398 31.774C115.398 30.6505 116.311 29.7467 117.426 29.7467C118.549 29.7467 119.453 30.659 119.453 31.774Z" fill="#787878"/>
<path d="M143.762 61.018C143.762 62.1415 142.849 63.0454 141.734 63.0454C140.619 63.0454 139.707 62.1331 139.707 61.018C139.707 59.8946 140.619 58.9907 141.734 58.9907C142.849 58.9907 143.762 59.8946 143.762 61.018Z" fill="#787878"/>
<path d="M168.328 34.1308C168.328 35.2543 167.416 36.1582 166.301 36.1582C165.177 36.1582 164.273 35.2459 164.273 34.1308C164.273 33.0158 165.186 32.1035 166.301 32.1035C167.424 32.095 168.328 33.0073 168.328 34.1308Z" fill="#787878"/>
<path opacity="0.8" d="M122.004 164.133L107.391 155.703L112.501 152.755L127.107 161.185L122.004 164.133Z" fill="#787878"/>
<path opacity="0.8" d="M131.101 158.955L116.496 150.516L121.607 147.568L136.212 155.999L131.101 158.955Z" fill="#2F66F6"/>
<path opacity="0.4" d="M92.6489 110.713C92.4124 110.713 92.2266 110.528 92.2266 110.291V59.5653C92.2266 59.3288 92.4124 59.1429 92.6489 59.1429C92.8854 59.1429 93.0713 59.3288 93.0713 59.5653V110.291C93.0713 110.519 92.877 110.713 92.6489 110.713Z" fill="#787878"/>
<path opacity="0.4" d="M117.426 125.031C117.19 125.031 117.004 124.845 117.004 124.609V31.7735C117.004 31.537 117.19 31.3511 117.426 31.3511C117.663 31.3511 117.849 31.537 117.849 31.7735V124.609C117.849 124.845 117.663 125.031 117.426 125.031Z" fill="#787878"/>
<path opacity="0.4" d="M141.735 139.087C141.498 139.087 141.312 138.901 141.312 138.665V61.0175C141.312 60.781 141.498 60.5952 141.735 60.5952C141.971 60.5952 142.157 60.781 142.157 61.0175V138.665C142.157 138.893 141.963 139.087 141.735 139.087Z" fill="#787878"/>
<path opacity="0.4" d="M166.301 153.178C166.065 153.178 165.879 152.992 165.879 152.755V34.3081C165.879 34.0716 166.065 33.8857 166.301 33.8857C166.538 33.8857 166.724 34.0716 166.724 34.3081V152.764C166.724 152.992 166.538 153.178 166.301 153.178Z" fill="#787878"/>
<path d="M62.7219 81.1815C62.5868 81.1815 62.46 81.1223 62.3756 81.0041C62.2404 80.8098 62.2826 80.5479 62.4769 80.4128L92.3633 59.244L117.114 31.4948C117.198 31.4019 117.308 31.3596 117.435 31.3512C117.561 31.3512 117.671 31.4103 117.756 31.5032L141.754 60.3759L165.998 33.8431L194.778 0.147048C194.93 -0.0303446 195.2 -0.047237 195.377 0.0963662C195.555 0.248417 195.572 0.518728 195.42 0.69612L166.631 34.4091L142.058 61.3135C141.974 61.4065 141.864 61.4572 141.737 61.4487C141.619 61.4487 141.501 61.3896 141.425 61.2967L117.426 32.4324L92.9715 59.8522C92.9461 59.8775 92.9292 59.8944 92.9039 59.9198L62.9753 81.1139C62.8908 81.1561 62.8064 81.1815 62.7219 81.1815Z" fill="url(#paint26_linear_324_8933)"/>
<path opacity="0.4" d="M326.292 187.92C309.338 192.212 288.364 186.577 279.452 175.334C270.54 164.091 277.053 151.504 294.007 147.213C310.96 142.922 331.935 148.556 340.847 159.799C349.759 171.043 343.246 183.629 326.292 187.92Z" fill="url(#paint27_radial_324_8933)"/>
<path opacity="0.4" d="M279.427 184.491C301.228 184.491 318.901 174.287 318.901 161.7C318.901 149.113 301.228 138.909 279.427 138.909C257.626 138.909 239.953 149.113 239.953 161.7C239.953 174.287 257.626 184.491 279.427 184.491Z" fill="url(#paint28_radial_324_8933)"/>
<path opacity="0.6" d="M289.956 171.533L279.591 165.553C278.332 164.826 278.493 163.559 279.946 162.715L289.93 156.937C291.383 156.1 293.579 156.007 294.838 156.734L305.203 162.715C306.461 163.441 306.301 164.708 304.848 165.553L294.863 171.331C293.41 172.167 291.214 172.26 289.956 171.533Z" fill="#0C0F38"/>
<path d="M292.032 173.73C291.035 173.73 290.089 173.527 289.38 173.122L277.089 166.034C276.354 165.612 275.957 165.021 275.957 164.362C275.957 163.585 276.523 162.816 277.511 162.242L289.354 155.391C291.145 154.36 293.865 154.251 295.428 155.146L307.719 162.233C308.454 162.656 308.851 163.247 308.851 163.914C308.851 164.691 308.285 165.46 307.296 166.034L295.453 172.885C294.473 173.443 293.223 173.73 292.032 173.73ZM292.767 155.028C291.669 155.028 290.503 155.298 289.599 155.822L277.756 162.672C276.928 163.154 276.455 163.762 276.455 164.362C276.455 164.835 276.768 165.274 277.334 165.604L289.625 172.691C291.044 173.51 293.544 173.4 295.2 172.446L307.043 165.595C307.871 165.114 308.344 164.505 308.344 163.914C308.344 163.441 308.031 163.002 307.465 162.672L295.175 155.585C294.524 155.214 293.671 155.028 292.767 155.028Z" fill="url(#paint29_linear_324_8933)"/>
<path d="M306.055 152.477H297.278L294.845 151.074C293.587 150.348 291.391 150.441 289.938 151.277L287.53 152.679H278.745V158.567C278.711 159.057 278.982 159.53 279.59 159.885L289.954 165.866C291.213 166.592 293.409 166.499 294.862 165.663L304.847 159.885C305.599 159.446 306.004 158.897 306.046 158.364H306.055V152.477Z" fill="url(#paint30_linear_324_8933)"/>
<path d="M304.847 159.479L294.862 165.257C293.409 166.094 291.213 166.187 289.954 165.46L279.59 159.479C278.982 159.133 278.711 158.652 278.745 158.162V158.567C278.711 159.057 278.982 159.53 279.59 159.885L289.954 165.866C291.213 166.592 293.409 166.499 294.862 165.663L304.847 159.885C305.599 159.446 306.004 158.897 306.046 158.364H306.055V157.959H306.046C306.004 158.491 305.607 159.049 304.847 159.479Z" fill="url(#paint31_linear_324_8933)"/>
<path d="M279.302 158.981V153.093H288.071L290.478 151.691C291.931 150.854 294.127 150.762 295.386 151.488L297.819 152.89H306.038V152.485H297.261L294.829 151.083C293.57 150.356 291.374 150.449 289.921 151.285L287.513 152.688H278.745V158.575C278.711 159.065 278.982 159.538 279.59 159.893L279.691 159.952C279.412 159.656 279.277 159.327 279.302 158.981Z" fill="url(#paint32_linear_324_8933)"/>
<path d="M289.956 159.977L279.591 153.996C278.332 153.27 278.493 152.003 279.946 151.158L289.93 145.38C291.383 144.544 293.579 144.451 294.838 145.178L305.203 151.158C306.461 151.885 306.301 153.152 304.848 153.996L294.863 159.774C293.41 160.611 291.214 160.704 289.956 159.977Z" fill="url(#paint33_linear_324_8933)"/>
<path d="M305.203 151.158L294.838 145.178C294.188 144.797 293.284 144.645 292.363 144.696C293.031 144.738 293.664 144.89 294.146 145.178L304.511 151.158C305.769 151.885 305.609 153.152 304.156 153.996L294.171 159.774C293.47 160.18 292.6 160.408 291.738 160.459C292.803 160.526 293.968 160.29 294.864 159.774L304.848 153.996C306.301 153.16 306.462 151.885 305.203 151.158Z" fill="url(#paint34_linear_324_8933)"/>
<path d="M290.75 159.978L280.385 153.997C279.126 153.27 279.287 152.003 280.74 151.159L290.724 145.381C291.417 144.984 292.27 144.756 293.115 144.705C292.034 144.629 290.834 144.857 289.93 145.381L279.946 151.159C278.493 151.995 278.332 153.27 279.591 153.997L289.956 159.978C290.614 160.358 291.535 160.51 292.473 160.451C291.831 160.408 291.223 160.248 290.75 159.978Z" fill="url(#paint35_linear_324_8933)"/>
<path d="M297.463 155.509C294.667 157.122 290.131 157.122 287.327 155.509C284.522 153.895 284.531 151.277 287.327 149.655C290.123 148.041 294.659 148.041 297.463 149.655C300.259 151.268 300.259 153.887 297.463 155.509Z" fill="#50ACE9"/>
<path d="M287.326 151.191C290.123 149.578 294.659 149.578 297.463 151.191C298.519 151.8 299.178 152.56 299.44 153.345C299.862 152.045 299.212 150.651 297.463 149.646C294.667 148.032 290.131 148.032 287.326 149.646C285.586 150.651 284.927 152.045 285.358 153.345C285.62 152.56 286.271 151.808 287.326 151.191Z" fill="#267FE5"/>
<path opacity="0.4" d="M286.136 211.708C269.182 216 248.208 210.365 239.296 199.122C230.384 187.879 236.897 175.292 253.85 171.001C270.804 166.71 291.779 172.344 300.69 183.588C309.611 194.822 303.089 207.417 286.136 211.708Z" fill="url(#paint36_radial_324_8933)"/>
<path opacity="0.4" d="M239.279 208.27C261.08 208.27 278.753 198.066 278.753 185.479C278.753 172.892 261.08 162.689 239.279 162.689C217.478 162.689 199.805 172.892 199.805 185.479C199.805 198.066 217.478 208.27 239.279 208.27Z" fill="url(#paint37_radial_324_8933)"/>
<path opacity="0.6" d="M249.803 195.312L239.438 189.331C238.18 188.605 238.34 187.338 239.793 186.493L249.778 180.715C251.231 179.879 253.427 179.786 254.686 180.512L265.051 186.493C266.309 187.219 266.149 188.486 264.696 189.331L254.711 195.109C253.258 195.945 251.062 196.038 249.803 195.312Z" fill="#0C0F38"/>
<path d="M251.872 197.516C250.875 197.516 249.929 197.314 249.22 196.908L236.929 189.821C236.194 189.399 235.797 188.807 235.797 188.148C235.797 187.371 236.363 186.603 237.351 186.028L249.194 179.177C250.985 178.147 253.705 178.037 255.268 178.932L267.559 186.02C268.293 186.442 268.69 187.033 268.69 187.701C268.69 188.478 268.124 189.247 267.136 189.821L255.293 196.672C254.322 197.229 253.063 197.516 251.872 197.516ZM252.607 178.814C251.509 178.814 250.343 179.085 249.439 179.608L237.596 186.459C236.768 186.94 236.295 187.549 236.295 188.148C236.295 188.621 236.608 189.061 237.174 189.39L249.465 196.477C250.884 197.297 253.384 197.187 255.04 196.232L266.883 189.382C267.711 188.9 268.184 188.292 268.184 187.701C268.184 187.228 267.871 186.788 267.305 186.459L255.014 179.372C254.372 178.992 253.511 178.814 252.607 178.814Z" fill="url(#paint38_linear_324_8933)"/>
<path d="M265.894 176.263H257.117L254.684 174.861C253.425 174.134 251.229 174.227 249.776 175.064L247.369 176.466H238.6V182.354C238.567 182.844 238.837 183.317 239.445 183.671L249.81 189.652C251.069 190.379 253.265 190.286 254.718 189.449L264.702 183.671C265.454 183.232 265.86 182.683 265.902 182.151H265.91V176.263H265.894Z" fill="url(#paint39_linear_324_8933)"/>
<path d="M264.695 183.266L254.71 189.044C253.257 189.88 251.061 189.973 249.802 189.247L239.437 183.266C238.829 182.92 238.559 182.438 238.593 181.948V182.354C238.559 182.844 238.829 183.317 239.437 183.671L249.802 189.652C251.061 190.379 253.257 190.286 254.71 189.449L264.695 183.671C265.446 183.232 265.852 182.683 265.894 182.151H265.903V181.745H265.894C265.852 182.278 265.446 182.827 264.695 183.266Z" fill="url(#paint40_linear_324_8933)"/>
<path d="M239.15 182.759V176.871H247.918L250.325 175.469C251.778 174.633 253.974 174.54 255.233 175.266L257.666 176.669H265.885V176.263H257.117L254.684 174.861C253.425 174.134 251.229 174.227 249.776 175.064L247.369 176.466H238.6V182.354C238.567 182.844 238.837 183.317 239.445 183.671L239.547 183.731C239.251 183.443 239.124 183.105 239.15 182.759Z" fill="#1050FA"/>
<path d="M249.803 183.756L239.438 177.775C238.18 177.048 238.34 175.781 239.793 174.937L249.778 169.159C251.231 168.322 253.427 168.229 254.686 168.956L265.051 174.937C266.309 175.663 266.149 176.93 264.696 177.775L254.711 183.553C253.258 184.389 251.062 184.482 249.803 183.756Z" fill="url(#paint41_linear_324_8933)"/>
<path d="M265.051 174.946L254.686 168.965C254.036 168.585 253.132 168.433 252.211 168.484C252.878 168.526 253.512 168.678 253.993 168.965L264.358 174.946C265.617 175.672 265.456 176.939 264.003 177.784L254.019 183.562C253.318 183.967 252.448 184.195 251.586 184.246C252.65 184.314 253.816 184.077 254.711 183.562L264.696 177.784C266.149 176.939 266.309 175.672 265.051 174.946Z" fill="#1050FA"/>
<path d="M250.597 183.756L240.232 177.775C238.974 177.049 239.134 175.782 240.587 174.937L250.572 169.159C251.265 168.762 252.118 168.534 252.962 168.483C251.881 168.407 250.682 168.635 249.778 169.159L239.793 174.937C238.34 175.773 238.18 177.049 239.438 177.775L249.803 183.756C250.462 184.136 251.383 184.288 252.32 184.229C251.67 184.187 251.07 184.026 250.597 183.756Z" fill="#1050FA"/>
<path d="M257.312 179.288C254.516 180.901 249.98 180.901 247.175 179.288C244.379 177.674 244.379 175.056 247.175 173.434C249.971 171.82 254.507 171.82 257.312 173.434C260.108 175.056 260.108 177.674 257.312 179.288Z" fill="#50ACE9"/>
<path d="M247.179 174.98C249.975 173.366 254.511 173.366 257.315 174.98C258.371 175.588 259.03 176.348 259.292 177.134C259.714 175.833 259.064 174.439 257.315 173.434C254.519 171.82 249.983 171.82 247.179 173.434C245.438 174.439 244.78 175.833 245.202 177.134C245.464 176.348 246.123 175.588 247.179 174.98Z" fill="#267FE5"/>
<path opacity="0.4" d="M245.983 235.487C229.03 239.778 208.055 234.144 199.144 222.9C190.232 211.657 196.744 199.071 213.698 194.779C230.652 190.488 251.626 196.122 260.538 207.366C269.45 218.609 262.937 231.195 245.983 235.487Z" fill="url(#paint42_radial_324_8933)"/>
<path opacity="0.4" d="M199.119 232.057C220.919 232.057 238.592 221.853 238.592 209.266C238.592 196.679 220.919 186.476 199.119 186.476C177.318 186.476 159.645 196.679 159.645 209.266C159.645 221.853 177.318 232.057 199.119 232.057Z" fill="url(#paint43_radial_324_8933)"/>
<path opacity="0.6" d="M209.643 219.099L199.278 213.118C198.02 212.392 198.18 211.125 199.633 210.28L209.618 204.502C211.071 203.666 213.267 203.573 214.526 204.299L224.89 210.28C226.149 211.006 225.989 212.273 224.536 213.118L214.551 218.896C213.098 219.732 210.902 219.825 209.643 219.099Z" fill="#0C0F38"/>
<path d="M211.72 221.295C210.723 221.295 209.777 221.092 209.067 220.687L196.776 213.6C196.042 213.177 195.645 212.586 195.645 211.927C195.645 211.15 196.21 210.381 197.199 209.807L209.042 202.956C210.833 201.926 213.553 201.816 215.115 202.711L227.406 209.798C228.141 210.221 228.538 210.812 228.538 211.479C228.538 212.257 227.972 213.025 226.984 213.6L215.141 220.45C214.161 221.008 212.911 221.295 211.72 221.295ZM212.455 202.593C211.356 202.593 210.191 202.863 209.287 203.387L197.444 210.238C196.616 210.719 196.143 211.327 196.143 211.927C196.143 212.4 196.455 212.839 197.021 213.169L209.312 220.256C210.731 221.076 213.232 220.966 214.887 220.011L226.73 213.16C227.558 212.679 228.031 212.071 228.031 211.479C228.031 211.006 227.719 210.567 227.153 210.238L214.862 203.15C214.212 202.779 213.358 202.593 212.455 202.593Z" fill="url(#paint44_linear_324_8933)"/>
<path d="M225.741 200.042H216.964L214.532 198.64C213.273 197.913 211.077 198.006 209.624 198.842L207.216 200.245H198.448V206.132C198.414 206.622 198.685 207.095 199.293 207.45L209.658 213.431C210.916 214.157 213.113 214.064 214.565 213.228L224.55 207.45C225.302 207.011 225.707 206.462 225.75 205.93H225.758V200.042H225.741Z" fill="url(#paint45_linear_324_8933)"/>
<path d="M224.535 207.045L214.55 212.823C213.097 213.659 210.901 213.752 209.642 213.025L199.277 207.045C198.669 206.698 198.399 206.225 198.432 205.727V206.132C198.399 206.622 198.669 207.095 199.277 207.45L209.642 213.431C210.901 214.157 213.097 214.064 214.55 213.228L224.535 207.45C225.286 207.011 225.692 206.462 225.734 205.93H225.742V205.524H225.734C225.692 206.056 225.295 206.614 224.535 207.045Z" fill="url(#paint46_linear_324_8933)"/>
<path d="M198.99 206.546V200.658H207.758L210.166 199.256C211.619 198.42 213.815 198.327 215.074 199.053L217.506 200.456H225.726V200.05H216.949L214.516 198.648C213.257 197.921 211.061 198.014 209.608 198.851L207.201 200.253H198.432V206.141C198.399 206.63 198.669 207.104 199.277 207.458L199.379 207.517C199.1 207.222 198.965 206.892 198.99 206.546Z" fill="#1050FA"/>
<path d="M209.643 207.543L199.278 201.563C198.02 200.836 198.18 199.569 199.633 198.724L209.618 192.947C211.071 192.11 213.267 192.017 214.526 192.744L224.89 198.724C226.149 199.451 225.989 200.718 224.536 201.563L214.551 207.341C213.098 208.177 210.902 208.27 209.643 207.543Z" fill="url(#paint47_linear_324_8933)"/>
<path d="M224.891 198.725L214.526 192.744C213.875 192.364 212.972 192.212 212.051 192.262C212.718 192.305 213.352 192.457 213.833 192.744L224.198 198.725C225.457 199.451 225.296 200.718 223.843 201.563L213.859 207.341C213.157 207.746 212.287 207.974 211.426 208.025C212.49 208.093 213.656 207.856 214.551 207.341L224.536 201.563C225.989 200.718 226.149 199.451 224.891 198.725Z" fill="#1050FA"/>
<path d="M210.437 207.543L200.072 201.562C198.814 200.836 198.974 199.569 200.427 198.724L210.412 192.946C211.104 192.549 211.958 192.321 212.802 192.27C211.721 192.194 210.522 192.422 209.618 192.946L199.633 198.724C198.18 199.56 198.02 200.836 199.278 201.562L209.643 207.543C210.302 207.923 211.223 208.075 212.16 208.016C211.51 207.965 210.91 207.813 210.437 207.543Z" fill="url(#paint48_linear_324_8933)"/>
<path d="M217.155 203.066C214.359 204.679 209.823 204.679 207.018 203.066C204.214 201.452 204.222 198.834 207.018 197.212C209.814 195.599 214.35 195.599 217.155 197.212C219.951 198.834 219.951 201.452 217.155 203.066Z" fill="#50ACE9"/>
<path d="M207.018 198.758C209.814 197.144 214.35 197.144 217.155 198.758C218.21 199.366 218.869 200.126 219.131 200.912C219.554 199.611 218.903 198.217 217.155 197.212C214.359 195.599 209.822 195.599 207.018 197.212C205.278 198.217 204.619 199.611 205.05 200.912C205.303 200.126 205.962 199.374 207.018 198.758Z" fill="#267FE5"/>
<defs>
<radialGradient id="paint0_radial_324_8933" cx="0" cy="0" r="1" gradientUnits="userSpaceOnUse" gradientTransform="translate(70.8674 138.656) rotate(30.0007) scale(57.8617 50.1104)">
<stop offset="0.0108" stop-color="#25BFEC"/>
<stop offset="0.348" stop-color="#3AB3F1"/>
<stop offset="0.6951" stop-color="#47ACF5"/>
<stop offset="1" stop-color="#4CA9F6"/>
</radialGradient>
<linearGradient id="paint1_linear_324_8933" x1="25.4302" y1="128.752" x2="75.3062" y2="128.752" gradientUnits="userSpaceOnUse">
<stop stop-color="#4BA1F4"/>
<stop offset="0.045" stop-color="#4A9DF3"/>
<stop offset="0.2288" stop-color="#4994EF"/>
<stop offset="0.4785" stop-color="#4891EE"/>
<stop offset="1" stop-color="#437CE5"/>
</linearGradient>
<linearGradient id="paint2_linear_324_8933" x1="32.7338" y1="110.407" x2="50.3688" y2="140.951" gradientUnits="userSpaceOnUse">
<stop stop-color="#4C65F6"/>
<stop offset="0.5367" stop-color="#486DEE"/>
<stop offset="1" stop-color="#4279E4"/>
</linearGradient>
<linearGradient id="paint3_linear_324_8933" x1="25.4302" y1="111.21" x2="75.3062" y2="111.21" gradientUnits="userSpaceOnUse">
<stop stop-color="#4BA1F4"/>
<stop offset="0.00263433" stop-color="#4BA1F4"/>
<stop offset="0.4785" stop-color="#4CA4F6"/>
<stop offset="0.7991" stop-color="#3989EB"/>
<stop offset="1" stop-color="#2C75E4"/>
</linearGradient>
<linearGradient id="paint4_linear_324_8933" x1="32.7339" y1="92.8656" x2="50.3689" y2="123.409" gradientUnits="userSpaceOnUse">
<stop stop-color="#4C66F5"/>
<stop offset="0.3582" stop-color="#446BF1"/>
<stop offset="0.928" stop-color="#2C77E6"/>
<stop offset="1" stop-color="#2979E4"/>
</linearGradient>
<linearGradient id="paint5_linear_324_8933" x1="25.4302" y1="93.6699" x2="75.3062" y2="93.6699" gradientUnits="userSpaceOnUse">
<stop stop-color="#4CA4F6"/>
<stop offset="0.6197" stop-color="#4586E9"/>
<stop offset="1" stop-color="#4279E4"/>
</linearGradient>
<linearGradient id="paint6_linear_324_8933" x1="32.7338" y1="75.3252" x2="50.3688" y2="105.869" gradientUnits="userSpaceOnUse">
<stop stop-color="#4C66F5"/>
<stop offset="0.7335" stop-color="#476EEE"/>
<stop offset="1" stop-color="#4573EA"/>
</linearGradient>
<linearGradient id="paint7_linear_324_8933" x1="32.5194" y1="76.129" x2="31.7616" y2="76.129" gradientUnits="userSpaceOnUse">
<stop stop-color="#4CA4F6"/>
<stop offset="0.6197" stop-color="#4586E9"/>
<stop offset="1" stop-color="#4279E4"/>
</linearGradient>
<linearGradient id="paint8_linear_324_8933" x1="32.7338" y1="57.7846" x2="50.3689" y2="88.3285" gradientUnits="userSpaceOnUse">
<stop stop-color="#4C66F5"/>
<stop offset="0.6612" stop-color="#476EEE"/>
<stop offset="1" stop-color="#4475E8"/>
</linearGradient>
<linearGradient id="paint9_linear_324_8933" x1="25.4302" y1="58.5868" x2="75.3062" y2="58.5868" gradientUnits="userSpaceOnUse">
<stop stop-color="#4CA4F6"/>
<stop offset="0.6197" stop-color="#4586E9"/>
<stop offset="1" stop-color="#4279E4"/>
</linearGradient>
<linearGradient id="paint10_linear_324_8933" x1="32.7357" y1="40.2422" x2="50.3707" y2="70.786" gradientUnits="userSpaceOnUse">
<stop stop-color="#4C65F6"/>
<stop offset="0.5367" stop-color="#486DEE"/>
<stop offset="1" stop-color="#4279E4"/>
</linearGradient>
<radialGradient id="paint11_radial_324_8933" cx="0" cy="0" r="1" gradientUnits="userSpaceOnUse" gradientTransform="translate(50.7265 68.7855) scale(1.56646 1.56646)">
<stop offset="0.0108" stop-color="#4CA9F6"/>
<stop offset="0.1137" stop-color="#4199F7"/>
<stop offset="0.3545" stop-color="#2C79F8"/>
<stop offset="0.5875" stop-color="#1C62F9"/>
<stop offset="0.8073" stop-color="#1355FA"/>
<stop offset="1" stop-color="#1050FA"/>
</radialGradient>
<radialGradient id="paint12_radial_324_8933" cx="0" cy="0" r="1" gradientUnits="userSpaceOnUse" gradientTransform="translate(50.7271 69.4222) scale(1.2882)">
<stop offset="0.0108" stop-color="#4CA9F6"/>
<stop offset="0.1137" stop-color="#4199F7"/>
<stop offset="0.3545" stop-color="#2C79F8"/>
<stop offset="0.5875" stop-color="#1C62F9"/>
<stop offset="0.8073" stop-color="#1355FA"/>
<stop offset="1" stop-color="#1050FA"/>
</radialGradient>
<radialGradient id="paint13_radial_324_8933" cx="0" cy="0" r="1" gradientUnits="userSpaceOnUse" gradientTransform="translate(50.7265 86.326) scale(1.56646 1.56646)">
<stop offset="0.0108" stop-color="#4CA9F6"/>
<stop offset="0.1137" stop-color="#4199F7"/>
<stop offset="0.3545" stop-color="#2C79F8"/>
<stop offset="0.5875" stop-color="#1C62F9"/>
<stop offset="0.8073" stop-color="#1355FA"/>
<stop offset="1" stop-color="#1050FA"/>
</radialGradient>
<radialGradient id="paint14_radial_324_8933" cx="0" cy="0" r="1" gradientUnits="userSpaceOnUse" gradientTransform="translate(50.7271 86.9628) scale(1.2882)">
<stop offset="0.0108" stop-color="#4CA9F6"/>
<stop offset="0.1137" stop-color="#4199F7"/>
<stop offset="0.3545" stop-color="#2C79F8"/>
<stop offset="0.5875" stop-color="#1C62F9"/>
<stop offset="0.8073" stop-color="#1355FA"/>
<stop offset="1" stop-color="#1050FA"/>
</radialGradient>
<radialGradient id="paint15_radial_324_8933" cx="0" cy="0" r="1" gradientUnits="userSpaceOnUse" gradientTransform="translate(50.7265 103.868) scale(1.56646)">
<stop offset="0.0108" stop-color="#4CA9F6"/>
<stop offset="0.1137" stop-color="#4199F7"/>
<stop offset="0.3545" stop-color="#2C79F8"/>
<stop offset="0.5875" stop-color="#1C62F9"/>
<stop offset="0.8073" stop-color="#1355FA"/>
<stop offset="1" stop-color="#1050FA"/>
</radialGradient>
<radialGradient id="paint16_radial_324_8933" cx="0" cy="0" r="1" gradientUnits="userSpaceOnUse" gradientTransform="translate(50.7271 104.504) scale(1.2882 1.28821)">
<stop offset="0.0108" stop-color="#4CA9F6"/>
<stop offset="0.1137" stop-color="#4199F7"/>
<stop offset="0.3545" stop-color="#2C79F8"/>
<stop offset="0.5875" stop-color="#1C62F9"/>
<stop offset="0.8073" stop-color="#1355FA"/>
<stop offset="1" stop-color="#1050FA"/>
</radialGradient>
<radialGradient id="paint17_radial_324_8933" cx="0" cy="0" r="1" gradientUnits="userSpaceOnUse" gradientTransform="translate(50.7265 121.408) scale(1.56646 1.56646)">
<stop offset="0.0108" stop-color="#4CA9F6"/>
<stop offset="0.1137" stop-color="#4199F7"/>
<stop offset="0.3545" stop-color="#2C79F8"/>
<stop offset="0.5875" stop-color="#1C62F9"/>
<stop offset="0.8073" stop-color="#1355FA"/>
<stop offset="1" stop-color="#1050FA"/>
</radialGradient>
<radialGradient id="paint18_radial_324_8933" cx="0" cy="0" r="1" gradientUnits="userSpaceOnUse" gradientTransform="translate(50.7271 122.045) scale(1.2882)">
<stop offset="0.0108" stop-color="#4CA9F6"/>
<stop offset="0.1137" stop-color="#4199F7"/>
<stop offset="0.3545" stop-color="#2C79F8"/>
<stop offset="0.5875" stop-color="#1C62F9"/>
<stop offset="0.8073" stop-color="#1355FA"/>
<stop offset="1" stop-color="#1050FA"/>
</radialGradient>
<radialGradient id="paint19_radial_324_8933" cx="0" cy="0" r="1" gradientUnits="userSpaceOnUse" gradientTransform="translate(50.7265 138.949) scale(1.56646)">
<stop offset="0.0108" stop-color="#4CA9F6"/>
<stop offset="0.1137" stop-color="#4199F7"/>
<stop offset="0.3545" stop-color="#2C79F8"/>
<stop offset="0.5875" stop-color="#1C62F9"/>
<stop offset="0.8073" stop-color="#1355FA"/>
<stop offset="1" stop-color="#1050FA"/>
</radialGradient>
<radialGradient id="paint20_radial_324_8933" cx="0" cy="0" r="1" gradientUnits="userSpaceOnUse" gradientTransform="translate(50.7271 139.585) scale(1.2882 1.28821)">
<stop offset="0.0108" stop-color="#4CA9F6"/>
<stop offset="0.1137" stop-color="#4199F7"/>
<stop offset="0.3545" stop-color="#2C79F8"/>
<stop offset="0.5875" stop-color="#1C62F9"/>
<stop offset="0.8073" stop-color="#1355FA"/>
<stop offset="1" stop-color="#1050FA"/>
</radialGradient>
<linearGradient id="paint21_linear_324_8933" x1="-33.3268" y1="138.87" x2="385.269" y2="138.87" gradientUnits="userSpaceOnUse">
<stop stop-color="#696F8C"/>
<stop offset="0.1687" stop-color="#616784"/>
<stop offset="0.4377" stop-color="#4B506C"/>
<stop offset="0.7716" stop-color="#272C47"/>
<stop offset="1" stop-color="#0A0F29"/>
</linearGradient>
<linearGradient id="paint22_linear_324_8933" x1="119.581" y1="103.48" x2="169.208" y2="189.429" gradientUnits="userSpaceOnUse">
<stop stop-color="#747691"/>
<stop offset="1" stop-color="#747691"/>
</linearGradient>
<radialGradient id="paint23_radial_324_8933" cx="0" cy="0" r="1" gradientUnits="userSpaceOnUse" gradientTransform="translate(72.5265 67.7134) rotate(29.9987) scale(221.381 244.237)">
<stop stop-color="#747691"/>
<stop offset="1" stop-color="#747691"/>
</radialGradient>
<linearGradient id="paint24_linear_324_8933" x1="177.087" y1="164.668" x2="177.087" y2="12.3887" gradientUnits="userSpaceOnUse">
<stop stop-color="white"/>
<stop offset="0.0791" stop-color="#D8E3F9"/>
<stop offset="0.1746" stop-color="#B0C7F4"/>
<stop offset="0.2766" stop-color="#8EAFEF"/>
<stop offset="0.3846" stop-color="#729BEB"/>
<stop offset="0.5007" stop-color="#5D8CE8"/>
<stop offset="0.6288" stop-color="#4E81E6"/>
<stop offset="0.7782" stop-color="#457BE4"/>
<stop offset="1" stop-color="#4279E4"/>
</linearGradient>
<linearGradient id="paint25_linear_324_8933" x1="131.024" y1="146.48" x2="131.024" y2="28.0832" gradientUnits="userSpaceOnUse">
<stop stop-color="white"/>
<stop offset="0.00142676" stop-color="#FFFEFE"/>
<stop offset="0.0696" stop-color="#FDE8CE"/>
<stop offset="0.1414" stop-color="#FCD4A4"/>
<stop offset="0.2194" stop-color="#FBC37F"/>
<stop offset="0.3027" stop-color="#F9B460"/>
<stop offset="0.3928" stop-color="#F9A846"/>
<stop offset="0.4924" stop-color="#F89E32"/>
<stop offset="0.6065" stop-color="#F79825"/>
<stop offset="0.748" stop-color="#F7941C"/>
<stop offset="1" stop-color="#F7931A"/>
</linearGradient>
<linearGradient id="paint26_linear_324_8933" x1="62.2962" y1="40.5904" x2="195.514" y2="40.5904" gradientUnits="userSpaceOnUse">
<stop stop-color="#4C65F6"/>
<stop offset="0.5367" stop-color="#486DEE"/>
<stop offset="1" stop-color="#4279E4"/>
</linearGradient>
<radialGradient id="paint27_radial_324_8933" cx="0" cy="0" r="1" gradientUnits="userSpaceOnUse" gradientTransform="translate(310.148 167.569) rotate(51.5841) scale(25.977 28.8789)">
<stop offset="0.0108" stop-color="#25BFEC"/>
<stop offset="0.0804" stop-color="#2BBBEB"/>
<stop offset="0.4117" stop-color="#42ADE9"/>
<stop offset="0.7251" stop-color="#4FA5E7"/>
<stop offset="1" stop-color="#54A2E7"/>
</radialGradient>
<radialGradient id="paint28_radial_324_8933" cx="0" cy="0" r="1" gradientUnits="userSpaceOnUse" gradientTransform="translate(279.431 161.7) rotate(30.0007) scale(32.2301 27.9125)">
<stop offset="0.0108" stop-color="#54A2E7"/>
<stop offset="0.0693" stop-color="#4F9DE3"/>
<stop offset="0.4046" stop-color="#3A86D0"/>
<stop offset="0.7218" stop-color="#2D79C5"/>
<stop offset="1" stop-color="#2874C1"/>
</radialGradient>
<linearGradient id="paint29_linear_324_8933" x1="275.951" y1="164.136" x2="308.844" y2="164.136" gradientUnits="userSpaceOnUse">
<stop offset="1" stop-color="#6EE8FC"/>
</linearGradient>
<linearGradient id="paint30_linear_324_8933" x1="276.163" y1="158.472" x2="309.432" y2="158.472" gradientUnits="userSpaceOnUse">
<stop stop-color="#97D0F1"/>
<stop offset="0.1078" stop-color="#85C1EF"/>
<stop offset="0.3755" stop-color="#5FA0EA"/>
<stop offset="0.6223" stop-color="#4388E7"/>
<stop offset="0.8384" stop-color="#327AE5"/>
<stop offset="1" stop-color="#2C75E4"/>
</linearGradient>
<linearGradient id="paint31_linear_324_8933" x1="276.163" y1="162.16" x2="309.432" y2="162.16" gradientUnits="userSpaceOnUse">
<stop stop-color="#1050FA"/>
</linearGradient>
<linearGradient id="paint32_linear_324_8933" x1="278.747" y1="155.267" x2="306.053" y2="155.267" gradientUnits="userSpaceOnUse">
<stop stop-color="#1050FA"/>
</linearGradient>
<linearGradient id="paint33_linear_324_8933" x1="278.543" y1="152.58" x2="304.118" y2="158.909" gradientUnits="userSpaceOnUse">
<stop stop-color="#97D0F1"/>
<stop offset="0.3683" stop-color="#69ACEC"/>
<stop offset="0.789" stop-color="#3B87E6"/>
<stop offset="1" stop-color="#2979E4"/>
</linearGradient>
<linearGradient id="paint34_linear_324_8933" x1="291.743" y1="152.58" x2="306.054" y2="152.58" gradientUnits="userSpaceOnUse">
<stop stop-color="#1050FA"/>
</linearGradient>
<linearGradient id="paint35_linear_324_8933" x1="278.745" y1="152.579" x2="293.119" y2="152.579" gradientUnits="userSpaceOnUse">
<stop stop-color="#1050FA"/>
</linearGradient>
<radialGradient id="paint36_radial_324_8933" cx="0" cy="0" r="1" gradientUnits="userSpaceOnUse" gradientTransform="translate(269.996 191.352) rotate(51.5841) scale(25.977 28.8789)">
<stop offset="0.0108" stop-color="#25BFEC"/>
<stop offset="0.0804" stop-color="#2BBBEB"/>
<stop offset="0.4117" stop-color="#42ADE9"/>
<stop offset="0.7251" stop-color="#4FA5E7"/>
<stop offset="1" stop-color="#54A2E7"/>
</radialGradient>
<radialGradient id="paint37_radial_324_8933" cx="0" cy="0" r="1" gradientUnits="userSpaceOnUse" gradientTransform="translate(239.278 185.483) rotate(30.0007) scale(32.2301 27.9125)">
<stop offset="0.0108" stop-color="#54A2E7"/>
<stop offset="0.0693" stop-color="#4F9DE3"/>
<stop offset="0.4046" stop-color="#3A86D0"/>
<stop offset="0.7218" stop-color="#2D79C5"/>
<stop offset="1" stop-color="#2874C1"/>
</radialGradient>
<linearGradient id="paint38_linear_324_8933" x1="235.795" y1="187.917" x2="268.688" y2="187.917" gradientUnits="userSpaceOnUse">
<stop stop-color="#107FFF"/>
<stop offset="1" stop-color="#1050FA"/>
</linearGradient>
<linearGradient id="paint39_linear_324_8933" x1="236.006" y1="182.254" x2="269.275" y2="182.254" gradientUnits="userSpaceOnUse">
<stop stop-color="#97D0F1"/>
<stop offset="0.107" stop-color="#7CB9EE"/>
<stop offset="0.2487" stop-color="#5FA0EA"/>
<stop offset="0.4002" stop-color="#488DE7"/>
<stop offset="0.564" stop-color="#3880E6"/>
<stop offset="0.749" stop-color="#2F78E4"/>
<stop offset="1" stop-color="#2C75E4"/>
</linearGradient>
<linearGradient id="paint40_linear_324_8933" x1="236.006" y1="185.942" x2="269.276" y2="185.942" gradientUnits="userSpaceOnUse">
<stop stop-color="#1050FA"/>
</linearGradient>
<linearGradient id="paint41_linear_324_8933" x1="238.386" y1="176.362" x2="263.961" y2="182.691" gradientUnits="userSpaceOnUse">
<stop stop-color="#97D0F1"/>
<stop offset="0.1563" stop-color="#8FC9F0"/>
<stop offset="0.4056" stop-color="#77B7ED"/>
<stop offset="0.7149" stop-color="#5299E9"/>
<stop offset="1" stop-color="#2979E4"/>
</linearGradient>
<radialGradient id="paint42_radial_324_8933" cx="0" cy="0" r="1" gradientUnits="userSpaceOnUse" gradientTransform="translate(229.84 215.134) rotate(51.5841) scale(25.977 28.8789)">
<stop offset="0.0108" stop-color="#25BFEC"/>
<stop offset="0.0804" stop-color="#2BBBEB"/>
<stop offset="0.4117" stop-color="#42ADE9"/>
<stop offset="0.7251" stop-color="#4FA5E7"/>
<stop offset="1" stop-color="#54A2E7"/>
</radialGradient>
<radialGradient id="paint43_radial_324_8933" cx="0" cy="0" r="1" gradientUnits="userSpaceOnUse" gradientTransform="translate(199.122 209.265) rotate(30.0007) scale(32.2301 27.9125)">
<stop offset="0.0108" stop-color="#54A2E7"/>
<stop offset="0.0693" stop-color="#4F9DE3"/>
<stop offset="0.4046" stop-color="#3A86D0"/>
<stop offset="0.7218" stop-color="#2D79C5"/>
<stop offset="1" stop-color="#2874C1"/>
</radialGradient>
<linearGradient id="paint44_linear_324_8933" x1="195.638" y1="211.7" x2="228.531" y2="211.7" gradientUnits="userSpaceOnUse">
<stop stop-color="#2874C1"/>
<stop offset="1" stop-color="#2F66F6"/>
</linearGradient>
<linearGradient id="paint45_linear_324_8933" x1="195.849" y1="206.037" x2="229.118" y2="206.037" gradientUnits="userSpaceOnUse">
<stop stop-color="#86C6F8"/>
<stop offset="1" stop-color="#2C79F8"/>
</linearGradient>
<linearGradient id="paint46_linear_324_8933" x1="195.85" y1="209.725" x2="229.119" y2="209.725" gradientUnits="userSpaceOnUse">
<stop offset="0.7796" stop-color="#1050FA"/>
<stop offset="1" stop-color="#6EE8FC"/>
</linearGradient>
<linearGradient id="paint47_linear_324_8933" x1="198.23" y1="200.145" x2="223.805" y2="206.474" gradientUnits="userSpaceOnUse">
<stop stop-color="#A4B8F2"/>
<stop offset="0.1442" stop-color="#9BB4F1"/>
<stop offset="0.3742" stop-color="#84A8EE"/>
<stop offset="0.6612" stop-color="#5E94EA"/>
<stop offset="0.9913" stop-color="#2A7AE4"/>
<stop offset="1" stop-color="#2979E4"/>
</linearGradient>
<linearGradient id="paint48_linear_324_8933" x1="198.432" y1="200.143" x2="212.806" y2="200.143" gradientUnits="userSpaceOnUse">
<stop stop-color="#267FE5"/>
<stop offset="1" stop-color="#2C75E4"/>
</linearGradient>
</defs>
</svg>
